<svg width="400" height="235" viewBox="0 0 400 235" fill="none" xmlns="http://www.w3.org/2000/svg">
<path d="M85 100C93.2843 100 100 93.2843 100 85V15C100 6.71573 106.716 0 115 0H385C393.284 0 400 6.71573 400 15V220C400 228.284 393.284 235 385 235H15C6.71574 235 0 228.284 0 220V115C0 106.716 6.71573 100 15 100H85Z" fill="white"/>
<path d="M6.66577 102.527C8.27514 101.449 10.1047 100.675 12.0726 100.286L12.1696 100.776C13.0846 100.595 14.031 100.5 15 100.5H17.5V100H22.5V100.5H27.5V100H32.5V100.5H37.5V100H42.5V100.5H47.5V100H52.5V100.5H57.5V100H62.5V100.5H67.5V100H72.5V100.5H77.5V100H82.5V100.5H85C86.0345 100.5 87.0459 100.399 88.0245 100.205L87.9274 99.7145C89.8953 99.3252 91.7249 98.5509 93.3342 97.4735L93.6124 97.889C95.3025 96.7575 96.7575 95.3025 97.889 93.6124L97.4735 93.3342C98.5509 91.7249 99.3252 89.8953 99.7145 87.9274L100.205 88.0245C100.399 87.0459 100.5 86.0345 100.5 85V82.5H100V77.5H100.5V72.5H100V67.5H100.5V62.5H100V57.5H100.5V52.5H100V47.5H100.5V42.5H100V37.5H100.5V32.5H100V27.5H100.5V22.5H100V17.5H100.5V15C100.5 14.031 100.595 13.0846 100.776 12.1696L100.286 12.0726C100.675 10.1046 101.449 8.27514 102.527 6.66576L102.942 6.94392C104.001 5.36246 105.362 4.00076 106.944 2.942L106.666 2.52652C108.275 1.44907 110.105 0.674825 112.073 0.285511L112.17 0.776005C113.085 0.594986 114.031 0.5 115 0.5H117.5V0H122.5V0.5H127.5V0H132.5V0.5H137.5V0H142.5V0.5H147.5V0H152.5V0.5H157.5V0H162.5V0.5H167.5V0H172.5V0.5H177.5V0H182.5V0.5H187.5V0H192.5V0.5H197.5V0H202.5V0.5H207.5V0H212.5V0.5H217.5V0H222.5V0.5H227.5V0H232.5V0.5H237.5V0H242.5V0.5H247.5V0H252.5V0.5H257.5V0H262.5V0.5H267.5V0H272.5V0.5H277.5V0H282.5V0.5H287.5V0H292.5V0.5H297.5V0H302.5V0.5H307.5V0H312.5V0.5H317.5V0H322.5V0.5H327.5V0H332.5V0.5H337.5V0H342.5V0.5H347.5V0H352.5V0.5H357.5V0H362.5V0.5H367.5V0H372.5V0.5H377.5V0H382.5V0.5H385C385.969 0.5 386.915 0.594986 387.83 0.776005L387.927 0.285511C389.895 0.674824 391.725 1.44907 393.334 2.52652L393.056 2.942C394.638 4.00076 395.999 5.36246 397.058 6.94392L397.473 6.66576C398.551 8.27514 399.325 10.1046 399.714 12.0726L399.224 12.1696C399.405 13.0846 399.5 14.031 399.5 15V17.4405H400V22.3215H399.5V27.2024H400V32.0834H399.5V36.9643H400V41.8453H399.5V46.7262H400V51.6072H399.5V56.4881H400V61.3691H399.5V66.25H400V71.131H399.5V76.0119H400V80.8929H399.5V85.7738H400V90.6548H399.5V95.5357H400V100.417H399.5V105.298H400V110.179H399.5V115.06H400V119.94H399.5V124.821H400V129.702H399.5V134.583H400V139.464H399.5V144.345H400V149.226H399.5V154.107H400V158.988H399.5V163.869H400V168.75H399.5V173.631H400V178.512H399.5V183.393H400V188.274H399.5V193.155H400V198.036H399.5V202.917H400V207.798H399.5V212.679H400V217.56H399.5V220C399.5 220.969 399.405 221.915 399.224 222.83L399.714 222.927C399.325 224.895 398.551 226.725 397.473 228.334L397.058 228.056C395.999 229.638 394.638 230.999 393.056 232.058L393.334 232.473C391.725 233.551 389.895 234.325 387.927 234.714L387.83 234.224C386.915 234.405 385.969 234.5 385 234.5H382.5V235H377.5V234.5H372.5V235H367.5V234.5H362.5V235H357.5V234.5H352.5V235H347.5V234.5H342.5V235H337.5V234.5H332.5V235H327.5V234.5H322.5V235H317.5V234.5H312.5V235H307.5V234.5H302.5V235H297.5V234.5H292.5V235H287.5V234.5H282.5V235H277.5V234.5H272.5V235H267.5V234.5H262.5V235H257.5V234.5H252.5V235H247.5V234.5H242.5V235H237.5V234.5H232.5V235H227.5V234.5H222.5V235H217.5V234.5H212.5V235H207.5V234.5H202.5V235H197.5V234.5H192.5V235H187.5V234.5H182.5V235H177.5V234.5H172.5V235H167.5V234.5H162.5V235H157.5V234.5H152.5V235H147.5V234.5H142.5V235H137.5V234.5H132.5V235H127.5V234.5H122.5V235H117.5V234.5H112.5V235H107.5V234.5H102.5V235H97.5V234.5H92.5V235H87.5V234.5H82.5V235H77.5V234.5H72.5V235H67.5V234.5H62.5V235H57.5V234.5H52.5V235H47.5V234.5H42.5V235H37.5V234.5H32.5V235H27.5V234.5H22.5V235H17.5V234.5H15C14.031 234.5 13.0846 234.405 12.1696 234.224L12.0726 234.714C10.1047 234.325 8.27515 233.551 6.66577 232.473L6.94393 232.058C5.36247 230.999 4.00077 229.638 2.94201 228.056L2.52652 228.334C1.44907 226.725 0.674825 224.895 0.285511 222.927L0.776005 222.83C0.594986 221.915 0.5 220.969 0.5 220V217.614H0V212.841H0.5V208.068H0V203.295H0.5V198.523H0V193.75H0.5V188.977H0V184.205H0.5V179.432H0V174.659H0.5V169.886H0V165.114H0.5V160.341H0V155.568H0.5V150.795H0V146.023H0.5V141.25H0V136.477H0.5V131.705H0V126.932H0.5V122.159H0V117.386H0.5V115C0.5 114.031 0.594986 113.085 0.776005 112.17L0.285511 112.073C0.674825 110.105 1.44907 108.275 2.52652 106.666L2.942 106.944C4.00077 105.362 5.36246 104.001 6.94393 102.942L6.66577 102.527Z" stroke="#396746" stroke-opacity="0.7" stroke-dasharray="5 5"/>
</svg>
