<svg width="151" height="151" viewBox="0 0 151 151" fill="none" xmlns="http://www.w3.org/2000/svg">
<path d="M21.1698 0.00514637C24.5853 0.00514637 28.0007 0.000373668 31.4161 0.00514637C37.6536 0.0162827 42.2637 4.5949 42.278 10.8217C42.2939 17.7055 42.2939 24.5909 42.278 31.4748C42.2637 37.6586 37.652 42.2691 31.4829 42.2786C24.5996 42.2897 17.7147 42.2881 10.8313 42.2786C4.64955 42.2722 0.0283203 37.6761 0.0124125 31.5034C-0.00508618 24.5925 -0.00349539 17.6817 0.0124125 10.7708C0.0251387 4.63626 4.63841 0.027419 10.7645 0.00832818C14.2324 -0.00280814 17.7019 0.00673728 21.1698 0.00673728V0.00514637ZM21.0839 36.2427C23.599 36.2427 26.114 36.2427 28.629 36.2427C32.8144 36.2427 36.1948 32.9734 36.2298 28.7909C36.2728 23.6809 36.2712 18.5694 36.2298 13.4594C36.198 9.45669 32.9798 6.1333 28.9886 6.07285C23.7469 5.99489 18.5037 5.9933 13.2621 6.07603C9.42509 6.13648 6.13534 9.39147 6.07648 13.181C5.99535 18.4755 5.99535 23.7732 6.07648 29.0677C6.13852 33.01 9.59212 36.2427 13.5373 36.2443C16.0523 36.2443 18.5673 36.2443 21.0824 36.2443L21.0839 36.2427Z" fill="white"/>
<path d="M129.87 42.2812C126.427 42.2812 122.986 42.2876 119.544 42.2812C113.326 42.2685 108.727 37.6676 108.715 31.4313C108.704 24.5729 108.706 17.7145 108.715 10.8577C108.723 4.61661 113.314 0.0157216 119.539 0.00776709C126.423 -0.00177833 133.307 -0.00336923 140.191 0.00776709C146.328 0.0173125 150.957 4.60707 150.979 10.7352C151.003 17.6731 151.002 24.6111 150.979 31.5474C150.96 37.6692 146.326 42.2637 140.194 42.2812C136.751 42.2908 133.311 42.2828 129.868 42.2828L129.87 42.2812ZM129.809 36.2422C132.324 36.2422 134.839 36.2422 137.354 36.2422C141.492 36.2422 144.89 32.9792 144.93 28.8476C144.981 23.7106 144.974 18.5736 144.931 13.4382C144.898 9.47682 141.7 6.14706 137.749 6.07865C132.482 5.98797 127.21 5.98956 121.943 6.07865C118.033 6.14547 114.8 9.47204 114.765 13.3602C114.719 18.5497 114.713 23.7408 114.77 28.9288C114.815 32.9633 118.235 36.2406 122.263 36.2422C124.778 36.2422 127.293 36.2422 129.808 36.2422H129.809Z" fill="white"/>
<path d="M21.0648 150.994C17.6494 150.994 14.234 151.001 10.8186 150.994C4.64318 150.98 0.026721 146.381 0.0124039 140.203C-0.00350394 133.292 -0.00350394 126.381 0.0124039 119.471C0.026721 113.342 4.64795 108.734 10.7772 108.722C17.6876 108.71 24.598 108.71 31.5083 108.722C37.6408 108.734 42.2557 113.331 42.2764 119.471C42.2986 126.408 42.3002 133.346 42.2764 140.283C42.2541 146.366 37.6249 150.972 31.5497 150.994C28.0548 151.007 24.5598 150.996 21.0648 150.996V150.994ZM21.0648 144.955C23.5799 144.955 26.0949 144.955 28.6099 144.955C32.8032 144.955 36.1916 141.695 36.2282 137.523C36.2743 132.386 36.2743 127.248 36.225 122.113C36.1884 118.164 32.9591 114.851 29.006 114.789C23.7644 114.707 18.5212 114.709 13.2795 114.789C9.40758 114.847 6.11943 118.128 6.07011 121.954C6.0033 127.221 5.99534 132.494 6.07488 137.761C6.13374 141.705 9.58257 144.954 13.5182 144.957C16.0332 144.957 18.5482 144.957 21.0633 144.957L21.0648 144.955Z" fill="white"/>
<path d="M99.6893 0.326331C101.158 0.34224 102.362 1.55769 102.357 3.01814C102.352 4.51518 101.111 5.74017 99.6146 5.72267C98.1256 5.70517 96.9166 4.44518 96.9484 2.94337C96.9786 1.48769 98.2131 0.310422 99.6909 0.326331H99.6893Z" fill="white"/>
<path d="M63.4131 6.36621C64.891 6.36462 66.1063 7.55462 66.1222 9.01666C66.1382 10.5137 64.9117 11.761 63.4211 11.7626C61.9289 11.7641 60.7009 10.5232 60.712 9.02461C60.7231 7.56098 61.9353 6.3678 63.4131 6.36621Z" fill="white"/>
<path d="M69.4867 6.36631C70.9582 6.37904 72.1624 7.58813 72.1624 9.05016C72.1624 10.5472 70.9232 11.777 69.4279 11.7627C67.9373 11.7483 66.7251 10.4915 66.7538 8.9913C66.7808 7.53563 68.0121 6.35359 69.4883 6.36631H69.4867Z" fill="white"/>
<path d="M75.4952 11.7626C74.003 11.7626 72.7781 10.5185 72.7908 9.01984C72.8052 7.5578 74.0189 6.36621 75.4968 6.36621C76.9746 6.36621 78.1884 7.5578 78.2011 9.02143C78.2138 10.5185 76.9841 11.7626 75.4952 11.7626Z" fill="white"/>
<path d="M81.5734 11.7627C80.0749 11.7802 78.8357 10.5584 78.8309 9.05821C78.8261 7.59617 80.0288 6.38231 81.4971 6.3664C82.9733 6.3489 84.2078 7.52617 84.2396 8.98185C84.273 10.4821 83.0608 11.7452 81.5734 11.7627Z" fill="white"/>
<path d="M96.9484 8.94418C96.9978 7.49327 98.2497 6.33351 99.7291 6.36692C101.224 6.40032 102.419 7.67941 102.356 9.17645C102.293 10.6321 101.042 11.7967 99.5748 11.7617C98.0906 11.7267 96.8975 10.446 96.9484 8.94259V8.94418Z" fill="white"/>
<path d="M54.0452 15.1037C54.0372 16.5992 52.7916 17.821 51.2947 17.8019C49.836 17.7828 48.6381 16.561 48.6349 15.0942C48.6317 13.6019 49.8757 12.3849 51.3838 12.4055C52.8505 12.4246 54.0515 13.6433 54.0436 15.1037H54.0452Z" fill="white"/>
<path d="M66.1223 15.079C66.127 16.5776 64.8926 17.8122 63.3988 17.8026C61.9385 17.7947 60.7279 16.5856 60.7136 15.122C60.6977 13.6249 61.9274 12.3983 63.437 12.4063C64.9101 12.4142 66.1191 13.617 66.1239 15.079H66.1223Z" fill="white"/>
<path d="M84.2396 15.0973C84.2348 16.5943 82.9924 17.8193 81.4971 17.8018C80.0383 17.7843 78.8357 16.5673 78.8309 15.1004C78.8246 13.6066 80.0654 12.388 81.5734 12.4055C83.0417 12.4214 84.2444 13.6368 84.2412 15.0973H84.2396Z" fill="white"/>
<path d="M99.613 17.8018C98.1241 17.7843 96.9151 16.5227 96.9485 15.0209C96.9803 13.5652 98.2147 12.3895 99.6926 12.4054C101.159 12.4229 102.363 13.6384 102.359 15.0988C102.354 16.5959 101.11 17.8193 99.6146 17.8018H99.613Z" fill="white"/>
<path d="M51.3663 23.8408C49.8693 23.8535 48.6349 22.6253 48.6349 21.1251C48.6349 19.6646 49.8439 18.4556 51.3138 18.4444C52.7916 18.4333 54.0197 19.6137 54.0452 21.0726C54.0722 22.5728 52.8553 23.8296 51.3663 23.8408Z" fill="white"/>
<path d="M63.4196 18.4443C64.8974 18.4443 66.1096 19.6359 66.1223 21.0996C66.135 22.5966 64.9053 23.8407 63.4148 23.8407C61.9226 23.8407 60.6977 22.595 60.712 21.0964C60.7264 19.6343 61.9417 18.4427 63.4196 18.4443Z" fill="white"/>
<path d="M72.1627 21.1283C72.1627 22.6253 70.9235 23.8551 69.4281 23.8408C67.9694 23.828 66.7636 22.6142 66.7524 21.149C66.7429 19.6551 67.9789 18.4317 69.487 18.4444C70.9585 18.4572 72.1627 19.6662 72.1627 21.1283Z" fill="white"/>
<path d="M75.5221 23.8408C74.0252 23.8535 72.7907 22.6237 72.7907 21.1251C72.7907 19.6646 73.9997 18.4556 75.4696 18.4444C76.9475 18.4333 78.1755 19.6137 78.201 21.0726C78.228 22.5728 77.0111 23.8296 75.5221 23.8408Z" fill="white"/>
<path d="M81.5052 23.8408C80.0146 23.8265 78.8025 22.5696 78.8311 21.0678C78.8581 19.6122 80.091 18.4317 81.5657 18.4444C83.0355 18.4572 84.2414 19.6662 84.2398 21.1283C84.2398 22.6253 83.0005 23.8535 81.5036 23.8408H81.5052Z" fill="white"/>
<path d="M90.2799 21.1286C90.2799 22.6257 89.0407 23.8555 87.5453 23.8427C86.085 23.83 84.8808 22.6161 84.8696 21.1509C84.8585 19.6571 86.0945 18.4337 87.6026 18.4464C89.0741 18.4591 90.2783 19.6682 90.2783 21.1286H90.2799Z" fill="white"/>
<path d="M102.357 21.146C102.348 22.6414 101.1 23.8617 99.6035 23.841C98.1463 23.8203 96.9485 22.5969 96.9469 21.1301C96.9469 19.6378 98.1893 18.4224 99.6989 18.4446C101.166 18.4653 102.365 19.6855 102.357 21.146Z" fill="white"/>
<path d="M51.3328 29.8817C49.8406 29.8785 48.6173 28.6328 48.6348 27.1326C48.6507 25.6706 49.8692 24.4822 51.3455 24.4854C52.8233 24.4885 54.0339 25.6817 54.045 27.1453C54.0562 28.6424 52.8249 29.8849 51.3328 29.8817Z" fill="white"/>
<path d="M78.201 27.1453C78.2121 28.6408 76.9792 29.8849 75.4887 29.8817C74.0267 29.8785 72.8114 28.6758 72.7907 27.2122C72.77 25.7119 73.9917 24.4822 75.5014 24.4854C76.9792 24.4885 78.1898 25.6817 78.201 27.1453Z" fill="white"/>
<path d="M90.2798 27.1995C90.2639 28.6934 89.0104 29.9088 87.5135 29.8802C86.0579 29.8531 84.8648 28.6234 84.8696 27.1566C84.8744 25.6643 86.1247 24.4568 87.636 24.4838C89.0995 24.5093 90.2957 25.7391 90.2798 27.1995Z" fill="white"/>
<path d="M96.3188 27.1412C96.3315 28.6382 95.1019 29.8823 93.6113 29.8807C92.1494 29.8807 90.9308 28.678 90.9085 27.216C90.8847 25.7157 92.1064 24.4844 93.6161 24.4844C95.0939 24.4844 96.3061 25.676 96.3188 27.1412Z" fill="white"/>
<path d="M96.9469 27.1158C96.9707 25.6601 98.2004 24.4749 99.6751 24.4844C101.178 24.494 102.394 25.7444 102.357 27.2415C102.322 28.7003 101.091 29.8919 99.6289 29.8808C98.1384 29.8696 96.923 28.616 96.9485 27.1158H96.9469Z" fill="white"/>
<path d="M54.045 39.2314C54.053 40.7285 52.8201 41.9662 51.3264 41.9598C49.866 41.9535 48.6523 40.7476 48.6348 39.2839C48.6173 37.7869 49.8438 36.5571 51.3518 36.5635C52.8265 36.5699 54.0371 37.7678 54.0435 39.2314H54.045Z" fill="white"/>
<path d="M66.1223 39.2155C66.1366 40.7125 64.9101 41.9598 63.4195 41.9598C61.9576 41.9598 60.7375 40.7619 60.712 39.2998C60.6866 37.7996 61.9067 36.5651 63.4148 36.5635C64.8926 36.5635 66.108 37.7519 66.1223 39.2155Z" fill="white"/>
<path d="M78.2013 39.2171C78.2156 40.7141 76.9875 41.9598 75.4969 41.9598C74.035 41.9598 72.8165 40.7587 72.7926 39.2982C72.7687 37.798 73.9889 36.5651 75.4969 36.5635C76.9748 36.5635 78.1885 37.7535 78.2029 39.2171H78.2013Z" fill="white"/>
<path d="M87.5756 36.5635C89.0534 36.5635 90.2672 37.7551 90.2799 39.2187C90.2927 40.7157 89.0646 41.9614 87.574 41.9598C86.0818 41.9598 84.8569 40.7157 84.8697 39.2171C84.884 37.7551 86.0978 36.5635 87.5756 36.5635Z" fill="white"/>
<path d="M99.6766 41.9599C98.1796 41.971 96.9452 40.7413 96.9484 39.2426C96.95 37.7822 98.1574 36.5747 99.6288 36.5636C101.107 36.5524 102.333 37.7345 102.359 39.1933C102.384 40.6919 101.167 41.9488 99.6782 41.9599H99.6766Z" fill="white"/>
<path d="M63.4433 48.0009C61.9464 48.0136 60.7119 46.7839 60.7119 45.2852C60.7119 43.8248 61.9209 42.6157 63.3908 42.6046C64.8686 42.5934 66.0967 43.7739 66.1222 45.2327C66.1492 46.733 64.9323 47.9898 63.4433 48.0009Z" fill="white"/>
<path d="M93.6064 48.0008C92.1142 47.9977 90.8909 46.752 90.9084 45.2518C90.9243 43.7897 92.1413 42.6013 93.6191 42.6045C95.0969 42.6077 96.3075 43.8009 96.3186 45.2645C96.3298 46.7615 95.0985 48.004 93.6064 48.0008Z" fill="white"/>
<path d="M5.7315 51.294C5.7474 52.791 4.51932 54.0383 3.02875 54.0399C1.56682 54.0399 0.34669 52.8419 0.321238 51.3799C0.295785 49.8797 1.51592 48.6451 3.02239 48.6436C4.50023 48.642 5.71559 49.832 5.72991 51.294H5.7315Z" fill="white"/>
<path d="M11.7716 51.294C11.7876 52.791 10.5595 54.0383 9.0689 54.0399C7.60697 54.0399 6.38684 52.8419 6.36138 51.3799C6.33593 49.8797 7.55606 48.6451 9.06254 48.6436C10.5404 48.642 11.7557 49.832 11.7701 51.294H11.7716Z" fill="white"/>
<path d="M17.8103 51.294C17.8262 52.791 16.5981 54.0383 15.1076 54.0399C13.6456 54.0399 12.4255 52.8419 12.4 51.3799C12.3746 49.8797 13.5947 48.6451 15.1012 48.6436C16.579 48.642 17.7944 49.832 17.8087 51.294H17.8103Z" fill="white"/>
<path d="M23.8489 51.2984C23.8616 52.7954 22.632 54.0395 21.1414 54.0379C19.6795 54.0379 18.4609 52.8352 18.4387 51.3732C18.4148 49.873 19.6365 48.6416 21.1462 48.6416C22.624 48.6416 23.8362 49.8332 23.8489 51.2984Z" fill="white"/>
<path d="M39.2378 54.04C37.7473 54.0288 36.5319 52.7752 36.5574 51.2734C36.5812 49.8177 37.8109 48.6325 39.2856 48.6436C40.757 48.6532 41.9644 49.8591 41.9676 51.3211C41.9692 52.8182 40.7332 54.0511 39.2378 54.04Z" fill="white"/>
<path d="M51.3422 48.6436C52.8201 48.6436 54.0323 49.8351 54.045 51.2988C54.0577 52.7958 52.828 54.0399 51.3375 54.0399C49.8453 54.0399 48.6204 52.7942 48.6347 51.2956C48.649 49.8335 49.8644 48.642 51.3422 48.6436Z" fill="white"/>
<path d="M66.1223 51.294C66.1382 52.791 64.9117 54.0383 63.4211 54.0399C61.9592 54.0415 60.7375 52.8419 60.712 51.3815C60.6866 49.8813 61.9051 48.6451 63.4132 48.6436C64.891 48.642 66.1064 49.832 66.1223 51.294Z" fill="white"/>
<path d="M90.2802 51.294C90.2961 52.791 89.068 54.0383 87.5775 54.0399C86.1155 54.0399 84.8954 52.8419 84.87 51.3799C84.8445 49.8797 86.0646 48.6451 87.5711 48.6436C89.0489 48.642 90.2643 49.832 90.2786 51.294H90.2802Z" fill="white"/>
<path d="M108.396 51.3314C108.393 52.8284 107.152 54.055 105.655 54.0391C104.196 54.0232 102.994 52.8077 102.986 51.3409C102.978 49.847 104.218 48.6268 105.725 48.6427C107.193 48.6571 108.397 49.8709 108.394 51.3314H108.396Z" fill="white"/>
<path d="M123.771 48.6428C125.247 48.6253 126.481 49.8025 126.513 51.2582C126.547 52.7584 125.334 54.0216 123.847 54.0391C122.349 54.0566 121.109 52.8348 121.105 51.3362C121.1 49.8741 122.302 48.6603 123.771 48.6428Z" fill="white"/>
<path d="M132.554 51.3474C132.542 52.8429 131.294 54.0615 129.798 54.0392C128.341 54.0169 127.145 52.7919 127.145 51.3251C127.145 49.8329 128.391 48.6206 129.9 48.6429C131.365 48.6652 132.565 49.887 132.555 51.3474H132.554Z" fill="white"/>
<path d="M138.592 51.3635C138.573 52.8574 137.318 54.0696 135.821 54.0394C134.367 54.0108 133.175 52.7778 133.182 51.311C133.19 49.8188 134.44 48.6144 135.953 48.6431C137.417 48.6717 138.61 49.9015 138.592 51.3635Z" fill="white"/>
<path d="M147.962 48.6436C149.44 48.642 150.655 49.832 150.671 51.294C150.687 52.791 149.46 54.0383 147.97 54.0399C146.478 54.0415 145.25 52.8006 145.261 51.302C145.272 49.8383 146.484 48.6451 147.962 48.6436Z" fill="white"/>
<path d="M2.96175 60.0785C1.47595 60.0483 0.278094 58.774 0.324226 57.2706C0.368768 55.8197 1.61594 54.6535 3.09378 54.6822C4.5573 54.7108 5.75039 55.9406 5.73289 57.401C5.7154 58.8949 4.45868 60.1071 2.96175 60.0785Z" fill="white"/>
<path d="M11.7716 57.3554C11.7764 58.854 10.5419 60.0885 9.04819 60.079C7.58785 60.071 6.37726 58.862 6.36295 57.3983C6.34704 55.9013 7.57671 54.6747 9.08637 54.6827C10.5594 54.6906 11.7684 55.8933 11.7732 57.3554H11.7716Z" fill="white"/>
<path d="M29.889 57.3782C29.8827 58.8752 28.6403 60.0986 27.1434 60.0811C25.6846 60.0636 24.4836 58.845 24.4788 57.3782C24.474 55.8859 25.7148 54.6673 27.2229 54.6848C28.6896 54.7023 29.8938 55.9177 29.8875 57.3782H29.889Z" fill="white"/>
<path d="M33.2172 60.079C31.725 60.0758 30.5017 58.8301 30.5176 57.3315C30.5335 55.8694 31.7505 54.681 33.2283 54.6826C34.7061 54.6842 35.9167 55.8774 35.9279 57.3426C35.939 58.8396 34.7077 60.0821 33.2172 60.079Z" fill="white"/>
<path d="M45.3341 60.0791C43.8356 60.095 42.5979 58.87 42.5948 57.3714C42.5916 55.9093 43.7958 54.6987 45.2657 54.6827C46.7419 54.6684 47.9748 55.8473 48.005 57.303C48.0352 58.8032 46.8231 60.0648 45.3341 60.0791Z" fill="white"/>
<path d="M69.4565 54.6826C70.9344 54.6826 72.1481 55.8726 72.1624 57.3362C72.1768 58.8333 70.9487 60.079 69.4581 60.079C67.966 60.079 66.7395 58.8365 66.7522 57.3378C66.7649 55.8758 67.9787 54.6826 69.4565 54.6826Z" fill="white"/>
<path d="M81.5146 60.079C80.0241 60.0695 78.8071 58.8174 78.8294 57.3172C78.8517 55.8599 80.0782 54.6747 81.5544 54.6827C83.0275 54.6906 84.2349 55.8933 84.2397 57.357C84.2444 58.8556 83.01 60.0885 81.5146 60.079Z" fill="white"/>
<path d="M102.357 57.3426C102.369 58.8381 101.136 60.0821 99.6451 60.079C98.1832 60.0758 96.9678 58.8731 96.9471 57.4094C96.9264 55.9092 98.1482 54.6794 99.6578 54.6826C101.136 54.6858 102.346 55.879 102.357 57.3426Z" fill="white"/>
<path d="M105.723 60.0791C104.226 60.0934 102.989 58.8684 102.987 57.3698C102.987 55.9093 104.19 54.6971 105.66 54.6827C107.136 54.6684 108.367 55.8473 108.397 57.3046C108.428 58.8048 107.214 60.0648 105.725 60.0791H105.723Z" fill="white"/>
<path d="M120.475 57.3362C120.489 58.8333 119.261 60.079 117.77 60.079C116.308 60.079 115.09 58.8778 115.066 57.4174C115.042 55.9172 116.262 54.6842 117.77 54.6826C119.248 54.6826 120.462 55.8726 120.476 57.3362H120.475Z" fill="white"/>
<path d="M141.92 60.079C140.428 60.0758 139.205 58.8317 139.221 57.3315C139.237 55.8694 140.453 54.681 141.931 54.6826C143.409 54.6842 144.62 55.8774 144.631 57.3426C144.642 58.8396 143.411 60.0821 141.92 60.079Z" fill="white"/>
<path d="M5.7314 63.3791C5.74413 64.8761 4.51286 66.1202 3.0223 66.117C1.56037 66.1155 0.343417 64.9127 0.321146 63.4507C0.298875 61.9505 1.5206 60.7191 3.02866 60.7207C4.5065 60.7207 5.71868 61.9139 5.72981 63.3791H5.7314Z" fill="white"/>
<path d="M29.8888 63.3757C29.9031 64.8727 28.675 66.1184 27.1845 66.12C25.7225 66.12 24.5024 64.9204 24.4786 63.4584C24.4531 61.9598 25.6748 60.7236 27.1813 60.7236C28.6591 60.7236 29.8745 61.9136 29.8872 63.3757H29.8888Z" fill="white"/>
<path d="M35.9278 63.4047C35.9278 64.9017 34.6885 66.1315 33.1932 66.1171C31.7344 66.1044 30.5286 64.8906 30.5175 63.4253C30.508 61.9315 31.744 60.7081 33.2521 60.7208C34.7235 60.7335 35.9278 61.9426 35.9278 63.4047Z" fill="white"/>
<path d="M39.2716 66.1171C37.7779 66.1218 36.5482 64.8841 36.5561 63.3855C36.5641 61.9218 37.7747 60.7255 39.2509 60.7207C40.7288 60.7159 41.9473 61.9028 41.9664 63.3648C41.9855 64.8618 40.7606 66.1123 39.2716 66.1171Z" fill="white"/>
<path d="M48.005 63.4269C47.9939 64.9223 46.7467 66.1425 45.2498 66.1203C43.7926 66.098 42.5948 64.8746 42.5948 63.4078C42.5948 61.9155 43.8387 60.7017 45.35 60.7239C46.8151 60.7446 48.0161 61.9664 48.005 63.4269Z" fill="white"/>
<path d="M54.0451 63.3743C54.0594 64.8714 52.8314 66.117 51.3408 66.117C49.8789 66.117 48.6603 64.9159 48.6365 63.4555C48.6126 61.9552 49.8327 60.7223 51.3408 60.7207C52.8186 60.7207 54.0324 61.9107 54.0467 63.3743H54.0451Z" fill="white"/>
<path d="M60.0839 63.4047C60.0839 64.9017 58.8447 66.1315 57.3493 66.1171C55.8906 66.1044 54.6848 64.8906 54.6736 63.4253C54.6641 61.9315 55.9001 60.7081 57.4082 60.7208C58.8797 60.7335 60.0839 61.9426 60.0839 63.4047Z" fill="white"/>
<path d="M66.1224 63.4079C66.1208 64.9049 64.88 66.1331 63.3847 66.1172C61.9259 66.1029 60.7217 64.8874 60.7138 63.4222C60.7058 61.9283 61.9434 60.7065 63.4515 60.7208C64.9214 60.7351 66.1256 61.9458 66.124 63.4079H66.1224Z" fill="white"/>
<path d="M69.4484 66.1171C67.9563 66.1139 66.7345 64.8666 66.7504 63.368C66.7679 61.9075 67.9849 60.7175 69.4627 60.7207C70.939 60.7239 72.1512 61.9187 72.1607 63.3823C72.1702 64.8777 70.939 66.1202 69.4484 66.1171Z" fill="white"/>
<path d="M75.4302 66.1176C73.9444 66.0873 72.7465 64.8114 72.7927 63.3096C72.8372 61.8587 74.0844 60.6926 75.5622 60.7212C77.0257 60.7499 78.2188 61.9796 78.2013 63.4401C78.1838 64.9339 76.9271 66.1462 75.4302 66.1176Z" fill="white"/>
<path d="M87.5837 60.7207C89.0599 60.7255 90.2705 61.9203 90.28 63.3839C90.2896 64.8809 89.0567 66.1218 87.5646 66.1171C86.0724 66.1123 84.8507 64.865 84.8698 63.3648C84.8873 61.9043 86.1074 60.7159 87.5837 60.7207Z" fill="white"/>
<path d="M117.804 60.7208C119.274 60.7352 120.478 61.9474 120.475 63.4079C120.473 64.9049 119.232 66.1315 117.735 66.1172C116.245 66.1013 115.034 64.8429 115.064 63.341C115.093 61.8854 116.326 60.7065 117.802 60.7208H117.804Z" fill="white"/>
<path d="M3.01268 72.1591C1.52052 72.1527 0.301978 70.9038 0.321068 69.4036C0.340157 67.9448 1.56188 66.7564 3.03972 66.7627C4.51438 66.7691 5.72496 67.967 5.73133 69.4307C5.73928 70.9277 4.50642 72.1654 3.01268 72.1591Z" fill="white"/>
<path d="M9.07506 66.7627C10.5513 66.7659 11.7619 67.9622 11.7714 69.4259C11.781 70.9213 10.5481 72.1638 9.05756 72.159C7.5654 72.1543 6.34368 70.9086 6.36118 69.4084C6.37868 67.9479 7.59722 66.7595 9.07506 66.7627Z" fill="white"/>
<path d="M27.1943 72.1591C25.7005 72.1638 24.4709 70.9261 24.4788 69.4275C24.4868 67.9638 25.6974 66.7675 27.1736 66.7627C28.6514 66.7579 29.87 67.9447 29.8891 69.4068C29.9082 70.9038 28.6833 72.1543 27.1943 72.1591Z" fill="white"/>
<path d="M57.4032 72.1591C55.9063 72.1703 54.6719 70.9405 54.6751 69.4419C54.6766 67.9798 55.884 66.7739 57.3555 66.7628C58.8334 66.7516 60.0599 67.9337 60.0853 69.3925C60.1108 70.8912 58.8938 72.148 57.4048 72.1591H57.4032Z" fill="white"/>
<path d="M66.1224 69.4817C66.1033 70.9756 64.8482 72.1879 63.3513 72.1576C61.8973 72.1274 60.7058 70.8961 60.7138 69.4277C60.7217 67.9354 61.9721 66.7311 63.4849 66.7613C64.9484 66.7899 66.1415 68.0197 66.124 69.4817H66.1224Z" fill="white"/>
<path d="M72.1627 69.4559C72.1563 70.953 70.9139 72.1764 69.417 72.1573C67.9582 72.1398 66.7572 70.9211 66.7524 69.4543C66.7476 67.9621 67.99 66.7434 69.4981 66.7609C70.9648 66.7784 72.169 67.9955 72.1627 69.4559Z" fill="white"/>
<path d="M75.5254 66.7628C76.9969 66.7755 78.2011 67.9846 78.2011 69.4466C78.2011 70.9437 76.9619 72.1735 75.4666 72.1591C73.976 72.1448 72.7638 70.888 72.7924 69.3878C72.8195 67.9321 74.0508 66.7501 75.527 66.7628H75.5254Z" fill="white"/>
<path d="M81.4974 72.1592C80.0084 72.1417 78.7994 70.8817 78.8312 69.3783C78.863 67.9227 80.0959 66.7454 81.5737 66.7629C83.0404 66.7788 84.2447 67.9942 84.2399 69.4547C84.2351 70.9517 82.9927 72.1767 81.4958 72.1592H81.4974Z" fill="white"/>
<path d="M99.6387 72.1591C98.1465 72.1527 96.928 70.9038 96.9471 69.4036C96.9662 67.9448 98.1879 66.7564 99.6657 66.7627C101.14 66.7691 102.351 67.967 102.357 69.4307C102.365 70.9277 101.132 72.1654 99.6387 72.1591Z" fill="white"/>
<path d="M105.677 72.1591C104.185 72.1527 102.967 70.9038 102.986 69.4036C103.005 67.9448 104.227 66.7564 105.704 66.7627C107.179 66.7691 108.39 67.967 108.396 69.4307C108.404 70.9277 107.171 72.1654 105.677 72.1591Z" fill="white"/>
<path d="M111.718 72.1591C110.225 72.1527 109.007 70.9038 109.026 69.4036C109.045 67.9448 110.267 66.7564 111.745 66.7627C113.219 66.7691 114.43 67.967 114.436 69.4307C114.444 70.9277 113.211 72.1654 111.718 72.1591Z" fill="white"/>
<path d="M129.835 72.1591C128.343 72.1527 127.124 70.9038 127.143 69.4036C127.162 67.9448 128.384 66.7564 129.862 66.7627C131.337 66.7691 132.547 67.967 132.554 69.4307C132.562 70.9277 131.329 72.1654 129.835 72.1591Z" fill="white"/>
<path d="M135.899 66.7627C137.373 66.7675 138.584 67.9654 138.592 69.4291C138.6 70.9261 137.367 72.1654 135.875 72.1591C134.383 72.1527 133.163 70.9054 133.182 69.4052C133.201 67.9448 134.423 66.7579 135.899 66.7627Z" fill="white"/>
<path d="M17.8103 75.4896C17.8071 76.9866 16.5663 78.2132 15.0693 78.1973C13.6106 78.1814 12.408 76.9659 12.4 75.4991C12.392 74.0053 13.6329 72.785 15.1393 72.8009C16.6076 72.8153 17.8119 74.0291 17.8087 75.4896H17.8103Z" fill="white"/>
<path d="M21.1541 78.1971C19.6604 78.2019 18.4307 76.9642 18.4387 75.4656C18.4466 74.0019 19.6572 72.8056 21.1334 72.8008C22.6113 72.796 23.8298 73.9828 23.8489 75.4449C23.868 76.9419 22.6447 78.1924 21.1541 78.1971Z" fill="white"/>
<path d="M29.8874 75.539C29.8603 77.0329 28.5973 78.2356 27.0987 78.1974C25.6463 78.1592 24.4628 76.9183 24.4771 75.4515C24.493 73.9592 25.7497 72.7645 27.2658 72.8026C28.7293 72.8392 29.9128 74.0754 29.8874 75.539Z" fill="white"/>
<path d="M39.2378 78.1972C37.7473 78.1861 36.5319 76.9324 36.5574 75.4306C36.5812 73.9749 37.8109 72.7897 39.2856 72.8009C40.757 72.8104 41.9644 74.0163 41.9676 75.4783C41.9692 76.9754 40.7332 78.2083 39.2394 78.1972H39.2378Z" fill="white"/>
<path d="M45.2765 78.1972C43.786 78.1861 42.5706 76.9324 42.596 75.4306C42.6199 73.9749 43.8496 72.7897 45.3242 72.8009C46.7957 72.8104 48.0031 74.0163 48.0063 75.4783C48.0079 76.9754 46.7719 78.2083 45.2781 78.1972H45.2765Z" fill="white"/>
<path d="M51.4076 72.8013C52.8712 72.8299 54.0643 74.0613 54.0452 75.5233C54.0261 77.0172 52.7694 78.2295 51.2724 78.1976C49.7866 78.1674 48.5904 76.8915 48.6365 75.3881C48.681 73.9388 49.9314 72.7727 51.4076 72.8013Z" fill="white"/>
<path d="M57.3809 72.8008C58.8587 72.8008 60.0709 73.9924 60.0836 75.456C60.0964 76.953 58.8667 78.1971 57.3761 78.1971C55.884 78.1971 54.6591 76.9514 54.6734 75.4528C54.6877 73.9908 55.9031 72.7992 57.3809 72.8008Z" fill="white"/>
<path d="M63.3815 78.1973C61.8925 78.1813 60.6819 76.9213 60.7137 75.4195C60.744 73.9639 61.9768 72.7866 63.4547 72.8009C64.923 72.8168 66.1272 74.0307 66.124 75.4911C66.1208 76.9882 64.8784 78.2132 63.3831 78.1973H63.3815Z" fill="white"/>
<path d="M69.4534 78.1971C67.9612 78.1971 66.7363 76.9514 66.7522 75.4512C66.7666 73.9892 67.9819 72.7992 69.4598 72.8008C70.9376 72.8008 72.1498 73.994 72.1625 75.4576C72.1752 76.9546 70.944 78.1987 69.455 78.1971H69.4534Z" fill="white"/>
<path d="M78.2011 75.4516C78.217 76.9486 76.9905 78.1959 75.4999 78.1991C74.038 78.2007 72.8163 77.0027 72.7908 75.5407C72.7654 74.0405 73.9839 72.8043 75.4904 72.8027C76.9682 72.8011 78.1836 73.9911 78.1995 75.4516H78.2011Z" fill="white"/>
<path d="M81.575 78.1973C80.0765 78.2148 78.8357 76.9946 78.8309 75.4944C78.8261 74.0323 80.0272 72.8185 81.4955 72.801C82.9717 72.7835 84.2078 73.9592 84.2396 75.4148C84.273 76.9151 83.0624 78.1798 81.575 78.1973Z" fill="white"/>
<path d="M114.436 75.496C114.43 76.9914 113.186 78.2164 111.689 78.1973C110.23 78.1783 109.03 76.9596 109.026 75.4928C109.021 74.0005 110.263 72.7819 111.771 72.801C113.238 72.8185 114.441 74.0355 114.434 75.496H114.436Z" fill="white"/>
<path d="M117.738 72.8009C119.215 72.7882 120.446 73.967 120.473 75.4243C120.502 76.9245 119.288 78.1829 117.799 78.1972C116.302 78.2115 115.064 76.985 115.064 75.4847C115.064 74.0243 116.27 72.8136 117.738 72.8009Z" fill="white"/>
<path d="M126.513 75.5001C126.505 76.9956 125.26 78.2174 123.763 78.1983C122.306 78.1776 121.106 76.9574 121.103 75.4906C121.1 73.9983 122.344 72.7829 123.853 72.802C125.32 72.8211 126.521 74.0397 126.513 75.5001Z" fill="white"/>
<path d="M138.592 75.4992C138.584 76.9946 137.339 78.218 135.843 78.1973C134.384 78.1783 133.185 76.958 133.182 75.4912C133.179 73.999 134.421 72.7819 135.931 72.801C137.397 72.8201 138.6 74.0371 138.592 75.4992Z" fill="white"/>
<path d="M144.631 75.4879C144.629 76.985 143.388 78.2132 141.893 78.1972C140.434 78.1829 139.23 76.9675 139.222 75.5023C139.214 74.0084 140.452 72.7866 141.96 72.8009C143.43 72.8152 144.634 74.0259 144.632 75.4879H144.631Z" fill="white"/>
<path d="M150.671 75.4783C150.673 76.9754 149.437 78.2083 147.941 78.1972C146.481 78.1861 145.273 76.9754 145.261 75.5102C145.248 74.0147 146.481 72.7897 147.989 72.8009C149.46 72.812 150.668 74.0179 150.669 75.4783H150.671Z" fill="white"/>
<path d="M9.09754 84.2363C7.60061 84.2506 6.36298 83.0256 6.3598 81.527C6.3598 80.0666 7.56244 78.8543 9.03232 78.84C10.5086 78.8257 11.7398 80.0045 11.7701 81.4618C11.8003 82.962 10.5865 84.222 9.09754 84.2363Z" fill="white"/>
<path d="M29.8889 81.4967C29.9017 82.9921 28.6704 84.2378 27.1814 84.2362C25.7195 84.2362 24.5025 83.0335 24.4803 81.5698C24.458 80.0696 25.6797 78.8383 27.1878 78.8398C28.6656 78.8398 29.8778 80.033 29.8905 81.4967H29.8889Z" fill="white"/>
<path d="M45.2609 84.2363C43.7719 84.2188 42.5629 82.9573 42.5963 81.4554C42.6281 79.9998 43.8626 78.8241 45.3404 78.84C46.8071 78.8575 48.0114 80.073 48.0066 81.5334C48.0018 83.0304 46.7578 84.2538 45.2625 84.2363H45.2609Z" fill="white"/>
<path d="M51.3808 78.8401C52.8475 78.8576 54.0501 80.0746 54.0437 81.5351C54.0374 83.0305 52.7934 84.2555 51.2965 84.2364C49.8075 84.2173 48.6001 82.9557 48.6335 81.4523C48.6669 79.9967 49.9013 78.821 51.3792 78.8401H51.3808Z" fill="white"/>
<path d="M57.4161 84.2364C55.9176 84.2539 54.6784 83.0321 54.6736 81.5318C54.6688 80.0698 55.8714 78.8559 57.3397 78.84C58.816 78.8225 60.0504 79.9998 60.0823 81.4555C60.1157 82.9557 58.9035 84.2189 57.4161 84.2364Z" fill="white"/>
<path d="M78.201 81.545C78.1899 83.0405 76.9427 84.2607 75.4458 84.2384C73.9886 84.2162 72.7907 82.9928 72.7907 81.526C72.7907 80.0337 74.0347 78.8198 75.546 78.8421C77.0111 78.8628 78.2121 80.0846 78.201 81.545Z" fill="white"/>
<path d="M84.2397 81.4932C84.2557 82.9903 83.0276 84.2375 81.537 84.2391C80.0751 84.2391 78.8549 83.0412 78.8295 81.5791C78.804 80.0789 80.0242 78.8444 81.5306 78.8428C83.0085 78.8412 84.2238 80.0312 84.2382 81.4932H84.2397Z" fill="white"/>
<path d="M90.2799 81.5142C90.283 83.0128 89.0486 84.2458 87.5548 84.2362C86.0945 84.2267 84.8855 83.0176 84.8712 81.554C84.8569 80.0569 86.0865 78.8319 87.5962 78.8399C89.0693 78.8494 90.2767 80.0521 90.2814 81.5142H90.2799Z" fill="white"/>
<path d="M96.3186 81.579C96.2915 83.0729 95.0285 84.2756 93.53 84.2374C92.0776 84.1993 90.894 82.9584 90.9083 81.4915C90.9242 79.9993 92.1826 78.8045 93.697 78.8427C95.1605 78.8793 96.344 80.1154 96.3186 81.579Z" fill="white"/>
<path d="M99.6768 78.8399C101.148 78.8511 102.356 80.057 102.357 81.519C102.359 83.016 101.123 84.2474 99.6275 84.2363C98.1369 84.2251 96.9215 82.9715 96.947 81.4697C96.9709 80.014 98.2021 78.8288 99.6768 78.8399Z" fill="white"/>
<path d="M108.396 81.5412C108.388 83.0366 107.142 84.2584 105.645 84.2393C104.187 84.2187 102.989 82.9984 102.986 81.5316C102.982 80.0394 104.226 78.8239 105.734 78.843C107.201 78.8621 108.402 80.0807 108.394 81.5412H108.396Z" fill="white"/>
<path d="M111.693 84.2363C110.205 84.2204 108.994 82.9604 109.026 81.457C109.056 80.0014 110.29 78.8241 111.767 78.84C113.235 78.8559 114.439 80.0698 114.434 81.5302C114.431 83.0273 113.189 84.2522 111.692 84.2363H111.693Z" fill="white"/>
<path d="M117.804 84.2363C116.305 84.2522 115.068 83.0272 115.064 81.5286C115.061 80.0666 116.265 78.8559 117.735 78.84C119.212 78.8257 120.444 80.0045 120.475 81.4602C120.505 82.9604 119.293 84.222 117.804 84.2363Z" fill="white"/>
<path d="M123.772 84.2363C122.283 84.2204 121.073 82.9604 121.105 81.4586C121.135 80.0029 122.368 78.8257 123.845 78.84C125.314 78.8559 126.518 80.0697 126.515 81.5302C126.512 83.0272 125.269 84.2522 123.774 84.2363H123.772Z" fill="white"/>
<path d="M150.671 81.535C150.665 83.0321 149.422 84.2555 147.926 84.2364C146.467 84.2189 145.266 83.0002 145.261 81.5334C145.256 80.0412 146.499 78.8225 148.007 78.84C149.473 78.8575 150.678 80.0746 150.671 81.535Z" fill="white"/>
<path d="M9.05282 90.2772C7.56067 90.2709 6.34212 89.022 6.36121 87.5218C6.3803 86.0629 7.60203 84.8745 9.07986 84.8809C10.5545 84.8872 11.7651 86.0852 11.7715 87.5488C11.7794 89.0459 10.5466 90.2836 9.05282 90.2772Z" fill="white"/>
<path d="M15.0978 90.2772C13.6056 90.274 12.3839 89.0268 12.3998 87.5281C12.4173 86.0677 13.6343 84.8777 15.1121 84.8809C16.5883 84.884 17.8005 86.0788 17.8101 87.5425C17.8196 89.0379 16.5883 90.2804 15.0978 90.2772Z" fill="white"/>
<path d="M23.8488 87.5377C23.8615 89.0331 22.6302 90.2788 21.1413 90.2772C19.6793 90.2772 18.4624 89.0745 18.4401 87.6109C18.4178 86.1106 19.6396 84.8793 21.1476 84.8809C22.6255 84.8809 23.8377 86.074 23.8504 87.5377H23.8488Z" fill="white"/>
<path d="M33.1836 84.8811C34.6599 84.8636 35.8943 86.0408 35.9261 87.4965C35.9595 88.9967 34.7474 90.2599 33.26 90.2774C31.7614 90.2949 30.5222 89.0731 30.5175 87.5729C30.5127 86.1108 31.7153 84.897 33.1836 84.8811Z" fill="white"/>
<path d="M39.2522 84.8809C40.7301 84.8761 41.9486 86.0645 41.9661 87.525C41.9852 89.022 40.7603 90.2724 39.2697 90.2772C37.776 90.282 36.5463 89.0427 36.5558 87.5441C36.5654 86.0804 37.7744 84.8841 39.2506 84.8809H39.2522Z" fill="white"/>
<path d="M57.4049 90.2773C55.908 90.29 54.6736 89.0618 54.6736 87.5616C54.6736 86.1012 55.8826 84.8921 57.3524 84.8809C58.8303 84.8698 60.0584 86.0503 60.0838 87.5091C60.1109 89.0093 58.8939 90.2661 57.4049 90.2773Z" fill="white"/>
<path d="M75.5206 84.8809C76.9921 84.8921 78.1995 86.098 78.2011 87.56C78.2027 89.057 76.965 90.2884 75.4713 90.2773C73.9807 90.2661 72.7654 89.0109 72.7908 87.5107C72.8163 86.055 74.046 84.8714 75.5206 84.8809Z" fill="white"/>
<path d="M90.2798 87.5664C90.2798 89.065 89.039 90.2916 87.5436 90.2773C86.0849 90.263 84.8791 89.0491 84.8711 87.5839C84.8616 86.0901 86.0992 84.8682 87.6073 84.881C89.0771 84.8937 90.283 86.1044 90.2814 87.5664H90.2798Z" fill="white"/>
<path d="M99.6497 84.8809C101.128 84.8809 102.343 86.0693 102.357 87.5313C102.373 89.0283 101.145 90.2756 99.6545 90.2772C98.1623 90.2772 96.9342 89.0363 96.947 87.5377C96.9597 86.074 98.1719 84.8825 99.6497 84.8809Z" fill="white"/>
<path d="M105.668 84.8809C107.145 84.8698 108.372 86.0518 108.397 87.5107C108.423 89.0093 107.206 90.2661 105.717 90.2773C104.22 90.2884 102.985 89.0587 102.987 87.56C102.989 86.098 104.196 84.8921 105.668 84.8809Z" fill="white"/>
<path d="M114.436 87.6442C114.396 89.1349 113.122 90.3265 111.62 90.2756C110.17 90.2263 108.999 88.9742 109.026 87.5043C109.055 86.0168 110.326 84.8315 111.84 84.8824C113.302 84.9302 114.474 86.179 114.435 87.6442H114.436Z" fill="white"/>
<path d="M126.513 87.5393C126.524 89.0363 125.295 90.2788 123.804 90.2772C122.342 90.2756 121.125 89.0729 121.105 87.6093C121.082 86.109 122.304 84.8777 123.814 84.8809C125.291 84.8825 126.504 86.0756 126.515 87.5393H126.513Z" fill="white"/>
<path d="M135.927 84.8811C137.394 84.8986 138.597 86.1156 138.59 87.5761C138.584 89.0715 137.34 90.2965 135.843 90.2774C134.354 90.2583 133.147 88.9968 133.18 87.4934C133.214 86.0377 134.448 84.862 135.926 84.8811H135.927Z" fill="white"/>
<path d="M144.631 87.5409C144.642 89.0363 143.409 90.2804 141.918 90.2772C140.456 90.274 139.241 89.0713 139.22 87.6077C139.2 86.109 140.423 84.8777 141.931 84.8809C143.409 84.884 144.62 86.0772 144.629 87.5409H144.631Z" fill="white"/>
<path d="M3.01269 90.919C4.49053 90.9126 5.71225 92.0962 5.73293 93.5583C5.75361 95.0569 4.53189 96.3089 3.04291 96.3153C1.54917 96.3217 0.316308 95.0871 0.322672 93.5885C0.329035 92.1265 1.53803 90.9269 3.01269 90.919Z" fill="white"/>
<path d="M21.1811 90.9191C22.6494 90.935 23.8536 92.1505 23.8488 93.6109C23.844 95.1079 22.6032 96.3329 21.1063 96.3154C19.6173 96.2979 18.4083 95.038 18.4401 93.5361C18.4704 92.0805 19.7048 90.9032 21.1827 90.9191H21.1811Z" fill="white"/>
<path d="M54.0452 93.6093C54.042 95.1063 52.8012 96.3329 51.3043 96.3154C49.8455 96.2995 48.6429 95.0825 48.6349 93.6173C48.6286 92.1234 49.8678 90.9032 51.3758 90.9191C52.8441 90.935 54.0484 92.1489 54.0452 93.6093Z" fill="white"/>
<path d="M63.3877 96.3154C61.8972 96.3011 60.685 95.0443 60.7136 93.5424C60.7407 92.0868 61.9735 90.9063 63.4482 90.919C64.9181 90.9318 66.1239 92.1409 66.1223 93.6029C66.1223 95.0999 64.8831 96.3281 63.3861 96.3154H63.3877Z" fill="white"/>
<path d="M93.6255 90.919C95.1017 90.9237 96.3107 92.1217 96.3187 93.5853C96.3266 95.0824 95.0938 96.3217 93.6016 96.3153C92.1095 96.3089 90.8893 95.0617 90.9084 93.5614C90.9275 92.101 92.1492 90.9142 93.6255 90.919Z" fill="white"/>
<path d="M99.6146 96.3154C98.1256 96.2979 96.9166 95.038 96.9484 93.5361C96.9786 92.0805 98.2131 90.9032 99.6909 90.9191C101.159 90.935 102.363 92.1505 102.359 93.6109C102.354 95.1079 101.113 96.3329 99.6161 96.3154H99.6146Z" fill="white"/>
<path d="M117.762 96.3153C116.27 96.3121 115.049 95.0648 115.065 93.5662C115.082 92.1058 116.299 90.9158 117.777 90.919C119.253 90.9221 120.465 92.1169 120.475 93.5805C120.484 95.076 119.253 96.3185 117.762 96.3153Z" fill="white"/>
<path d="M132.553 93.6125C132.549 95.1096 131.305 96.333 129.808 96.3155C128.349 96.298 127.148 95.0793 127.143 93.6125C127.138 92.1203 128.379 90.9016 129.887 90.9191C131.354 90.9366 132.558 92.1521 132.553 93.6125Z" fill="white"/>
<path d="M150.671 93.571C150.685 95.068 149.459 96.3153 147.968 96.3153C146.506 96.3153 145.286 95.1173 145.26 93.6553C145.235 92.1551 146.455 90.9205 147.963 90.9189C149.441 90.9189 150.656 92.1073 150.671 93.571Z" fill="white"/>
<path d="M21.143 102.355C19.6509 102.355 18.426 101.111 18.4387 99.6126C18.453 98.1506 19.6668 96.959 21.1446 96.959C22.6225 96.959 23.8362 98.1506 23.849 99.6142C23.8617 101.111 22.632 102.355 21.143 102.355Z" fill="white"/>
<path d="M27.2211 96.9592C28.6878 96.9751 29.892 98.1905 29.8872 99.651C29.8825 101.148 28.6401 102.373 27.1431 102.356C25.6542 102.338 24.4452 101.076 24.477 99.5746C24.5088 98.1189 25.7417 96.9417 27.2195 96.9592H27.2211Z" fill="white"/>
<path d="M35.9277 99.6497C35.9246 101.147 34.6837 102.373 33.1868 102.357C31.7281 102.342 30.5254 101.126 30.5175 99.6593C30.5095 98.1654 31.7503 96.9452 33.2568 96.9611C34.7251 96.9754 35.9293 98.1893 35.9261 99.6497H35.9277Z" fill="white"/>
<path d="M41.9663 99.6606C41.9567 101.156 40.7095 102.376 39.2142 102.356C37.757 102.335 36.5592 101.112 36.5576 99.6447C36.5576 98.1525 37.8 96.937 39.3096 96.9593C40.7763 96.98 41.9758 98.2002 41.9678 99.6606H41.9663Z" fill="white"/>
<path d="M48.005 99.6526C48.0003 101.15 46.7563 102.373 45.2593 102.356C43.8006 102.338 42.5995 101.119 42.5948 99.6526C42.59 98.1603 43.8308 96.9417 45.3389 96.9592C46.8056 96.9767 48.0098 98.1921 48.0034 99.6526H48.005Z" fill="white"/>
<path d="M84.2397 99.6542C84.2333 101.15 82.9893 102.375 81.4924 102.356C80.0336 102.336 78.8342 101.118 78.8294 99.651C78.8246 98.1587 80.067 96.9401 81.5751 96.9592C83.0418 96.9767 84.2444 98.1937 84.2381 99.6542H84.2397Z" fill="white"/>
<path d="M99.6861 96.9591C101.154 96.9734 102.36 98.1873 102.357 99.6477C102.354 101.145 101.113 102.371 99.6177 102.355C98.1271 102.34 96.9181 101.081 96.9483 99.5793C96.977 98.1236 98.2114 96.9448 99.6877 96.9591H99.6861Z" fill="white"/>
<path d="M108.396 99.6206C108.407 101.116 107.174 102.36 105.684 102.355C104.222 102.352 103.006 101.149 102.986 99.6858C102.965 98.1872 104.188 96.9558 105.698 96.959C107.174 96.9622 108.387 98.1569 108.396 99.6206Z" fill="white"/>
<path d="M114.436 99.6206C114.447 101.116 113.214 102.36 111.724 102.355C110.262 102.352 109.047 101.149 109.026 99.6858C109.005 98.1872 110.229 96.9558 111.738 96.959C113.214 96.9622 114.427 98.1569 114.436 99.6206Z" fill="white"/>
<path d="M120.475 99.6429C120.475 101.14 119.235 102.37 117.74 102.355C116.281 102.343 115.076 101.129 115.064 99.6636C115.055 98.1698 116.291 96.9464 117.799 96.9591C119.27 96.9718 120.475 98.1809 120.475 99.6429Z" fill="white"/>
<path d="M126.513 99.6638C126.502 101.159 125.253 102.378 123.758 102.356C122.301 102.333 121.105 101.108 121.105 99.6415C121.105 98.1493 122.35 96.937 123.86 96.9593C125.325 96.9816 126.524 98.2034 126.515 99.6638H126.513Z" fill="white"/>
<path d="M132.554 99.6269C132.56 101.126 131.327 102.362 129.835 102.355C128.375 102.349 127.161 101.143 127.145 99.6794C127.127 98.1824 128.355 96.9542 129.864 96.959C131.338 96.9654 132.547 98.1633 132.555 99.6269H132.554Z" fill="white"/>
<path d="M135.921 102.355C134.423 102.371 133.185 101.146 133.182 99.6477C133.179 98.1857 134.383 96.975 135.853 96.9591C137.329 96.9448 138.562 98.1236 138.592 99.5793C138.622 101.08 137.41 102.341 135.921 102.355Z" fill="white"/>
<path d="M144.631 99.619C144.642 101.114 143.409 102.359 141.918 102.355C140.456 102.352 139.241 101.149 139.22 99.6858C139.2 98.1856 140.421 96.9558 141.931 96.959C143.409 96.9622 144.62 98.1553 144.631 99.619Z" fill="white"/>
<path d="M147.941 96.9591C149.419 96.9479 150.646 98.13 150.671 99.5888C150.697 101.087 149.48 102.344 147.991 102.355C146.494 102.367 145.259 101.137 145.261 99.6381C145.263 98.1761 146.47 96.9702 147.941 96.9591Z" fill="white"/>
<path d="M51.309 102.999C52.7853 102.986 54.0165 104.165 54.0436 105.623C54.0722 107.123 52.8584 108.381 51.3695 108.395C49.8725 108.41 48.6349 107.183 48.6349 105.683C48.6349 104.223 49.8407 103.012 51.309 102.999Z" fill="white"/>
<path d="M57.3636 103C58.8414 102.994 60.0632 104.177 60.0839 105.639C60.1045 107.138 58.8828 108.39 57.3938 108.396C55.9001 108.403 54.6672 107.168 54.6736 105.67C54.68 104.208 55.889 103.008 57.3636 103Z" fill="white"/>
<path d="M66.1224 105.694C66.116 107.191 64.872 108.415 63.3767 108.396C61.918 108.378 60.7169 107.158 60.7137 105.691C60.709 104.199 61.9514 102.98 63.4594 102.999C64.9261 103.017 66.1288 104.234 66.124 105.694H66.1224Z" fill="white"/>
<path d="M69.4838 108.396C67.9868 108.409 66.7524 107.181 66.7524 105.681C66.7524 104.22 67.9614 103.011 69.4313 103C70.9091 102.989 72.1372 104.169 72.1626 105.628C72.1897 107.128 70.9727 108.385 69.4838 108.396Z" fill="white"/>
<path d="M78.201 105.657C78.2137 107.154 76.9825 108.398 75.4919 108.396C74.03 108.395 72.813 107.192 72.7907 105.73C72.7685 104.23 73.9902 102.998 75.4983 103C76.9761 103 78.1883 104.193 78.1994 105.657H78.201Z" fill="white"/>
<path d="M81.545 103C83.0212 103.005 84.2318 104.2 84.2414 105.663C84.2509 107.16 83.0181 108.401 81.5259 108.396C80.0338 108.392 78.812 107.144 78.8311 105.644C78.8486 104.184 80.0688 102.995 81.545 103Z" fill="white"/>
<path d="M93.6491 102.999C95.1174 103.015 96.3217 104.229 96.3185 105.689C96.3153 107.186 95.0729 108.411 93.576 108.396C92.087 108.38 90.8764 107.12 90.9082 105.616C90.9384 104.161 92.1713 102.983 93.6491 102.999Z" fill="white"/>
<path d="M102.357 105.686C102.355 107.183 101.115 108.411 99.6193 108.395C98.1606 108.381 96.9564 107.166 96.9484 105.701C96.9404 104.207 98.1781 102.985 99.6861 102.999C101.156 103.013 102.36 104.224 102.359 105.686H102.357Z" fill="white"/>
<path d="M126.513 105.697C126.505 107.193 125.26 108.415 123.763 108.396C122.304 108.375 121.106 107.155 121.103 105.688C121.1 104.196 122.344 102.98 123.852 102.999C125.319 103.018 126.52 104.237 126.512 105.697H126.513Z" fill="white"/>
<path d="M147.959 103C149.435 102.997 150.653 104.187 150.671 105.647C150.688 107.144 149.464 108.393 147.973 108.396C146.481 108.4 145.251 107.16 145.261 105.662C145.27 104.198 146.481 103.003 147.959 103Z" fill="white"/>
<path d="M54.0452 2.98298C54.0579 4.48002 52.8282 5.7241 51.3377 5.72251C49.8758 5.72251 48.6572 4.51979 48.6349 3.05775C48.6111 1.55753 49.8328 0.326172 51.3425 0.326172C52.8203 0.326172 54.0325 1.51776 54.0452 2.98298Z" fill="white"/>
<path d="M60.0838 111.693C60.0981 113.19 58.87 114.435 57.3794 114.435C55.9175 114.435 54.6989 113.234 54.6751 111.774C54.6512 110.274 55.8714 109.041 57.3794 109.039C58.8573 109.039 60.071 110.229 60.0853 111.693H60.0838Z" fill="white"/>
<path d="M84.2396 111.728C84.2364 113.225 82.9956 114.451 81.5003 114.436C80.0415 114.42 78.8373 113.204 78.8309 111.739C78.823 110.245 80.0622 109.025 81.5703 109.039C83.0386 109.054 84.2444 110.267 84.2412 111.728H84.2396Z" fill="white"/>
<path d="M102.357 111.734C102.351 113.23 101.107 114.455 99.6099 114.436C98.1511 114.417 96.9517 113.198 96.9469 111.731C96.9421 110.239 98.1845 109.02 99.6926 109.039C101.159 109.057 102.362 110.274 102.356 111.734H102.357Z" fill="white"/>
<path d="M114.436 111.733C114.431 113.23 113.187 114.453 111.69 114.436C110.231 114.418 109.03 113.199 109.026 111.733C109.021 110.24 110.262 109.022 111.77 109.039C113.236 109.057 114.441 110.272 114.436 111.733Z" fill="white"/>
<path d="M126.513 111.733C126.508 113.23 125.265 114.453 123.768 114.436C122.309 114.418 121.108 113.199 121.103 111.733C121.098 110.24 122.339 109.022 123.847 109.039C125.314 109.057 126.518 110.272 126.513 111.733Z" fill="white"/>
<path d="M129.817 109.039C131.294 109.026 132.525 110.205 132.552 111.663C132.58 113.163 131.367 114.421 129.878 114.436C128.381 114.45 127.143 113.223 127.143 111.723C127.143 110.263 128.349 109.052 129.817 109.039Z" fill="white"/>
<path d="M135.878 114.435C134.386 114.432 133.164 113.185 133.182 111.685C133.199 110.224 134.418 109.036 135.894 109.039C137.37 109.042 138.581 110.237 138.59 111.701C138.6 113.196 137.367 114.439 135.876 114.435H135.878Z" fill="white"/>
<path d="M141.957 114.436C140.46 114.45 139.222 113.223 139.22 111.725C139.22 110.264 140.425 109.054 141.895 109.039C143.371 109.025 144.602 110.205 144.631 111.663C144.659 113.163 143.446 114.423 141.957 114.436Z" fill="white"/>
<path d="M150.669 111.802C150.629 113.293 149.355 114.485 147.854 114.434C146.403 114.384 145.232 113.132 145.259 111.662C145.288 110.175 146.559 108.99 148.073 109.041C149.535 109.088 150.707 110.337 150.668 111.802H150.669Z" fill="white"/>
<path d="M69.4838 5.72259C67.9868 5.73532 66.7524 4.50555 66.7524 3.00692C66.7524 1.54647 67.9614 0.337386 69.4313 0.32625C70.9091 0.315114 72.1372 1.49556 72.1626 2.95442C72.1897 4.45464 70.9727 5.71145 69.4838 5.72259Z" fill="white"/>
<path d="M57.4032 120.475C55.9063 120.486 54.6719 119.256 54.6751 117.757C54.6766 116.295 55.884 115.089 57.3555 115.078C58.8334 115.067 60.0599 116.249 60.0853 117.708C60.1108 119.207 58.8938 120.463 57.4048 120.475H57.4032Z" fill="white"/>
<path d="M63.3799 115.078C64.8561 115.061 66.0906 116.238 66.1224 117.694C66.1558 119.194 64.9436 120.457 63.4562 120.475C61.9577 120.492 60.7185 119.27 60.7137 117.772C60.709 116.31 61.9116 115.096 63.3799 115.078Z" fill="white"/>
<path d="M78.201 117.765C78.1994 119.262 76.9586 120.491 75.4632 120.475C74.0045 120.46 72.8002 119.245 72.7923 117.78C72.7843 116.286 74.022 115.064 75.53 115.078C76.9999 115.093 78.2041 116.303 78.2025 117.765H78.201Z" fill="white"/>
<path d="M96.3186 117.745C96.3249 119.244 95.0921 120.48 93.5999 120.474C92.1396 120.468 90.9258 119.262 90.9099 117.798C90.8924 116.301 92.1205 115.073 93.6285 115.079C95.1032 115.085 96.3122 116.283 96.3201 117.747L96.3186 117.745Z" fill="white"/>
<path d="M99.6322 120.475C98.1416 120.465 96.9246 119.213 96.9469 117.713C96.9692 116.255 98.1957 115.07 99.6719 115.078C101.145 115.086 102.352 116.289 102.357 117.752C102.362 119.251 101.127 120.484 99.6322 120.475Z" fill="white"/>
<path d="M126.513 117.74C126.524 119.235 125.292 120.479 123.801 120.474C122.339 120.471 121.124 119.269 121.103 117.805C121.082 116.306 122.306 115.075 123.815 115.078C125.292 115.081 126.504 116.276 126.513 117.74Z" fill="white"/>
<path d="M150.671 117.729C150.687 119.226 149.46 120.473 147.97 120.474C146.508 120.476 145.286 119.277 145.26 117.816C145.235 116.316 146.454 115.08 147.962 115.078C149.439 115.077 150.655 116.267 150.671 117.729Z" fill="white"/>
<path d="M84.2395 2.99609C84.2459 4.49472 83.0131 5.73085 81.5193 5.72449C80.059 5.71813 78.8468 4.51063 78.8293 3.047C78.8118 1.54996 80.0399 0.321786 81.5479 0.32815C83.0226 0.334513 84.2316 1.53405 84.2379 2.99609H84.2395Z" fill="white"/>
<path d="M57.3127 126.514C55.8269 126.484 54.629 125.208 54.6752 123.706C54.7197 122.255 55.9669 121.089 57.4447 121.118C58.9082 121.146 60.1013 122.376 60.0838 123.837C60.0663 125.33 58.8096 126.543 57.3127 126.514Z" fill="white"/>
<path d="M69.4947 121.117C70.9614 121.133 72.1656 122.349 72.1609 123.809C72.1561 125.306 70.9137 126.531 69.4168 126.514C67.9278 126.496 66.7188 125.235 66.7506 123.733C66.7824 122.277 68.0153 121.1 69.4931 121.117H69.4947Z" fill="white"/>
<path d="M87.5818 121.117C89.0581 121.12 90.2687 122.317 90.2782 123.78C90.2877 125.276 89.0549 126.518 87.5643 126.514C86.0722 126.509 84.8504 125.263 84.8679 123.763C84.8854 122.302 86.104 121.114 87.5818 121.117Z" fill="white"/>
<path d="M99.6497 126.514C98.1575 126.514 96.9326 125.268 96.9485 123.768C96.9628 122.306 98.1782 121.116 99.656 121.117C101.134 121.117 102.346 122.31 102.359 123.774C102.372 125.271 101.14 126.515 99.6513 126.514H99.6497Z" fill="white"/>
<path d="M108.396 123.809C108.393 125.306 107.15 126.531 105.653 126.515C104.195 126.499 102.992 125.282 102.986 123.815C102.979 122.321 104.218 121.102 105.726 121.118C107.195 121.134 108.399 122.348 108.394 123.809H108.396Z" fill="white"/>
<path d="M111.725 126.514C110.233 126.51 109.01 125.265 109.026 123.766C109.042 122.304 110.259 121.116 111.737 121.117C113.214 121.119 114.425 122.312 114.436 123.777C114.447 125.274 113.216 126.517 111.725 126.514Z" fill="white"/>
<path d="M117.761 121.117C119.237 121.112 120.457 122.301 120.475 123.763C120.492 125.26 119.269 126.51 117.778 126.514C116.286 126.518 115.055 125.279 115.064 123.78C115.074 122.317 116.285 121.122 117.761 121.117Z" fill="white"/>
<path d="M126.513 123.812C126.507 125.309 125.263 126.533 123.768 126.514C122.309 126.496 121.108 125.276 121.105 123.809C121.1 122.317 122.342 121.098 123.85 121.117C125.317 121.135 126.52 122.352 126.515 123.812H126.513Z" fill="white"/>
<path d="M141.919 126.514C140.426 126.51 139.205 125.263 139.222 123.763C139.24 122.302 140.458 121.114 141.934 121.117C143.411 121.12 144.621 122.315 144.631 123.779C144.64 125.274 143.408 126.517 141.917 126.514H141.919Z" fill="white"/>
<path d="M147.952 126.514C146.46 126.507 145.242 125.258 145.261 123.758C145.28 122.299 146.501 121.111 147.979 121.117C149.454 121.124 150.664 122.322 150.671 123.785C150.679 125.282 149.446 126.52 147.952 126.514Z" fill="white"/>
<path d="M51.3154 127.158C52.7932 127.147 54.0197 128.329 54.0452 129.788C54.0706 131.287 52.8537 132.543 51.3647 132.555C49.8678 132.566 48.6333 131.336 48.6349 129.837C48.6365 128.377 49.8439 127.169 51.3154 127.158Z" fill="white"/>
<path d="M66.1225 129.812C66.1368 131.309 64.9087 132.555 63.4181 132.555C61.9562 132.555 60.7376 131.353 60.7138 129.893C60.6899 128.393 61.9101 127.16 63.4181 127.158C64.896 127.158 66.1097 128.348 66.124 129.812H66.1225Z" fill="white"/>
<path d="M72.1625 129.922C72.1228 131.412 70.8485 132.604 69.3468 132.553C67.896 132.504 66.7252 131.252 66.7523 129.782C66.7809 128.294 68.0519 127.109 69.5664 127.16C71.0283 127.208 72.2007 128.456 72.1609 129.922H72.1625Z" fill="white"/>
<path d="M75.4872 127.158C76.965 127.153 78.1836 128.342 78.2011 129.802C78.2201 131.299 76.9952 132.55 75.5047 132.555C74.0109 132.559 72.7813 131.32 72.7908 129.821C72.8003 128.358 74.0093 127.161 75.4856 127.158H75.4872Z" fill="white"/>
<path d="M81.5051 127.158C82.9813 127.146 84.2126 128.326 84.2397 129.782C84.2683 131.282 83.0545 132.54 81.564 132.555C80.067 132.569 78.8294 131.342 78.8294 129.842C78.8294 128.382 80.0352 127.171 81.5035 127.158H81.5051Z" fill="white"/>
<path d="M108.396 129.831C108.401 131.33 107.166 132.564 105.672 132.555C104.212 132.547 103.002 131.338 102.987 129.874C102.971 128.377 104.201 127.15 105.711 127.158C107.184 127.166 108.393 128.369 108.397 129.831H108.396Z" fill="white"/>
<path d="M111.735 132.555C110.243 132.556 109.015 131.315 109.026 129.817C109.037 128.353 110.249 127.16 111.727 127.158C113.205 127.157 114.42 128.347 114.436 129.809C114.452 131.306 113.225 132.553 111.735 132.555Z" fill="white"/>
<path d="M120.475 129.851C120.47 131.348 119.226 132.571 117.729 132.554C116.27 132.536 115.069 131.318 115.064 129.851C115.06 128.359 116.3 127.14 117.808 127.157C119.275 127.175 120.479 128.39 120.475 129.851Z" fill="white"/>
<path d="M126.513 129.873C126.497 131.367 125.242 132.583 123.747 132.554C122.291 132.527 121.098 131.297 121.105 129.829C121.109 128.337 122.36 127.129 123.871 127.158C125.334 127.185 126.531 128.413 126.515 129.873H126.513Z" fill="white"/>
<path d="M135.883 127.158C137.361 127.157 138.576 128.347 138.592 129.809C138.608 131.306 137.382 132.553 135.891 132.555C134.399 132.556 133.171 131.315 133.182 129.817C133.193 128.353 134.405 127.16 135.883 127.158Z" fill="white"/>
<path d="M141.896 127.158C143.372 127.146 144.604 128.324 144.631 129.782C144.659 131.282 143.446 132.54 141.957 132.555C140.46 132.569 139.222 131.342 139.222 129.842C139.222 128.382 140.428 127.171 141.896 127.158Z" fill="white"/>
<path d="M150.671 129.818C150.682 131.314 149.449 132.558 147.959 132.555C146.497 132.551 145.281 131.349 145.261 129.885C145.24 128.385 146.462 127.155 147.971 127.158C149.449 127.161 150.66 128.355 150.671 129.818Z" fill="white"/>
<path d="M51.3487 133.196C52.8249 133.199 54.0355 134.396 54.045 135.859C54.0546 137.355 52.8217 138.597 51.3312 138.593C49.839 138.588 48.6173 137.342 48.6348 135.842C48.6523 134.382 49.8708 133.193 51.3487 133.196Z" fill="white"/>
<path d="M57.4079 133.196C58.8794 133.209 60.0836 134.418 60.0836 135.88C60.0836 137.377 58.8444 138.607 57.3491 138.593C55.8585 138.578 54.6463 137.322 54.675 135.821C54.702 134.366 55.9333 133.184 57.4095 133.196H57.4079Z" fill="white"/>
<path d="M72.1626 135.901C72.1514 137.397 70.9027 138.615 69.4073 138.593C67.9502 138.571 66.7539 137.346 66.7539 135.879C66.7539 134.387 67.9995 133.174 69.5091 133.197C70.9742 133.219 72.1737 134.441 72.1642 135.901H72.1626Z" fill="white"/>
<path d="M75.5303 133.196C77.0002 133.211 78.2044 134.423 78.2013 135.883C78.1997 137.38 76.9588 138.607 75.4619 138.593C73.9714 138.577 72.7608 137.318 72.791 135.817C72.8196 134.361 74.0525 133.182 75.5287 133.196H75.5303Z" fill="white"/>
<path d="M84.2397 135.88C84.2397 137.377 83.0005 138.606 81.5052 138.594C80.0448 138.581 78.8406 137.367 78.8295 135.902C78.8183 134.408 80.0544 133.185 81.5624 133.197C83.0339 133.21 84.2381 134.419 84.2381 135.88H84.2397Z" fill="white"/>
<path d="M114.436 135.88C114.436 137.377 113.197 138.606 111.701 138.594C110.241 138.581 109.037 137.367 109.026 135.902C109.015 134.408 110.251 133.185 111.759 133.197C113.23 133.21 114.434 134.419 114.434 135.88H114.436Z" fill="white"/>
<path d="M120.475 135.88C120.475 137.377 119.235 138.606 117.74 138.594C116.28 138.581 115.076 137.367 115.064 135.902C115.053 134.408 116.289 133.185 117.797 133.197C119.269 133.21 120.473 134.419 120.473 135.88H120.475Z" fill="white"/>
<path d="M123.806 138.593C122.314 138.591 121.089 137.345 121.105 135.847C121.119 134.385 122.336 133.195 123.814 133.196C125.292 133.196 126.504 134.389 126.515 135.853C126.528 137.35 125.296 138.594 123.806 138.593Z" fill="white"/>
<path d="M129.859 138.593C128.365 138.597 127.135 137.36 127.143 135.861C127.151 134.397 128.362 133.201 129.836 133.196C131.314 133.192 132.534 134.377 132.552 135.839C132.571 137.336 131.348 138.588 129.857 138.593H129.859Z" fill="white"/>
<path d="M138.592 135.865C138.6 137.362 137.367 138.599 135.873 138.595C134.413 138.588 133.199 137.382 133.182 135.919C133.164 134.422 134.391 133.192 135.899 133.198C137.373 133.205 138.584 134.403 138.59 135.865H138.592Z" fill="white"/>
<path d="M144.631 135.919C144.612 137.413 143.355 138.625 141.858 138.593C140.404 138.563 139.213 137.33 139.22 135.863C139.228 134.371 140.48 133.167 141.993 133.197C143.457 133.225 144.65 134.457 144.631 135.919Z" fill="white"/>
<path d="M54.0452 141.958C54.0261 143.452 52.7694 144.664 51.2725 144.632C49.8185 144.602 48.627 143.369 48.6349 141.902C48.6429 140.41 49.8948 139.206 51.4077 139.236C52.8712 139.265 54.0643 140.496 54.0452 141.958Z" fill="white"/>
<path d="M78.201 141.937C78.1915 143.432 76.9459 144.654 75.4489 144.632C73.9918 144.611 72.7923 143.389 72.7907 141.923C72.7892 140.43 74.0331 139.215 75.5428 139.236C77.0095 139.256 78.2105 140.475 78.201 141.937Z" fill="white"/>
<path d="M81.5099 139.236C82.9877 139.225 84.2142 140.407 84.2397 141.866C84.2651 143.365 83.0482 144.622 81.5592 144.633C80.0623 144.644 78.8278 143.414 78.8294 141.915C78.831 140.453 80.0384 139.248 81.5099 139.236Z" fill="white"/>
<path d="M87.5883 144.633C86.0945 144.639 84.8617 143.405 84.8696 141.904C84.876 140.442 86.085 139.243 87.5596 139.236C89.0375 139.23 90.2592 140.414 90.2799 141.876C90.3005 143.374 89.0788 144.626 87.5898 144.633H87.5883Z" fill="white"/>
<path d="M126.513 141.928C126.508 143.425 125.266 144.65 123.771 144.633C122.312 144.615 121.109 143.398 121.105 141.932C121.098 140.438 122.339 139.219 123.847 139.237C125.315 139.252 126.518 140.468 126.515 141.928H126.513Z" fill="white"/>
<path d="M135.873 144.633C134.381 144.626 133.163 143.377 133.182 141.877C133.201 140.418 134.423 139.23 135.9 139.236C137.375 139.243 138.586 140.441 138.592 141.904C138.6 143.401 137.366 144.639 135.873 144.633Z" fill="white"/>
<path d="M51.3264 150.673C49.8343 150.666 48.6157 149.418 48.6348 147.917C48.6539 146.458 49.8756 145.27 51.3535 145.276C52.8281 145.283 54.0387 146.481 54.0451 147.944C54.053 149.441 52.8186 150.679 51.3264 150.673Z" fill="white"/>
<path d="M57.3651 150.673C55.8729 150.666 54.6544 149.418 54.6735 147.917C54.6926 146.458 55.9143 145.27 57.3921 145.276C58.8668 145.283 60.0774 146.481 60.0837 147.944C60.0917 149.441 58.8588 150.679 57.3651 150.673Z" fill="white"/>
<path d="M69.4436 150.673C67.9515 150.666 66.7329 149.418 66.752 147.917C66.7711 146.458 67.9928 145.27 69.4707 145.276C70.9453 145.283 72.1559 146.481 72.1623 147.944C72.1702 149.441 70.9374 150.679 69.4436 150.673Z" fill="white"/>
<path d="M75.4823 150.673C73.9901 150.666 72.7716 149.418 72.7907 147.917C72.8097 146.458 74.0315 145.27 75.5093 145.276C76.984 145.283 78.1946 146.481 78.2009 147.944C78.2089 149.441 76.976 150.679 75.4823 150.673Z" fill="white"/>
<path d="M81.5209 150.673C80.0288 150.666 78.8102 149.418 78.8293 147.917C78.8484 146.458 80.0701 145.27 81.548 145.276C83.0226 145.283 84.2332 146.481 84.2396 147.944C84.2475 149.441 83.0147 150.679 81.5209 150.673Z" fill="white"/>
<path d="M87.5614 150.673C86.0692 150.666 84.8507 149.418 84.8698 147.917C84.8889 146.458 86.1106 145.27 87.5884 145.276C89.0631 145.283 90.2737 146.481 90.28 147.944C90.288 149.441 89.0551 150.679 87.5614 150.673Z" fill="white"/>
<path d="M111.7 145.276C113.176 145.264 114.407 146.443 114.434 147.9C114.463 149.4 113.249 150.658 111.76 150.673C110.263 150.687 109.026 149.461 109.026 147.96C109.026 146.5 110.231 145.289 111.7 145.276Z" fill="white"/>
<path d="M120.475 147.933C120.487 149.429 119.256 150.674 117.767 150.673C116.305 150.673 115.088 149.47 115.066 148.006C115.044 146.506 116.265 145.275 117.773 145.276C119.251 145.276 120.463 146.47 120.476 147.933H120.475Z" fill="white"/>
<path d="M123.795 150.673C122.302 150.666 121.084 149.418 121.103 147.917C121.122 146.458 122.344 145.27 123.822 145.276C125.296 145.283 126.507 146.481 126.513 147.944C126.521 149.441 125.288 150.679 123.795 150.673Z" fill="white"/>
<path d="M129.835 150.673C128.343 150.666 127.124 149.418 127.143 147.917C127.162 146.458 128.384 145.27 129.862 145.276C131.337 145.283 132.547 146.481 132.554 147.944C132.562 149.441 131.329 150.679 129.835 150.673Z" fill="white"/>
<path d="M135.873 150.673C134.381 150.666 133.163 149.418 133.182 147.917C133.201 146.458 134.423 145.27 135.9 145.276C137.375 145.283 138.586 146.481 138.592 147.944C138.6 149.441 137.366 150.679 135.873 150.673Z" fill="white"/>
<path d="M141.92 150.673C140.428 150.67 139.205 149.424 139.222 147.924C139.238 146.462 140.457 145.273 141.933 145.276C143.411 145.28 144.621 146.473 144.632 147.936C144.644 149.433 143.412 150.676 141.92 150.673Z" fill="white"/>
<path d="M150.671 147.97C150.665 149.467 149.421 150.69 147.926 150.671C146.467 150.653 145.266 149.435 145.261 147.968C145.256 146.476 146.499 145.257 148.007 145.275C149.473 145.292 150.678 146.509 150.671 147.97Z" fill="white"/>
<path d="M21.0775 30.2034C19.6474 30.2034 18.2173 30.2161 16.7888 30.2002C14.0192 30.1715 12.1103 28.2656 12.0912 25.4848C12.0705 22.5718 12.0689 19.6589 12.0912 16.7459C12.1119 14.0191 14.0288 12.11 16.7602 12.0894C19.6729 12.0671 22.5856 12.0687 25.4983 12.0894C28.2711 12.1084 30.1784 14.0191 30.1975 16.8C30.2182 19.6859 30.2166 22.5734 30.1975 25.4593C30.18 28.2831 28.2695 30.1795 25.4442 30.2018C23.9887 30.2129 22.5315 30.2034 21.076 30.2034H21.0775Z" fill="white"/>
<path d="M129.802 30.2032C128.371 30.2032 126.941 30.2143 125.513 30.2016C122.734 30.1761 120.818 28.2814 120.796 25.5053C120.774 22.5923 120.775 19.6794 120.796 16.7664C120.815 14.0333 122.724 12.113 125.446 12.0908C128.384 12.0669 131.324 12.0653 134.264 12.0908C136.951 12.113 138.872 14.0189 138.901 16.7012C138.933 19.6666 138.934 22.6337 138.901 25.5991C138.869 28.2782 136.939 30.165 134.251 30.2C132.768 30.2191 131.286 30.2032 129.803 30.2032H129.802Z" fill="white"/>
<path d="M21.1032 138.914C19.6731 138.914 18.243 138.925 16.8145 138.912C14.0338 138.887 12.1137 136.995 12.093 134.222C12.0707 131.309 12.0723 128.396 12.093 125.483C12.1121 122.715 14.0322 120.816 16.8176 120.8C19.7033 120.784 22.5906 120.782 25.4763 120.8C28.2601 120.816 30.1786 122.712 30.2009 125.485C30.2248 128.398 30.2248 131.311 30.2009 134.224C30.1786 136.997 28.257 138.887 25.4747 138.912C24.0191 138.925 22.562 138.914 21.1064 138.914H21.1032Z" fill="white"/>
</svg>
