<svg width="77" height="61" viewBox="0 0 77 61" fill="none" xmlns="http://www.w3.org/2000/svg"><path d="M38.9918 44.0447C36.148 44.0447 33.8345 41.7312 33.8345 38.8874C33.8345 38.7677 33.8368 38.6457 33.8462 38.5284L16.3047 31.2992C15.4671 30.952 15.0682 29.9876 15.4131 29.1523C15.6665 28.5352 16.2625 28.1387 16.9289 28.1387C17.1471 28.1387 17.3583 28.1809 17.5554 28.2607L35.1015 35.4945C36.0752 34.3847 37.5159 33.7277 38.9918 33.7277C39.8975 33.7277 40.6319 34.4621 40.6319 35.3678C40.6319 36.2712 39.8975 37.0056 38.9918 37.0056C38.2972 37.0056 37.6614 37.3904 37.3305 38.0075C37.2625 38.2445 37.2109 38.3407 37.1522 38.4392C37.1358 38.5331 37.11 38.7184 37.11 38.8874C37.11 39.9221 37.9547 40.7668 38.9918 40.7668C40.0289 40.7668 40.8712 39.9245 40.8712 38.8874C40.8712 37.9817 41.6056 37.2473 42.5113 37.2473C43.417 37.2473 44.1514 37.9817 44.1514 38.8874C44.1514 41.7312 41.8379 44.0447 38.9918 44.0447Z" fill="#FFE816"></path><path d="M69.4029 60.4719C69.0814 60.4719 68.767 60.3781 68.4949 60.1998C68.1288 59.9581 67.8777 59.5921 67.7909 59.165C67.7018 58.7333 67.7862 58.2945 68.0326 57.9285C68.9219 56.5699 69.722 55.141 70.4142 53.6769L67.629 52.5295C67.2184 52.3559 66.9017 52.0391 66.7374 51.6332C66.5732 51.2249 66.5732 50.7791 66.7445 50.3779C66.9908 49.7631 67.5891 49.3666 68.2602 49.3666C68.4737 49.3666 68.6825 49.4088 68.882 49.4886L71.6718 50.6454C72.8427 47.3886 73.5161 43.9864 73.6756 40.5255H70.6676C69.7642 40.5255 69.0298 39.7911 69.0298 38.8877C69.0298 37.982 69.7642 37.2476 70.6676 37.2476H73.678C73.5184 33.7679 72.8474 30.3634 71.6789 27.1254L68.8867 28.2821C68.6943 28.3643 68.4808 28.4065 68.2579 28.4065C67.5891 28.4065 66.9932 28.01 66.7398 27.3929C66.5732 26.9893 66.5732 26.5435 66.7398 26.1376C66.9064 25.734 67.2208 25.4172 67.629 25.2483L70.4282 24.0868C68.9524 20.9709 67.0213 18.0895 64.6773 15.5226L62.5492 17.6484C62.2418 17.9581 61.8288 18.1271 61.3924 18.1271C60.9513 18.1271 60.5383 17.9581 60.2309 17.6484C59.9212 17.341 59.7499 16.9257 59.7499 16.4869C59.7499 16.0482 59.9212 15.6352 60.2333 15.3255L62.3591 13.1997C59.7922 10.8604 56.9108 8.92929 53.7925 7.45343L52.6334 10.2526C52.3776 10.8674 51.7817 11.2639 51.1176 11.2639C50.9018 11.2639 50.6883 11.2217 50.4888 11.1419C50.0829 10.9753 49.7661 10.6586 49.5972 10.2503C49.433 9.84438 49.4306 9.40091 49.5949 8.99499L50.7563 6.19812C47.5136 5.03432 44.1114 4.36561 40.6341 4.20371V7.2141C40.6341 8.11745 39.8997 8.85186 38.994 8.85186C38.0906 8.85186 37.3562 8.11745 37.3562 7.2141V4.20136C33.8648 4.36092 30.4626 5.03198 27.2316 6.19577L28.3954 8.99265C28.7356 9.82795 28.3344 10.7923 27.4991 11.1396C27.2973 11.2193 27.0862 11.2592 26.8703 11.2592C26.2086 11.2592 25.6126 10.865 25.3569 10.255L24.1931 7.45108C21.0748 8.9246 18.1934 10.8557 15.6265 13.1973L17.7547 15.3278C18.062 15.6352 18.2357 16.0458 18.2357 16.4846C18.2357 16.9257 18.0644 17.3363 17.7547 17.646C17.4496 17.9558 17.0367 18.1247 16.5932 18.1247C16.1497 18.1247 15.7368 17.9558 15.4317 17.646L13.3012 15.5202C10.9549 18.0965 9.02382 20.9732 7.55734 24.0845L10.3542 25.2436C10.7578 25.4102 11.0745 25.7246 11.2411 26.1305C11.4101 26.5364 11.4124 26.9822 11.2411 27.3905C10.9877 28.0076 10.3917 28.4041 9.72538 28.4041C9.50013 28.4041 9.28661 28.3596 9.08951 28.2751L6.29968 27.1207C5.13589 30.3563 4.46482 33.7609 4.30293 37.2453H7.31566C8.22136 37.2453 8.95812 37.9797 8.95812 38.8854C8.95812 39.7887 8.22136 40.5231 7.31566 40.5231H4.30293C4.46482 43.9958 5.14058 47.398 6.31142 50.643L9.09655 49.4863C9.30303 49.4065 9.51186 49.3642 9.72303 49.3642C10.3917 49.3642 10.9901 49.7631 11.2435 50.3802C11.4124 50.7838 11.4124 51.2273 11.2435 51.6332C11.0769 52.0391 10.7601 52.3559 10.3566 52.5248L7.57142 53.6745C8.26125 55.1363 9.0637 56.5652 9.95767 57.9285C10.1993 58.2922 10.2815 58.7333 10.1923 59.1603C10.1031 59.5897 9.85208 59.9581 9.48605 60.1974C9.22091 60.3734 8.9065 60.4673 8.58505 60.4673C8.0313 60.4673 7.51745 60.1904 7.21242 59.7258C3.13443 53.529 0.980469 46.321 0.980469 38.8877C0.980469 28.7326 4.9341 19.1876 12.114 12.0101C19.2915 4.83019 28.8365 0.878906 38.9916 0.878906C49.1514 0.878906 58.6964 4.83254 65.8693 12.0101C73.0491 19.1876 77.0004 28.7326 77.0004 38.8877C77.0004 46.3233 74.8488 53.529 70.7755 59.7305C70.4705 60.1951 69.9566 60.4719 69.4029 60.4719Z" fill="#FFE816"></path></svg>