<svg width="841" height="251" viewBox="0 0 841 251" fill="none" xmlns="http://www.w3.org/2000/svg">
<path fill-rule="evenodd" clip-rule="evenodd" d="M1.49466 5.22931C0.983225 3.59719 0.484964 1.9472 0 0.279181L0.960238 0C1.44329 1.66146 1.93956 3.30483 2.4489 4.93029L1.49466 5.22931ZM8.25559 23.968C7.02619 20.9842 5.84739 17.9316 4.72022 14.809L5.66081 14.4695C6.78305 17.5784 7.95653 20.6172 9.18019 23.5871L8.25559 23.968ZM16.7092 41.9608C15.144 39.023 13.636 36.0073 12.1867 32.9119L13.0924 32.4878C14.5345 35.568 16.0347 38.5682 17.5918 41.4905L16.7092 41.9608ZM26.8735 58.8063C25.0505 56.1292 23.284 53.375 21.5755 50.5417L22.4318 50.0253C24.1309 52.843 25.8875 55.5817 27.7 58.2435L26.8735 58.8063ZM39.0169 74.581C36.8742 72.1144 34.7898 69.568 32.7654 66.9396L33.5576 66.3294C35.5701 68.9423 37.642 71.4735 39.7718 73.9252L39.0169 74.581ZM52.9121 88.7588C50.4582 86.5391 48.0629 84.2387 45.728 81.8553L46.4423 81.1555C48.7631 83.5245 51.1439 85.8109 53.583 88.0171L52.9121 88.7588ZM68.3606 101.153C65.667 99.2389 63.0288 97.248 60.4478 95.178L61.0735 94.3979C63.6391 96.4556 66.2619 98.4348 68.9399 100.338L68.3606 101.153ZM85.1838 111.744C82.2758 110.127 79.4196 108.438 76.6168 106.675L77.1493 105.829C79.9365 107.582 82.7772 109.262 85.6697 110.87L85.1838 111.744ZM633.765 113.311C630.53 113.245 627.271 113.206 623.992 113.193L623.996 112.193C627.281 112.206 630.544 112.245 633.786 112.311L633.765 113.311ZM614.091 113.229C610.77 113.266 607.428 113.327 604.068 113.41L604.043 112.41C607.408 112.327 610.754 112.266 614.08 112.229L614.091 113.229ZM653.688 114.087C650.412 113.894 647.11 113.734 643.782 113.605L643.82 112.606C647.155 112.735 650.464 112.896 653.746 113.089L653.688 114.087ZM594.266 113.715C590.993 113.837 587.704 113.978 584.398 114.138L584.35 113.139C587.659 112.979 590.952 112.838 594.229 112.716L594.266 113.715ZM574.435 114.673C571.158 114.865 567.866 115.074 564.562 115.298L564.494 114.301C567.802 114.076 571.096 113.867 574.376 113.674L574.435 114.673ZM673.396 115.691C670.106 115.344 666.784 115.036 663.432 114.766L663.513 113.769C666.872 114.04 670.202 114.349 673.5 114.697L673.396 115.691ZM554.732 116.007C551.443 116.258 548.142 116.522 544.829 116.799L544.746 115.803C548.061 115.525 551.364 115.261 554.656 115.01L554.732 116.007ZM102.964 120.485C99.9049 119.162 96.8926 117.773 93.9286 116.317L94.3696 115.419C97.3187 116.868 100.316 118.25 103.361 119.567L102.964 120.485ZM692.884 118.281C689.705 117.765 686.49 117.292 683.241 116.861L683.373 115.87C686.631 116.302 689.855 116.776 693.044 117.293L692.884 118.281ZM534.9 117.664C531.643 117.958 528.376 118.263 525.1 118.578L525.005 117.583C528.282 117.267 531.551 116.962 534.81 116.668L534.9 117.664ZM515.247 119.552C511.954 119.886 508.652 120.228 505.344 120.579L505.239 119.584C508.549 119.234 511.851 118.891 515.146 118.557L515.247 119.552ZM712.417 122.119C709.238 121.376 706.016 120.686 702.753 120.046L702.945 119.065C706.219 119.707 709.453 120.4 712.645 121.145L712.417 122.119ZM495.506 121.639C492.238 121.998 488.963 122.363 485.682 122.733L485.57 121.739C488.852 121.369 492.127 121.004 495.397 120.645L495.506 121.639ZM475.826 123.859C472.539 124.238 469.247 124.622 465.951 125.009L465.835 124.015C469.131 123.628 472.423 123.245 475.711 122.865L475.826 123.859ZM121.469 127.531C118.332 126.487 115.235 125.385 112.181 124.225L112.536 123.29C115.577 124.445 118.66 125.542 121.785 126.582L121.469 127.531ZM731.479 127.382C728.333 126.368 725.138 125.416 721.893 124.524L722.158 123.56C725.416 124.455 728.626 125.412 731.786 126.431L731.479 127.382ZM456.135 126.169C452.859 126.558 449.58 126.949 446.299 127.342L446.18 126.349C449.462 125.956 452.741 125.565 456.017 125.176L456.135 126.169ZM436.45 128.521C433.169 128.915 429.887 129.308 426.603 129.701L426.485 128.708C429.768 128.315 433.05 127.922 436.331 127.529L436.45 128.521ZM140.572 133.082C137.345 132.271 134.154 131.41 131 130.495L131.279 129.535C134.42 130.446 137.6 131.304 140.816 132.112L140.572 133.082ZM749.908 134.315C746.915 133.013 743.866 131.781 740.763 130.616L741.114 129.68C744.233 130.85 747.298 132.089 750.307 133.399L749.908 134.315ZM416.764 130.873C413.483 131.263 410.203 131.65 406.924 132.034L406.807 131.041C410.086 130.657 413.366 130.269 416.646 129.88L416.764 130.873ZM397.088 133.178C393.797 133.558 390.508 133.933 387.22 134.303L387.108 133.31C390.395 132.939 393.683 132.564 396.974 132.185L397.088 133.178ZM159.983 137.284C156.682 136.677 153.413 136.024 150.178 135.324L150.389 134.347C153.614 135.044 156.873 135.695 160.164 136.301L159.983 137.284ZM377.364 135.399C374.081 135.758 370.801 136.112 367.525 136.458L367.42 135.464C370.695 135.118 373.973 134.764 377.255 134.405L377.364 135.399ZM357.671 137.48C354.367 137.815 351.067 138.142 347.773 138.459L347.677 137.464C350.97 137.147 354.267 136.82 357.57 136.485L357.671 137.48ZM767.498 143.185C764.689 141.553 761.818 140 758.885 138.522L759.335 137.629C762.285 139.115 765.174 140.678 768.001 142.32L767.498 143.185ZM179.509 140.32C176.226 139.898 172.971 139.437 169.743 138.937L169.896 137.949C173.115 138.448 176.362 138.907 179.636 139.328L179.509 140.32ZM337.909 139.383C334.627 139.681 331.351 139.969 328.082 140.245L327.998 139.248C331.264 138.972 334.538 138.685 337.818 138.387L337.909 139.383ZM318.155 141.049C314.843 141.305 311.539 141.549 308.244 141.778L308.175 140.781C311.467 140.552 314.768 140.308 318.078 140.052L318.155 141.049ZM199.308 142.391C195.993 142.119 192.702 141.814 189.435 141.474L189.539 140.479C192.798 140.818 196.082 141.123 199.389 141.394L199.308 142.391ZM298.388 142.423C295.086 142.625 291.793 142.811 288.511 142.981L288.46 141.982C291.738 141.813 295.028 141.627 298.327 141.425L298.388 142.423ZM219.09 143.614C215.751 143.471 212.432 143.298 209.135 143.095L209.196 142.097C212.487 142.3 215.8 142.472 219.133 142.615L219.09 143.614ZM278.541 143.446C275.23 143.583 271.931 143.702 268.645 143.801L268.615 142.801C271.897 142.702 275.192 142.584 278.5 142.447L278.541 143.446ZM238.878 144.127C235.582 144.094 232.304 144.037 229.044 143.953L229.069 142.954C232.324 143.037 235.597 143.094 238.888 143.127L238.878 144.127ZM258.827 144.038C255.474 144.099 252.136 144.137 248.814 144.153L248.809 143.153C252.127 143.137 255.461 143.099 258.809 143.038L258.827 144.038ZM783.908 154.197C781.309 152.188 778.639 150.268 775.902 148.433L776.459 147.602C779.215 149.449 781.902 151.383 784.519 153.406L783.908 154.197ZM798.594 167.282C796.294 164.921 793.921 162.653 791.476 160.476L792.141 159.729C794.604 161.922 796.994 164.206 799.31 166.585L798.594 167.282ZM811.274 182.303C809.344 179.66 807.342 177.11 805.269 174.65L806.034 174.005C808.121 176.483 810.138 179.052 812.081 181.713L811.274 182.303ZM821.829 199.041C820.236 196.102 818.571 193.255 816.835 190.498L817.681 189.965C819.429 192.741 821.105 195.606 822.708 198.565L821.829 199.041ZM830.149 216.931C828.899 213.773 827.58 210.705 826.193 207.725L827.099 207.303C828.495 210.302 829.822 213.388 831.079 216.563L830.149 216.931ZM836.373 235.435C835.479 232.262 834.524 229.165 833.511 226.144L834.459 225.826C835.478 228.863 836.437 231.975 837.336 235.164L836.373 235.435ZM839.991 250.242C839.635 248.538 839.263 246.853 838.876 245.188L839.85 244.962C840.239 246.634 840.612 248.326 840.97 250.037L839.991 250.242Z" fill="#396746"/>
</svg>
