<svg width="100" height="100" viewBox="0 0 100 100" fill="none" xmlns="http://www.w3.org/2000/svg">
<rect width="100" height="100" rx="20" fill="#396746"/>
<path fill-rule="evenodd" clip-rule="evenodd" d="M65.2887 41.7467L65.0496 41.3196C64.741 40.8031 64.3059 40.3739 63.7854 40.0725L52.3225 33.4612C51.8035 33.1602 51.2143 33.0011 50.6142 33H50.1187C49.5186 33.0011 48.9294 33.1602 48.4104 33.4612L36.9475 40.0896C36.4298 40.389 35.9998 40.819 35.7004 41.3367L35.4612 41.7637C35.1602 42.2828 35.0011 42.872 35 43.4721V56.7117C35.0011 57.3118 35.1602 57.901 35.4612 58.42L35.7004 58.8471C36.0076 59.3587 36.4358 59.787 36.9475 60.0942L48.4275 66.7054C48.9439 67.0127 49.5348 67.1723 50.1358 67.1667H50.6142C51.2143 67.1656 51.8035 67.0066 52.3225 66.7054L63.7854 60.0771C64.3082 59.7844 64.7399 59.3527 65.0325 58.83L65.2887 58.4029C65.5862 57.8824 65.745 57.2942 65.75 56.6946V43.455C65.749 42.8549 65.5899 42.2657 65.2887 41.7467ZM50.1187 36.4167H50.6142L60.625 42.1908L50.375 48.1017L40.125 42.1908L50.1187 36.4167ZM52.0833 62.8958L62.0771 57.1217L62.3333 56.6946V45.1462L52.0833 51.0742V62.8958Z" fill="white"/>
</svg>
