<svg width="75" height="75" viewBox="0 0 75 75" fill="none" xmlns="http://www.w3.org/2000/svg"><path fill-rule="evenodd" clip-rule="evenodd" d="M37.5 5.23256C19.6792 5.23256 5.23256 19.6792 5.23256 37.5C5.23256 55.3207 19.6792 69.7674 37.5 69.7674C55.3207 69.7674 69.7674 55.3207 69.7674 37.5C69.7674 19.6792 55.3207 5.23256 37.5 5.23256ZM0 37.5C0 16.7893 16.7893 0 37.5 0C58.2108 0 75 16.7893 75 37.5C75 58.2108 58.2108 75 37.5 75C16.7893 75 0 58.2108 0 37.5ZM37.5 13.9535C38.9449 13.9535 40.1163 15.1248 40.1163 16.5698V17.6746C45.8037 18.693 50.5814 22.9661 50.5814 28.7791C50.5814 30.224 49.41 31.3953 47.9651 31.3953C46.5202 31.3953 45.3488 30.224 45.3488 28.7791C45.3488 25.8339 42.3017 22.6744 37.5 22.6744C32.6983 22.6744 29.6512 25.8339 29.6512 28.7791C29.6512 31.7243 32.6983 34.8837 37.5 34.8837C44.2577 34.8837 50.5814 39.533 50.5814 46.2209C50.5814 52.034 45.8037 56.3069 40.1163 57.3255V58.4302C40.1163 59.8751 38.9449 61.0465 37.5 61.0465C36.0551 61.0465 34.8837 59.8751 34.8837 58.4302V57.3255C29.1962 56.3069 24.4186 52.034 24.4186 46.2209C24.4186 44.776 25.59 43.6047 27.0349 43.6047C28.4798 43.6047 29.6512 44.776 29.6512 46.2209C29.6512 49.1662 32.6983 52.3256 37.5 52.3256C42.3017 52.3256 45.3488 49.1662 45.3488 46.2209C45.3488 43.2757 42.3017 40.1163 37.5 40.1163C30.7423 40.1163 24.4186 35.467 24.4186 28.7791C24.4186 22.9661 29.1962 18.693 34.8837 17.6746V16.5698C34.8837 15.1248 36.0551 13.9535 37.5 13.9535Z" fill="#FFE816"></path></svg>