<svg width="79" height="118" viewBox="0 0 79 118" fill="none" xmlns="http://www.w3.org/2000/svg">
<path d="M2.0982 14.7561C11.1457 5.93114 24.8841 4.04041 36.3767 8.83551C41.7956 11.1202 46.6169 14.656 50.5879 18.9708C54.7933 23.5477 59.2717 29.6535 59.4073 36.1339C59.4751 39.3741 58.2519 42.3728 55.6712 44.3596C53.3525 46.1121 48.854 47.1352 47.3611 43.7357C45.5337 39.7299 51.345 38.3818 54.1951 38.7005C57.5416 39.0469 60.6527 40.7544 63.0355 43.0187C72.0404 51.6978 72.9942 68.4809 70.0263 79.8864C66.5513 93.5937 55.9073 103.544 42.0071 106.014C39.9239 106.405 40.1197 109.493 42.2971 109.376C58.4256 108.196 70.6683 93.8737 73.8884 78.8476C76.9069 64.7562 74.0362 41.2936 57.9182 36.0506C52.9099 34.4362 43.74 35.2978 43.4216 42.2408C43.0789 48.9035 51.4096 50.5842 56.1315 48.0599C71.9637 39.3553 56.2278 18.9077 46.9476 11.9459C33.2967 1.76229 13.0741 0.472331 0.886846 13.8021C0.240773 14.4929 1.38208 15.453 2.0982 14.7561Z" fill="black"/>
<path d="M52.6338 112.224C45.2198 110.535 37.7417 108.922 30.3398 107.373C30.6224 108.195 30.9111 109.088 31.2638 109.904C36.7428 104.704 42.7664 100.091 49.1186 96.0149C48.2358 95.5971 47.3529 95.1793 46.4701 94.7615C47.1611 99.5004 48.1964 104.139 49.7859 108.659C49.8801 108.933 50.6882 111.757 50.9684 111.733C52.3149 110.982 52.4888 110.543 51.42 110.424C50.7714 110.268 50.1169 110.042 49.4683 109.886C46.9382 109.187 44.338 108.494 41.8079 107.795C41.7705 108.998 41.6571 110.137 41.6197 111.34C43.6631 111.304 45.7705 111.193 47.8139 111.158C50.1375 111.099 49.7714 107.673 47.5057 107.586C43.4008 107.446 39.4179 107.084 35.3528 106.588C35.4495 107.708 35.5522 108.899 35.6489 110.02C38.8286 109.252 42.0084 108.483 45.1882 107.715C47.3294 107.178 46.2351 104.308 44.3958 104.255C40.367 104.179 36.8757 106.245 32.9592 106.653C33.336 107.75 33.7829 108.84 34.1598 109.937C38.5592 106.946 42.8125 103.898 47.2059 100.837C48.9364 99.6295 47.4677 96.5102 45.4328 97.4619C42.0514 99.1649 39.1386 101.392 36.5483 104.085C37.6135 104.981 38.6026 105.813 39.6679 106.709C40.826 105.41 42.0601 104.174 43.5165 103.061C44.1107 102.586 44.7749 102.105 45.3751 101.701C46.8037 101.084 46.6395 100.816 44.9403 100.75C43.5237 101.508 43.9491 107.257 44.0639 108.588C45.5349 108.461 47.0058 108.335 48.4767 108.208C48.2653 105.756 48.1299 103.369 47.9184 100.917C47.6647 97.9751 43.5441 98.4716 43.4355 101.304C43.3174 104.842 45.7779 113.733 50.7788 112.808C51.8235 112.647 52.6157 112.014 52.8052 110.939C53.6117 107.2 51.1707 100.989 47.1273 99.9267C44.0948 99.1298 37.972 101.775 39.5011 105.595C39.7717 106.277 40.4625 106.923 41.2511 107.067C44.4636 107.495 47.0262 105.298 48.4137 102.568C49.4413 100.574 46.8483 98.3278 44.9897 99.6877C43.4693 100.877 42.025 102.131 40.7389 103.583C39.0048 105.567 41.6401 108.303 43.7788 106.919C46.9199 104.884 47.9728 101.547 48.9496 98.1465C49.8347 95.3181 45.2491 94.514 44.4341 97.3364C43.7808 99.5803 43.1276 101.824 41.129 103.196C42.1423 104.308 43.1556 105.421 44.1689 106.533C45.199 105.386 46.3112 104.372 47.4995 103.423C46.3582 102.463 45.2169 101.503 44.0756 100.543C43.7737 101.133 42.7738 102.631 41.8451 102.499C42.4538 103.011 42.9864 103.459 43.5951 103.971C44.2557 104.267 44.9864 104.557 45.7049 104.707C46.6276 104.768 47.1602 105.216 47.3149 106.191C47.9658 107.193 48.4092 109.06 48.2256 110.205C48.8778 109.584 49.5999 108.958 50.252 108.337C49.8378 108.443 48.3631 105.254 48.2689 104.98C47.8038 103.679 47.689 102.348 47.7844 100.999C46.3134 101.126 44.7724 101.259 43.3015 101.386C43.513 103.837 43.7184 106.219 43.9299 108.67C44.1715 111.472 48.5904 111.162 48.3427 108.29C48.1977 106.609 48.1928 104.916 48.6142 103.256C48.8677 102.105 49.4075 101 49.4509 99.8674C49.4762 98.5245 49.0051 97.1538 47.6259 96.7082C45.8784 96.0827 44.23 97.4246 42.9016 98.3859C40.5068 100.074 38.4165 102.019 36.4903 104.231C34.7562 106.216 37.8697 108.77 39.6099 106.856C41.7981 104.409 44.3208 102.568 47.1479 100.983C46.4208 99.9171 45.6998 98.9208 44.9027 97.8605C40.7376 101.113 36.3381 104.103 32.0088 107.088C30.5463 108.131 31.3942 110.599 33.2094 110.371C37.1259 109.963 40.6812 107.822 44.6399 107.904C44.3971 106.725 44.0903 105.622 43.8475 104.444C40.6677 105.212 37.488 105.98 34.3082 106.748C32.5812 107.18 32.963 109.969 34.6042 110.181C39.0896 110.64 43.4228 110.972 47.8139 111.158C47.7112 109.967 47.6085 108.777 47.5057 107.586C45.4623 107.621 43.355 107.732 41.3116 107.767C39.1981 107.808 39.3178 110.832 41.1233 111.312C44.3781 112.231 48.0435 113.82 51.3839 114.096C52.809 114.256 53.9877 114.013 54.4212 112.493C55.0865 110.39 53.1396 107.453 52.474 105.464C51.2432 101.83 50.3626 98.1658 49.7562 94.4075C49.5774 93.1527 48.2501 92.491 47.1077 93.154C40.5695 97.5286 34.4939 102.357 28.829 107.856C27.9849 108.705 28.6782 110.198 29.753 110.387C37.2129 111.79 44.7308 113.047 52.2426 114.234C53.6037 114.469 53.9308 112.536 52.6338 112.224Z" fill="black"/>
</svg>
