<svg width="40" height="27" viewBox="0 0 40 27" fill="none" xmlns="http://www.w3.org/2000/svg">
<g clip-path="url(#clip0_86_958)">
<path d="M10.4205 0C11.1674 0.0574713 11.9262 0.091954 12.673 0.183908C13.3607 0.275862 13.8704 0.666667 14.2261 1.22988C14.5106 1.67816 14.7596 2.16092 15.056 2.5977C15.139 2.72414 15.3405 2.83908 15.4946 2.83908C18.5059 2.85057 21.529 2.85057 24.5403 2.83908C24.6825 2.83908 24.8841 2.71264 24.9789 2.58621C25.2516 2.1954 25.4887 1.78161 25.7139 1.36782C26.1644 0.574713 26.8758 0.149425 27.8005 0.103448C28.9623 0.0574713 30.136 0.0574713 31.2978 0.0574713C32.0921 0.0574713 32.7323 0.448276 33.3014 0.965517C34.4276 2 35.1508 3.29885 35.791 4.64368C37.2374 7.67816 38.1739 10.8621 38.8971 14.1149C39.4899 16.7586 39.9404 19.4368 39.9997 22.1494C40.0115 22.6552 40.0115 23.1609 39.9641 23.6552C39.9285 23.977 39.8218 24.2988 39.6677 24.5862C38.7786 26.2644 36.2297 27.3333 34.3565 26.8621C33.6452 26.6782 33.0761 26.2989 32.5901 25.7701C30.9066 23.9195 29.2113 22.0805 27.5278 20.2299C27.3144 20 27.1129 19.8851 26.7691 19.8851C22.264 19.8966 17.7471 19.8966 13.2421 19.8851C12.9339 19.8851 12.7205 19.977 12.5189 20.2069C10.8473 22.046 9.152 23.8621 7.49225 25.7126C6.46083 26.8621 5.1686 27.2299 3.69853 26.8391C2.92793 26.6322 2.18105 26.2759 1.51715 25.8391C0.521295 25.2184 0.0115142 24.2988 -0.000341211 23.092C-0.0240519 20.4943 0.319754 17.9425 0.829534 15.4138C1.51715 11.9885 2.43001 8.62069 3.87636 5.42529C4.40985 4.24138 5.12118 3.12644 5.80879 2C6.05775 1.58621 6.43712 1.24138 6.80464 0.908046C7.43297 0.321839 8.19172 0.0114943 9.09272 0.045977C9.53137 0.0689655 9.98188 0.045977 10.4205 0.045977C10.4205 0.0344828 10.4205 0.0114943 10.4205 0ZM19.9997 18.908C22.3707 18.908 24.73 18.9195 27.101 18.8966C27.5278 18.8966 27.8123 19.023 28.0969 19.3333C29.8278 21.2529 31.5824 23.1494 33.3251 25.069C33.7756 25.5632 34.2972 25.8966 34.9848 25.977C36.3364 26.1494 38.2095 25.1724 38.7904 23.977C38.8615 23.8391 38.909 23.6782 38.9208 23.5287C38.9445 23.069 38.9682 22.6092 38.9564 22.1494C38.8615 18.9885 38.2806 15.8851 37.5219 12.8161C36.7987 9.89655 35.9214 7.03448 34.4751 4.36782C33.989 3.45977 33.3251 2.64368 32.6968 1.81609C32.3767 1.4023 31.9024 1.08046 31.3452 1.08046C30.1597 1.06897 28.986 1.09195 27.8005 1.12644C27.3026 1.13793 26.9232 1.4023 26.6624 1.83908C26.0459 2.85057 25.4531 3.85057 25.2872 5.05747C25.1686 5.97701 24.5521 6.48276 23.6037 6.54023C22.513 6.6092 21.4223 6.6092 20.3198 6.6092C19.0749 6.6092 17.8301 6.63218 16.5972 6.55172C15.4235 6.47126 14.9019 5.97701 14.7122 4.86207C14.5699 4.02299 14.3209 3.25287 13.823 2.55172C13.6807 2.35632 13.5622 2.13793 13.4436 1.91954C13.1828 1.4023 12.756 1.13793 12.1751 1.11494C11.2504 1.08046 10.3138 1.11494 9.38911 1.04598C8.3814 0.965517 7.65822 1.4023 7.0536 2.10345C6.09332 3.21839 5.42942 4.49425 4.8485 5.81609C3.36658 9.2069 2.41815 12.7471 1.75425 16.3678C1.32746 18.5287 1.0785 20.6897 1.04293 22.8736C1.03108 23.8736 1.48158 24.5632 2.25218 25.1264C2.46557 25.2759 2.69083 25.4368 2.92793 25.5402C4.32687 26.1954 5.69023 26.2529 6.89948 24.8621C8.53552 22.9655 10.2901 21.1494 11.9736 19.2874C12.2225 19.0115 12.4834 18.908 12.8509 18.908C15.2338 18.908 17.6167 18.908 19.9997 18.908ZM24.4454 3.90805C21.4816 3.90805 18.5296 3.90805 15.5895 3.90805C15.4709 5.08046 15.9214 5.5977 17.107 5.6092C19.0157 5.62069 20.9125 5.62069 22.8212 5.6092C23.9594 5.6092 24.1965 5.4023 24.398 4.31034C24.4336 4.18391 24.4336 4.05747 24.4454 3.90805Z" fill="white"/>
<path d="M8.58329 9.72437C8.58329 9.40253 8.58329 9.13816 8.58329 8.8738C8.607 7.75885 9.43688 6.91977 10.5157 6.93127C11.5827 6.94276 12.377 7.74736 12.4126 8.85081C12.4244 9.11518 12.4126 9.39104 12.4126 9.72437C12.7682 9.72437 13.0883 9.71288 13.4084 9.72437C14.4636 9.74736 15.2934 10.5635 15.2934 11.5635C15.2934 12.5405 14.4873 13.3681 13.4558 13.4255C13.1358 13.437 12.8038 13.4255 12.4007 13.4255C12.4007 13.7129 12.4007 13.9772 12.4007 14.2416C12.377 15.391 11.6064 16.1956 10.5157 16.2071C9.40131 16.2186 8.59515 15.391 8.58329 14.2416C8.58329 13.9887 8.58329 13.7359 8.58329 13.437C8.23949 13.437 7.95496 13.437 7.65857 13.437C6.54417 13.414 5.71429 12.6094 5.71429 11.5635C5.72615 10.5405 6.55603 9.74736 7.65857 9.73587C7.9431 9.72437 8.23949 9.72437 8.58329 9.72437ZM9.62656 13.6554C9.62656 13.8393 9.62656 14.0232 9.62656 14.2186C9.63842 14.8278 9.95851 15.1956 10.492 15.1956C11.0255 15.1956 11.3456 14.8393 11.3574 14.2186C11.3693 13.8163 11.3456 13.414 11.3574 13.0117C11.3693 12.5864 11.5471 12.4255 11.9858 12.414C12.4244 12.4025 12.8749 12.414 13.3136 12.414C13.8471 12.4025 14.2027 12.0807 14.2146 11.5979C14.2264 11.1037 13.8708 10.7703 13.3017 10.7589C12.8631 10.7474 12.4126 10.7589 11.9739 10.7474C11.5708 10.7359 11.3456 10.552 11.3456 10.1382C11.3574 9.72437 11.3574 9.31058 11.3456 8.89679C11.3219 8.32207 10.9781 7.95426 10.4683 7.95426C9.97037 7.95426 9.61471 8.33357 9.60285 8.89679C9.591 9.2646 9.60285 9.64391 9.60285 10.0117C9.60285 10.5864 9.43688 10.7359 8.83226 10.7474C8.40546 10.7474 7.97867 10.7359 7.55188 10.7589C7.06581 10.7818 6.75757 11.1037 6.74571 11.5635C6.73386 12.0347 7.05395 12.3795 7.55188 12.414C7.80084 12.4255 8.0498 12.414 8.31062 12.414C9.62656 12.4025 9.62656 12.4025 9.62656 13.6554Z" fill="white"/>
<path d="M30.1363 8.91952C30.1482 10.1379 29.1405 11.1379 27.8838 11.1609C26.639 11.1839 25.5839 10.1954 25.572 8.97699C25.5602 7.73562 26.5679 6.72412 27.8483 6.72412C29.1168 6.72412 30.1363 7.70113 30.1363 8.91952ZM27.8601 7.74711C27.1607 7.74711 26.6272 8.26435 26.6272 8.94251C26.6272 9.60918 27.1844 10.1494 27.8601 10.1494C28.5359 10.1494 29.0931 9.60918 29.0931 8.94251C29.0931 8.26435 28.5596 7.74711 27.8601 7.74711Z" fill="white"/>
<path d="M32.4007 13.7931C31.144 13.7931 30.1245 12.8046 30.1245 11.5862C30.1245 10.3678 31.1322 9.37927 32.3889 9.36777C33.6692 9.35628 34.7007 10.3563 34.6888 11.5977C34.6769 12.816 33.6574 13.7931 32.4007 13.7931ZM32.4126 12.7701C33.1002 12.7701 33.6574 12.2298 33.6455 11.5747C33.6337 10.9195 33.0646 10.3678 32.3889 10.3793C31.7131 10.3793 31.1678 10.9195 31.1678 11.5977C31.1796 12.2643 31.7012 12.7701 32.4126 12.7701Z" fill="white"/>
<path d="M25.572 14.207C25.572 12.9886 26.5797 11.9886 27.8364 11.9771C29.1049 11.9657 30.1482 12.9771 30.1363 14.2185C30.1363 15.4369 29.0931 16.4369 27.8483 16.4254C26.6034 16.4254 25.5839 15.4254 25.572 14.207ZM27.872 15.4139C28.5596 15.4024 29.0931 14.8737 29.0931 14.1955C29.0812 13.5174 28.5477 13.0001 27.8483 13.0116C27.1606 13.0116 26.6272 13.5519 26.6272 14.2185C26.639 14.8852 27.1844 15.4139 27.872 15.4139Z" fill="white"/>
</g>
<defs>
<clipPath id="clip0_86_958">
<rect width="40" height="27" fill="white"/>
</clipPath>
</defs>
</svg>
