<svg width="41" height="40" viewBox="0 0 41 40" fill="none" xmlns="http://www.w3.org/2000/svg">
<path d="M41 34.221C40.7646 34.3828 40.5506 34.62 40.2938 34.6847C33.8528 36.4421 27.4011 38.1779 20.9601 39.9245C20.5642 40.0324 20.2111 40 19.8259 39.8922C13.4812 38.0809 7.11507 36.2696 0.759637 34.4582C0.556349 34.4043 0.342361 34.3289 0.19257 34.1887C-0.107012 33.9084 -0.010718 33.5957 0.171171 33.2723C1.17691 31.5256 2.17195 29.779 3.1777 28.0431C3.50938 27.4609 3.84106 26.8787 4.17274 26.2965C4.45092 25.8113 4.64351 25.7359 5.19988 25.8868C10.1002 27.2776 14.9898 28.6685 19.8901 30.0593C20.1148 30.124 20.393 30.1132 20.6177 30.0485C25.5929 28.6469 30.5681 27.2237 35.5433 25.8113C36.1853 25.628 36.3351 25.6927 36.6774 26.2857C38.1218 28.7979 39.5556 31.31 41 33.8221C41 33.9515 41 34.0917 41 34.221ZM39.3951 33.6065C38.1326 31.407 36.9021 29.2615 35.6717 27.1159C30.7821 28.5068 25.9246 29.8868 21.0884 31.2669C21.0884 33.7035 21.0884 36.097 21.0884 38.5445C27.1871 36.9057 33.2429 35.2669 39.3951 33.6065ZM1.60489 33.3585C7.69283 35.0944 13.7166 36.8086 19.7831 38.5337C19.7831 38.3504 19.7831 38.221 19.7831 38.0917C19.7831 35.9892 19.7724 33.8976 19.7938 31.7952C19.7938 31.4933 19.7189 31.3531 19.4086 31.2669C15.9527 30.2965 12.5075 29.3046 9.06235 28.3235C7.75703 27.9569 6.4517 27.5795 5.13568 27.2022C3.95875 29.2615 2.80322 31.2776 1.60489 33.3585Z" fill="white"/>
<path d="M35.1474 23.7199C35.1046 24.1943 34.8479 24.3668 34.4948 24.4638C33.1253 24.852 31.7557 25.2401 30.3755 25.6283C27.1871 26.5339 23.988 27.4396 20.7996 28.356C20.393 28.4746 20.0399 28.4638 19.6333 28.356C15.2145 27.0838 10.7957 25.8331 6.36612 24.5717C5.61717 24.356 5.46738 24.011 5.85255 23.3318C7.36117 20.6903 8.88048 18.0487 10.3891 15.4072C10.7101 14.8466 10.8706 14.7819 11.5018 14.9652C14.4228 15.7954 17.3437 16.6256 20.2753 17.4558C20.4786 17.5097 20.7247 17.5204 20.928 17.4558C23.7419 16.6687 26.5451 15.8708 29.3484 15.0622C30.001 14.8789 30.1508 14.9328 30.4825 15.5151C31.9483 18.0703 33.4141 20.6363 34.88 23.1916C35.0083 23.3857 35.0939 23.5797 35.1474 23.7199ZM19.751 27.0407C19.7617 26.976 19.7831 26.9328 19.7831 26.8897C19.7831 24.2266 19.7831 21.5636 19.7938 18.9005C19.7938 18.6525 19.6547 18.6202 19.4836 18.577C16.8943 17.8439 14.3051 17.1107 11.7158 16.3668C11.4483 16.2913 11.3413 16.356 11.2129 16.5824C10.5175 17.8223 9.81132 19.0514 9.10516 20.2806C8.4953 21.3372 7.89614 22.3938 7.26487 23.4827C11.4483 24.6795 15.5997 25.8547 19.751 27.0407ZM29.5196 16.3884C29.434 16.4099 29.3698 16.4099 29.3056 16.4315C26.6628 17.1862 24.0201 17.9409 21.3773 18.6741C21.1206 18.7496 21.0564 18.8682 21.0564 19.1161C21.0671 21.5744 21.0671 24.0434 21.0671 26.5016C21.0671 26.631 21.0778 26.7496 21.0885 26.9328C25.2505 25.7469 29.3698 24.5717 33.5318 23.3857C32.1837 21.0137 30.857 18.7064 29.5196 16.3884Z" fill="white"/>
<path d="M20.4144 0C21.2597 0.032345 21.8588 0.431267 22.2761 1.15364C23.3354 3.01887 24.4053 4.87332 25.4752 6.73854C26.5666 8.6469 27.6579 10.5553 28.7492 12.4636C29.1558 13.1752 29.0274 13.5094 28.2571 13.7358C25.8497 14.4259 23.4423 15.1159 21.0243 15.7844C20.7675 15.8598 20.4679 15.8491 20.2111 15.7844C17.6968 15.0836 15.1824 14.3612 12.6681 13.6496C11.887 13.4232 11.7372 13.0889 12.1438 12.3881C14.2837 8.65768 16.4236 4.91644 18.5634 1.18598C18.9807 0.442049 19.5799 0.032345 20.4144 0ZM21.0885 14.4259C23.2177 13.8221 25.2719 13.2291 27.3797 12.6361C25.2826 8.97035 23.207 5.35849 21.0885 1.66038C21.0885 5.96226 21.0885 10.1456 21.0885 14.4259ZM19.7618 14.3181C19.7618 10.124 19.7618 5.97305 19.7618 1.8221C19.7404 1.8221 19.7083 1.81132 19.6869 1.81132C17.6433 5.38005 15.5997 8.93801 13.5347 12.5499C15.6425 13.1429 17.6968 13.7358 19.7618 14.3181Z" fill="white"/>
</svg>
