<svg width="40" height="40" viewBox="0 0 40 40" fill="none" xmlns="http://www.w3.org/2000/svg">
<g clip-path="url(#clip0_86_972)">
<path d="M8.35899 40.0001C5.77094 38.4444 3.18289 36.8991 0.60527 35.3434C0.208714 35.1033 0.0104357 34.7274 0.0104357 34.268C0 31.4175 0 28.5775 0 25.748C0 25.2573 0.229585 24.8709 0.647013 24.6204C3.08896 23.1482 5.52048 21.676 7.96243 20.2038C8.44247 19.9114 8.92252 19.9427 9.40256 20.2246C10.2061 20.7154 10.9992 21.1957 11.8132 21.6655C11.9176 21.7282 12.1263 21.7595 12.2202 21.7073C13.8273 20.6527 15.424 19.5773 17.0728 18.481C16.958 18.3974 16.8745 18.3243 16.7806 18.2721C15.2465 17.3429 13.7125 16.4032 12.168 15.4948C11.5732 15.1502 11.3227 14.6804 11.3227 13.9913C11.3436 11.3079 11.3332 8.62453 11.3227 5.94116C11.3227 5.28337 11.5836 4.8344 12.1367 4.50028C14.4847 3.10117 16.8223 1.69161 19.1495 0.27162C19.7235 -0.0833786 20.2557 -0.0833786 20.8296 0.27162C23.1777 1.70206 25.5257 3.11161 27.8842 4.52116C28.4268 4.84484 28.6668 5.30425 28.6668 5.94116C28.6564 8.63497 28.6564 11.3288 28.6668 14.033C28.6668 14.6804 28.4164 15.1398 27.8529 15.4739C26.3397 16.3719 24.8474 17.2802 23.3446 18.1886C23.209 18.2721 23.0837 18.3557 22.9168 18.4496C23.042 18.5436 23.1255 18.6063 23.2194 18.6689C24.7013 19.6608 26.1831 20.6423 27.665 21.6446C27.8737 21.7804 28.0094 21.7804 28.2181 21.6551C28.9903 21.1748 29.773 20.7154 30.5557 20.2351C31.0566 19.9218 31.5575 19.901 32.0584 20.2142C34.4795 21.676 36.9006 23.1168 39.3008 24.5995C39.593 24.777 39.76 25.1633 39.9896 25.4556C39.9896 28.4731 39.9896 31.5011 39.9896 34.5186C39.7809 34.79 39.6348 35.1659 39.3634 35.333C36.7962 36.9096 34.2082 38.4444 31.6306 39.9897C31.4219 39.9897 31.2132 39.9897 31.0044 39.9897C30.7853 39.8644 30.5557 39.7391 30.3366 39.6034C28.072 38.246 25.8283 36.8678 23.5534 35.5209C22.9063 35.145 22.6141 34.6438 22.6454 33.8921C22.6768 33.2134 22.6559 32.5347 22.6559 31.8665C22.6559 31.689 22.6559 31.5115 22.6559 31.334C20.8505 31.334 19.1077 31.334 17.3337 31.334C17.3337 32.2841 17.3337 33.203 17.3337 34.1322C17.3337 34.6647 17.125 35.0928 16.6658 35.3747C14.1091 36.9096 11.5419 38.4444 8.98513 39.9897C8.77642 40.0001 8.5677 40.0001 8.35899 40.0001ZM22.6559 29.9767C22.6559 28.7028 22.6976 27.4603 22.6454 26.2283C22.6037 25.3408 22.9376 24.7665 23.7203 24.3384C24.7117 23.8059 25.6509 23.1899 26.6528 22.5843C26.5693 22.5217 26.5275 22.4695 26.4753 22.4382C24.9413 21.4149 23.3968 20.3917 21.8732 19.358C21.6645 19.2223 21.5184 19.2536 21.3514 19.3789C20.4644 20.1098 19.5774 20.1411 18.6799 19.3998C18.4712 19.2223 18.2938 19.2432 18.0642 19.3998C16.6032 20.3917 15.1213 21.3627 13.6499 22.3442C13.556 22.4068 13.4725 22.4799 13.3472 22.5739C14.4326 23.2317 15.4761 23.879 16.5406 24.4951C17.0937 24.8187 17.3441 25.2677 17.3441 25.9046C17.3337 27.1158 17.3441 28.327 17.3441 29.5381C17.3441 29.6739 17.3441 29.8096 17.3441 29.9558C19.1286 29.9767 20.8714 29.9767 22.6559 29.9767ZM13.1072 5.48175C15.33 6.82865 17.5111 8.1338 19.6713 9.44938C19.9217 9.606 20.0991 9.58511 20.3392 9.43894C22.3011 8.23821 24.2734 7.05836 26.2458 5.86807C26.444 5.74278 26.6528 5.61748 26.8615 5.48175C26.7989 5.42954 26.7675 5.39822 26.7362 5.37734C24.5552 4.06175 22.3741 2.74617 20.1931 1.42015C19.9843 1.29485 19.8696 1.36794 19.7026 1.46191C18.4503 2.22411 17.1876 2.98632 15.9353 3.74852C15.017 4.32278 14.0777 4.8866 13.1072 5.48175ZM38.1946 25.5078C38.1424 25.4556 38.1111 25.4139 38.059 25.393C35.8779 24.0774 33.6968 22.7514 31.5158 21.4567C31.4114 21.394 31.1923 21.4149 31.0775 21.488C29.6582 22.3337 28.2494 23.1899 26.8406 24.0461C26.0579 24.5264 25.2648 24.9962 24.4613 25.487C24.503 25.5287 24.5239 25.5496 24.5447 25.5601C26.7362 26.8861 28.9277 28.2121 31.1192 29.5172C31.234 29.5799 31.4532 29.5695 31.568 29.4964C32.3611 29.0474 33.1333 28.5671 33.9056 28.0973C35.3352 27.2306 36.7545 26.3745 38.1946 25.5078ZM15.5283 25.5078C15.4761 25.4452 15.4553 25.4243 15.4344 25.4139C13.2429 24.0879 11.0514 22.7723 8.8599 21.4358C8.65119 21.3105 8.52596 21.394 8.36942 21.488C6.89799 22.3755 5.437 23.263 3.96556 24.1505C3.2455 24.589 2.52544 25.0276 1.80537 25.4556C1.82625 25.4974 1.82625 25.5078 1.82625 25.5078C4.03861 26.8443 6.25098 28.1912 8.46334 29.5172C8.55727 29.5799 8.76598 29.5486 8.87034 29.4859C9.41299 29.1831 9.94521 28.849 10.4774 28.5253C12.1785 27.5334 13.8377 26.5206 15.5283 25.5078ZM15.9875 26.8234C15.904 26.8652 15.8414 26.8756 15.7892 26.907C13.7125 28.1599 11.6254 29.4128 9.54866 30.6867C9.43386 30.7597 9.33994 30.979 9.33994 31.1252C9.32951 33.3805 9.32951 35.6253 9.32951 37.8806C9.32951 37.985 9.33994 38.079 9.35038 38.2147C9.45474 38.173 9.52779 38.1521 9.57996 38.1103C11.6462 36.8574 13.7229 35.6149 15.7788 34.341C15.904 34.268 15.9979 34.0278 15.9979 33.8712C16.0084 31.6472 16.0084 29.4233 15.9979 27.1993C16.0084 27.0845 15.9979 26.9696 15.9875 26.8234ZM23.9917 26.7921C23.9917 29.2458 23.9917 31.6264 24.0021 34.0069C24.0021 34.1427 24.1586 34.3202 24.2839 34.4037C26.0684 35.4896 27.8633 36.565 29.6582 37.6509C29.9713 37.8388 30.2739 38.0268 30.6183 38.2252C30.6392 38.0894 30.6496 38.0059 30.6496 37.9119C30.6496 35.6358 30.6496 33.3491 30.6601 31.073C30.6601 30.8119 30.5244 30.7075 30.3366 30.6031C28.3225 29.392 26.3084 28.1703 24.2943 26.9487C24.2212 26.9174 24.1273 26.8652 23.9917 26.7921ZM27.3311 6.79733C27.1745 6.88086 27.0911 6.92262 27.018 6.96439C25.0039 8.186 22.9898 9.40761 20.9653 10.6083C20.7357 10.7441 20.6522 10.9007 20.6522 11.1617C20.6627 13.3752 20.6627 15.5888 20.6627 17.8023C20.6627 17.9276 20.6731 18.0529 20.6835 18.2095C20.767 18.1782 20.8192 18.1573 20.8609 18.1364C22.9585 16.873 25.0457 15.6096 27.1328 14.3254C27.2476 14.2523 27.3206 14.033 27.3206 13.8764C27.3311 11.7882 27.3206 9.71041 27.3206 7.62218C27.3311 7.37159 27.3311 7.11056 27.3311 6.79733ZM32.0063 38.2252C32.1211 38.1834 32.1628 38.1625 32.2045 38.1416C34.3021 36.8782 36.3893 35.6149 38.4764 34.3306C38.5807 34.268 38.6642 34.0591 38.6642 33.913C38.6747 31.6368 38.6642 29.3502 38.6642 27.074C38.6642 26.9905 38.6434 26.9174 38.6329 26.813C38.539 26.8652 38.4868 26.8861 38.4242 26.9278C36.3684 28.1703 34.3021 29.4233 32.2358 30.6553C32.0271 30.7806 31.9958 30.9268 31.9958 31.1356C31.9958 32.9106 31.9958 34.6752 31.9958 36.4502C32.0063 37.0244 32.0063 37.5882 32.0063 38.2252ZM1.3462 26.8026C1.33577 26.907 1.32533 26.9696 1.32533 27.0218C1.32533 29.3397 1.33577 31.6577 1.32533 33.9652C1.32533 34.2158 1.45056 34.2993 1.62797 34.4037C3.62118 35.6044 5.6144 36.8052 7.60762 37.9954C7.71198 38.0581 7.82677 38.1103 7.97287 38.1938C7.9833 38.0999 8.00417 38.0372 8.00417 37.9746C8.00417 35.6566 8.01461 33.3387 7.99374 31.0312C7.99374 30.885 7.82677 30.6971 7.6911 30.6031C5.70832 29.392 3.71511 28.1912 1.72189 26.9905C1.59666 26.9383 1.4923 26.8861 1.3462 26.8026ZM19.3269 18.2408C19.3269 18.0216 19.3269 17.8858 19.3269 17.7605C19.3269 15.5783 19.3165 13.3857 19.3373 11.2035C19.3373 10.9007 19.2434 10.7441 18.993 10.5875C16.9684 9.38673 14.9648 8.16512 12.9507 6.94351C12.8672 6.8913 12.7733 6.85998 12.6689 6.80777C12.6689 9.251 12.6689 11.642 12.6794 14.033C12.6794 14.1583 12.8359 14.3149 12.9507 14.3985C14.203 15.1711 15.4657 15.9229 16.718 16.6746C17.5633 17.1863 18.4086 17.6874 19.3269 18.2408Z" fill="white"/>
</g>
<defs>
<clipPath id="clip0_86_972">
<rect width="40" height="40" fill="white"/>
</clipPath>
</defs>
</svg>
