<svg width="40" height="40" viewBox="0 0 40 40" fill="none" xmlns="http://www.w3.org/2000/svg">
<g clip-path="url(#clip0_86_976)">
<path d="M36.6096 24.3125C36.8229 24.8403 37.0025 25.3456 37.2383 25.8397C37.2944 25.952 37.474 26.0531 37.6088 26.0643C38.1589 26.0868 38.6977 26.0643 39.2478 26.0755C39.7755 26.0868 39.9888 26.2889 39.9888 26.8167C40 28.0407 40 29.2535 39.9888 30.4775C39.9888 30.9829 39.7755 31.185 39.2703 31.185C38.7202 31.185 38.1813 31.1962 37.6312 31.185C37.373 31.1738 37.272 31.2749 37.1934 31.5107C37.0699 31.8925 36.9127 32.2743 36.7219 32.6336C36.5984 32.8695 36.6096 33.0267 36.8117 33.2064C37.2046 33.5657 37.5751 33.9475 37.9455 34.3293C38.3272 34.7224 38.3272 34.9919 37.9455 35.3737C37.0923 36.2384 36.2279 37.103 35.3635 37.9565C34.993 38.3158 34.7235 38.3158 34.3531 37.9677C33.9489 37.5747 33.556 37.1816 33.1631 36.7774C33.0171 36.6202 32.8936 36.5977 32.6915 36.6988C32.2874 36.8897 31.872 37.0693 31.4566 37.2153C31.2433 37.2939 31.176 37.395 31.1872 37.6084C31.1984 38.1699 31.1984 38.7313 31.1872 39.2928C31.176 39.7757 30.9739 40.0003 30.5024 40.0003C29.2562 40.0115 28.0101 40.0115 26.764 40.0003C26.3149 40.0003 26.0904 39.7757 26.0791 39.3265C26.0679 38.7987 26.0567 38.2597 26.0791 37.7319C26.1016 37.4062 25.9781 37.2715 25.675 37.1704C25.2933 37.0469 24.934 36.8448 24.5523 36.7212C24.4288 36.6763 24.2268 36.71 24.137 36.7886C23.7328 37.1592 23.3623 37.5522 22.9694 37.934C22.5652 38.3383 22.2958 38.3383 21.9029 37.9453C21.0497 37.0918 20.1965 36.2496 19.3432 35.3849C18.9503 34.9919 18.9503 34.7111 19.3545 34.3069C19.7249 33.925 20.0954 33.5432 20.4883 33.1839C20.6567 33.0267 20.6904 32.9032 20.5782 32.6786C20.3873 32.2968 20.2189 31.8925 20.0842 31.477C20.0056 31.2636 19.9158 31.1626 19.6688 31.1738C19.1187 31.1962 18.5798 31.185 18.0297 31.1738C17.5133 31.1738 17.3112 30.9829 17.3112 30.4775C17.3112 29.2423 17.3112 28.007 17.3112 26.783C17.3112 26.2777 17.5133 26.0755 18.0297 26.0643C18.5574 26.0531 19.0963 26.0531 19.6239 26.0643C19.8821 26.0755 20.0281 26.0081 20.1066 25.7386C20.2077 25.3905 20.3424 25.0424 20.522 24.728C20.7129 24.3911 20.6567 24.1889 20.3761 23.9531C19.9944 23.6275 19.6576 23.2569 19.2983 22.8863C18.984 22.5606 18.9728 22.2574 19.2983 21.9318C20.1852 21.0334 21.0721 20.1463 21.9702 19.2591C22.2734 18.9559 22.5765 18.9559 22.8908 19.2591C23.3062 19.6522 23.7104 20.0564 24.1033 20.4832C24.2717 20.6628 24.3952 20.6628 24.6085 20.5618C25.0014 20.3709 25.4056 20.2137 25.8097 20.0677C26.023 19.9891 26.0904 19.888 26.0791 19.6746C26.0679 19.1468 26.0679 18.6078 26.0791 18.08C26.0791 17.4848 26.27 17.2939 26.8538 17.2939C28.055 17.2939 29.2675 17.2939 30.4687 17.2939C31.0076 17.2939 31.1872 17.4848 31.1984 18.0351C31.1984 18.5854 31.2097 19.1244 31.1984 19.6746C31.1872 19.8992 31.277 19.9891 31.4791 20.0677C31.8945 20.2249 32.3098 20.3933 32.714 20.5842C32.9161 20.6853 33.0283 20.6628 33.1855 20.5056C33.5672 20.1014 33.9714 19.7083 34.3755 19.3153C34.7235 18.9784 35.0154 18.9672 35.3635 19.3041C36.2503 20.18 37.1372 21.0559 38.0129 21.9542C38.3497 22.3024 38.3497 22.5831 38.0017 22.9312C37.5638 23.3804 37.1148 23.8296 36.677 24.2788C36.6208 24.29 36.6208 24.3125 36.6096 24.3125ZM20.4996 34.7897C21.1844 35.4747 21.8131 36.1036 22.4754 36.7661C22.8571 36.3731 23.2837 35.9688 23.6767 35.5421C23.9798 35.2277 24.2717 35.2165 24.6534 35.4074C25.2933 35.7106 25.9557 35.9801 26.618 36.2271C27.1344 36.418 27.2355 36.5079 27.2355 37.0694C27.2355 37.6421 27.2355 38.2035 27.2355 38.7875C28.1785 38.7875 29.0766 38.7875 29.9972 38.7875C29.9972 38.1923 30.0084 37.6196 29.9972 37.0469C29.986 36.5977 30.1768 36.3731 30.6034 36.2271C31.277 35.9913 31.9281 35.7218 32.5793 35.4186C33.062 35.194 33.2192 35.1828 33.6121 35.587C34.0163 35.9913 34.398 36.418 34.746 36.7774C35.442 36.0811 36.0819 35.441 36.7443 34.7897C36.3626 34.4079 35.9697 34.0037 35.5431 33.6106C35.2063 33.3074 35.1951 33.0042 35.3971 32.5999C35.7002 31.9711 35.9697 31.331 36.2054 30.6685C36.3963 30.1407 36.5086 30.0171 37.0699 30.0171C37.6424 30.0171 38.2038 30.0171 38.7763 30.0171C38.7763 29.0626 38.7763 28.1755 38.7763 27.2546C38.1588 27.2546 37.5751 27.2434 36.9913 27.2546C36.5759 27.2659 36.3626 27.0637 36.2279 26.6819C35.9809 25.9969 35.7115 25.3231 35.3971 24.6718C35.2063 24.2676 35.2175 23.9644 35.5431 23.6612C35.9697 23.2681 36.3738 22.8414 36.7555 22.4708C36.0819 21.7858 35.4533 21.1569 34.7797 20.4832C34.3867 20.8874 33.9826 21.3029 33.5784 21.7297C33.2866 22.0441 32.9947 22.0553 32.6017 21.8644C31.9618 21.55 31.2995 21.2805 30.6371 21.0334C30.1207 20.8425 30.0084 20.7302 29.9972 20.1575C29.9972 19.6073 29.9972 19.0458 29.9972 18.4843C29.0542 18.4843 28.1673 18.4843 27.2355 18.4843C27.2355 19.0907 27.2242 19.6859 27.2355 20.2698C27.2467 20.6853 27.0558 20.8874 26.6629 21.0334C25.9781 21.2692 25.3045 21.55 24.6534 21.8644C24.2492 22.0665 23.9573 22.0441 23.643 21.7184C23.2501 21.2917 22.8235 20.8762 22.453 20.5056C21.7682 21.1906 21.1395 21.8195 20.4547 22.5045C20.8588 22.8975 21.2967 23.313 21.7345 23.7173C22.0264 23.9868 22.0376 24.2676 21.8692 24.6269C21.5549 25.3007 21.263 25.9745 21.016 26.6707C20.87 27.0862 20.6567 27.2659 20.2301 27.2546C19.6464 27.2322 19.0626 27.2546 18.4788 27.2546C18.4788 28.1979 18.4788 29.0963 18.4788 30.0171C19.0738 30.0171 19.6464 30.0284 20.2189 30.0171C20.6455 30.0059 20.87 30.1856 21.016 30.6011C21.263 31.2973 21.5549 31.9823 21.8692 32.6449C22.0488 33.0154 22.0376 33.3074 21.7345 33.5882C21.3303 33.9812 20.9037 34.3967 20.4996 34.7897Z" fill="white"/>
<path d="M15.7171 3.39135C16.1325 2.97586 16.5703 2.52667 17.0194 2.07748C17.446 1.65076 17.693 1.65076 18.1196 2.07748C18.9615 2.91971 19.8035 3.76193 20.6455 4.60415C21.0497 5.00842 21.0497 5.27793 20.6567 5.6822C20.275 6.07524 19.8821 6.44582 19.5004 6.85008C19.4218 6.93992 19.3545 7.13083 19.3994 7.22066C19.6015 7.73723 19.8372 8.25379 20.073 8.80404C20.6792 8.80404 21.3191 8.80404 21.959 8.80404C22.4979 8.80404 22.6887 8.99495 22.6887 9.53397C22.6887 10.758 22.6887 11.9708 22.6887 13.1948C22.6887 13.7002 22.4867 13.9135 21.9815 13.9248C21.4202 13.936 20.8588 13.936 20.2975 13.9248C20.073 13.9135 19.9832 14.0034 19.9046 14.2055C19.7474 14.621 19.5566 15.0253 19.4106 15.452C19.3657 15.5755 19.3994 15.7777 19.4892 15.8675C19.8597 16.2718 20.2526 16.6423 20.6343 17.0354C21.0385 17.4396 21.0384 17.7204 20.6455 18.1134C19.7923 18.9669 18.9503 19.8203 18.0859 20.6738C17.693 21.0668 17.4123 21.0556 17.0081 20.6625C16.6264 20.292 16.2447 19.9214 15.8855 19.5284C15.7283 19.3599 15.5936 19.3262 15.3803 19.4385C15.0435 19.6182 14.7067 19.7866 14.3362 19.8765C13.9545 19.9775 13.8647 20.1684 13.8872 20.5278C13.9209 21.0107 13.8984 21.5048 13.8872 21.9989C13.8759 22.5154 13.6739 22.7063 13.1687 22.7063C11.9338 22.7063 10.6988 22.7063 9.47516 22.7063C8.9812 22.7063 8.79035 22.5042 8.79035 22.0213C8.77912 21.4935 8.77912 20.9545 8.79035 20.4267C8.80157 20.146 8.73421 20 8.44232 19.9214C8.08308 19.8203 7.7126 19.6856 7.39826 19.4947C7.08392 19.3038 6.90429 19.3936 6.69099 19.6294C6.34297 20.0112 5.97249 20.3706 5.59079 20.7299C5.26523 21.0444 4.96211 21.0444 4.63654 20.7299C3.74965 19.854 2.86276 18.9669 1.98709 18.091C1.63907 17.7428 1.63907 17.4621 1.98709 17.114C2.44738 16.6423 2.91889 16.1931 3.36795 15.7552C3.14342 15.1825 2.95257 14.6659 2.71681 14.1494C2.67191 14.0483 2.49228 13.9584 2.36879 13.9584C1.84115 13.936 1.30227 13.9584 0.774628 13.9472C0.213303 13.9248 0 13.7226 0 13.1499C0 11.9596 0 10.7692 0 9.57889C0 9.01741 0.202077 8.81527 0.752175 8.81527C1.30227 8.81527 1.84114 8.80404 2.39124 8.81527C2.60455 8.81527 2.70559 8.74789 2.78417 8.53453C2.93011 8.1078 3.09851 7.69231 3.30059 7.29927C3.40163 7.09714 3.36795 6.97361 3.21078 6.82762C2.81785 6.44582 2.43615 6.06401 2.05445 5.67097C1.67275 5.27793 1.66152 5.00842 2.04322 4.62661C2.89644 3.76193 3.76088 2.89725 4.62532 2.0438C5.00702 1.67322 5.27645 1.67322 5.66938 2.05503C6.05108 2.4256 6.43278 2.79618 6.79203 3.18922C6.96043 3.36889 7.09514 3.41381 7.3309 3.29029C7.7126 3.08815 8.11676 2.93094 8.53214 2.79618C8.74544 2.7288 8.8128 2.62774 8.8128 2.41437C8.80157 1.85289 8.80157 1.29141 8.8128 0.729927C8.8128 0.224593 9.0261 0.0224593 9.53129 0.0112296C10.7438 0 11.9674 0 13.1799 0C13.6963 0 13.9096 0.224593 13.9209 0.752386C13.9321 1.30264 13.9096 1.84166 13.9321 2.39191C13.9321 2.51544 14.0219 2.69511 14.1229 2.74003C14.6281 2.97586 15.1558 3.16676 15.7171 3.39135ZM9.98035 1.20157C9.98035 1.8192 9.98035 2.41437 9.98035 3.00954C9.98035 3.40258 9.80073 3.61595 9.43025 3.7507C8.72299 4.00898 8.02694 4.30095 7.34213 4.61538C6.97165 4.78383 6.67976 4.76137 6.3991 4.45817C5.99495 4.03144 5.57957 3.61595 5.19787 3.21168C4.52428 3.88546 3.88437 4.52555 3.21078 5.19933C3.6037 5.58113 4.00786 6.00786 4.44569 6.4009C4.76003 6.7041 4.76003 6.99607 4.58041 7.37788C4.27729 8.01797 4.00786 8.68052 3.76088 9.34306C3.58125 9.83717 3.44653 9.97193 2.91889 9.97193C2.34634 9.97193 1.77379 9.97193 1.19001 9.97193C1.19001 10.9152 1.19001 11.8024 1.19001 12.7344C1.79624 12.7344 2.38002 12.7456 2.96379 12.7344C3.40163 12.7232 3.6037 12.9253 3.74965 13.3296C3.98541 13.9809 4.24361 14.6322 4.5355 15.2611C4.78249 15.8001 4.79371 15.9349 4.36711 16.3616C3.97418 16.7546 3.57002 17.1477 3.24446 17.4621C3.91805 18.1471 4.54673 18.7872 5.19787 19.4497C5.56834 19.0679 5.98372 18.6749 6.37665 18.2482C6.66854 17.9337 6.96043 17.9001 7.35335 18.091C8.00449 18.4054 8.67808 18.6974 9.3629 18.9332C9.7895 19.0792 9.98035 19.315 9.96913 19.7529C9.9579 20.3257 9.96913 20.8984 9.96913 21.4823C10.9009 21.4823 11.799 21.4823 12.7308 21.4823C12.7308 20.8871 12.7421 20.3144 12.7308 19.7529C12.7196 19.3038 12.888 19.0792 13.3258 18.9332C13.9994 18.7086 14.6618 18.4278 15.2905 18.1134C15.6946 17.9113 15.9865 17.9225 16.3009 18.2482C16.705 18.6749 17.1204 19.0904 17.4572 19.4385C18.1308 18.7647 18.7707 18.1246 19.4443 17.4621C19.0738 17.1028 18.6697 16.6985 18.2431 16.3054C17.9287 16.0135 17.895 15.7215 18.0859 15.3397C18.4002 14.6884 18.6809 14.0146 18.9166 13.3296C19.0626 12.9253 19.2647 12.7232 19.7025 12.7344C20.2863 12.7569 20.8701 12.7344 21.4763 12.7344C21.4763 11.7911 21.4763 10.904 21.4763 9.97193C20.8701 9.97193 20.2863 9.9607 19.7025 9.97193C19.2983 9.97193 19.0738 9.79225 18.9391 9.39921C18.7033 8.7142 18.4114 8.05166 18.1083 7.38911C17.8838 6.895 17.8726 6.74902 18.2767 6.35598C18.6809 5.96294 19.1075 5.5699 19.5341 5.16564C19.3994 5.01965 19.3208 4.94104 19.2422 4.86244C18.6921 4.31218 18.142 3.7507 17.5919 3.21168C17.5358 3.23414 17.5021 3.23414 17.4797 3.2566C17.1204 3.60472 16.7612 3.96406 16.4019 4.32341C15.8967 4.82875 15.7845 4.82875 15.167 4.51432C14.6393 4.25604 14.1005 4.02021 13.5504 3.82931C12.7308 3.5598 12.7196 3.57103 12.7196 2.68389C12.7196 2.18978 12.7196 1.68445 12.7196 1.19034C11.7878 1.20157 10.9122 1.20157 9.98035 1.20157Z" fill="white"/>
<path d="M32.6017 11.6451C30.5922 8.68045 27.9091 6.65911 24.5187 5.56984C24.3952 5.53615 24.2717 5.50246 24.1594 5.44631C23.89 5.30033 23.7889 5.06451 23.8675 4.77253C23.9461 4.48056 24.1594 4.32335 24.4625 4.35704C24.7207 4.39073 24.979 4.48056 25.2259 4.55917C28.5939 5.73828 31.3219 7.77085 33.3651 10.7018C33.5448 10.9601 33.6907 11.0499 34.0275 11.0162C35.4533 10.8478 36.7219 11.836 36.8903 13.1948C37.0699 14.6209 36.1493 15.9011 34.7909 16.1257C33.3764 16.3503 32.0741 15.4744 31.7934 14.0595C31.625 13.1274 31.9394 12.3189 32.6017 11.6451ZM34.3868 12.1729C33.5897 12.1504 32.9498 12.7456 32.9385 13.5317C32.9273 14.3065 33.5111 14.9354 34.2745 14.9578C35.0716 14.9803 35.7115 14.3851 35.7227 13.599C35.7452 12.8242 35.1502 12.1953 34.3868 12.1729Z" fill="white"/>
<path d="M7.39827 28.3552C9.37413 31.2637 11.9899 33.2626 15.2905 34.3631C15.4589 34.4192 15.6385 34.4641 15.8069 34.5427C16.0988 34.6887 16.2111 34.9358 16.11 35.239C16.0202 35.531 15.7957 35.6769 15.4926 35.632C15.3017 35.6096 15.1109 35.5422 14.9312 35.4748C11.4847 34.3294 8.71177 32.2631 6.63486 29.2985C6.46647 29.0514 6.33175 28.9279 5.98373 28.9728C4.56919 29.1525 3.28937 28.1755 3.10974 26.8168C2.91889 25.3906 3.82824 24.1104 5.18665 23.8746C6.60118 23.6275 7.90346 24.5034 8.19535 25.9184C8.37497 26.8504 8.07186 27.659 7.39827 28.3552ZM7.06147 26.4237C7.06147 25.6376 6.43279 25.0312 5.63571 25.0425C4.8723 25.0537 4.26607 25.6713 4.26607 26.4462C4.26607 27.2098 4.88353 27.8274 5.64693 27.8386C6.44401 27.8386 7.06147 27.221 7.06147 26.4237Z" fill="white"/>
<path d="M33.7244 28.6465C33.7132 31.4876 31.4342 33.7447 28.6051 33.7223C25.776 33.6998 23.5083 31.3977 23.542 28.5903C23.5644 25.7829 25.8883 23.5145 28.7062 23.5482C31.4679 23.5707 33.7356 25.884 33.7244 28.6465ZM32.5456 28.6689C32.5681 26.5241 30.828 24.7498 28.6837 24.7273C26.5282 24.7049 24.732 26.4679 24.7207 28.624C24.7095 30.7577 26.4272 32.5207 28.549 32.5544C30.7606 32.5881 32.5232 30.87 32.5456 28.6689Z" fill="white"/>
<path d="M11.3724 6.27739C14.1342 6.26616 16.4356 8.54577 16.458 11.3195C16.4805 14.1381 14.1903 16.4514 11.3837 16.4627C8.56582 16.4739 6.27562 14.1943 6.27562 11.3756C6.26439 8.53454 8.52091 6.28861 11.3724 6.27739ZM11.3724 7.4565C9.20573 7.44527 7.46562 9.1634 7.4544 11.3307C7.44317 13.4868 9.17205 15.2611 11.3051 15.2836C13.483 15.306 15.2793 13.5317 15.2793 11.3532C15.2793 9.20832 13.5279 7.46773 11.3724 7.4565Z" fill="white"/>
</g>
<defs>
<clipPath id="clip0_86_976">
<rect width="40" height="40" fill="white"/>
</clipPath>
</defs>
</svg>
