<svg width="42" height="40" viewBox="0 0 42 40" fill="none" xmlns="http://www.w3.org/2000/svg">
<path d="M34.4212 23.0091C36.1293 23.9402 37.5658 25.115 38.7536 26.5669C40.8462 29.1272 41.9321 32.0421 42 35.3228C42.0113 35.9767 41.7851 36.1984 41.1177 36.1984C37.4188 36.1984 33.7199 36.1984 30.021 36.1984C29.7156 36.1984 29.5346 36.2538 29.3649 36.5531C28.9577 37.3178 28.279 37.7057 27.3967 37.6836C26.537 37.6725 25.8696 37.2735 25.4964 36.5198C25.3493 36.2316 25.1796 36.1984 24.9082 36.1984C21.2545 36.1984 17.6009 36.1984 13.9472 36.1984C13.0423 36.1984 12.8274 35.9989 12.9179 35.1122C13.031 33.9595 13.2006 32.818 13.3477 31.6099C13.2798 31.6099 13.1441 31.6099 12.997 31.6099C10.7913 31.6099 8.59682 31.6099 6.39106 31.6099C5.6558 31.6099 5.44088 31.3993 5.44088 30.6678C5.44088 30.2909 5.44088 29.9252 5.44088 29.5484C5.44088 27.9634 6.50417 26.8662 8.14436 26.8108C9.13978 26.7775 10.1465 26.7997 11.1532 26.7997C11.289 26.7997 11.436 26.7997 11.6057 26.7997C11.6057 25.8797 11.6057 24.9931 11.6057 24.0621C11.436 24.0621 11.2664 24.0621 11.108 24.0621C8.58551 24.0621 6.05171 24.0621 3.52922 24.0621C1.39133 24.051 0 22.6877 0 20.593C0 14.8739 0 9.16597 0 3.45802C0 1.36326 1.38002 0 3.51791 0C12.9405 0 22.3744 0 31.7969 0C33.9122 0 35.3035 1.36326 35.3035 3.42477C35.3035 9.04406 35.2922 14.6523 35.3148 20.2715C35.3148 21.2801 35.1565 22.2001 34.4212 23.0091ZM17.6461 1.33001C12.9179 1.33001 8.1896 1.33001 3.46135 1.33001C2.14921 1.33001 1.35739 2.11693 1.35739 3.4026C1.35739 9.15489 1.35739 14.9072 1.35739 20.6595C1.35739 21.923 2.16052 22.721 3.43873 22.721C9.20765 22.721 14.9879 22.721 20.7568 22.721C20.9491 22.721 21.1527 22.6877 21.3224 22.6101C25.1118 20.9476 28.9464 20.8368 32.8376 22.2887C32.9733 22.3441 33.2335 22.2887 33.3466 22.189C33.8217 21.7789 33.9688 21.2247 33.9688 20.6151C33.9574 14.9293 33.9688 9.24356 33.9688 3.55777C33.9688 2.0726 33.2222 1.33001 31.7177 1.33001C27.0121 1.33001 22.3291 1.33001 17.6461 1.33001ZM36.9324 34.8462C36.7288 30.3796 32.6453 25.9573 27.0121 26.2012C21.5825 26.445 18.0759 30.9449 17.9855 34.8241C18.0081 34.8351 18.0307 34.8573 18.0646 34.8573C20.4174 34.8573 22.7703 34.8684 25.1344 34.8573C25.2249 34.8573 25.3606 34.813 25.3832 34.7576C25.6434 34.1147 26.1411 33.7157 26.7746 33.4386C26.8651 33.3943 26.9216 33.2835 27.0008 33.1948C28.1998 31.7429 29.3989 30.2909 30.5866 28.839C30.9259 28.4289 31.22 28.3403 31.5707 28.5287C31.9214 28.7171 32.0005 29.0496 31.8082 29.5373C31.1861 31.1111 30.564 32.6739 29.9418 34.2477C29.8626 34.4361 29.7948 34.6245 29.7156 34.8351C32.1363 34.8462 34.523 34.8462 36.9324 34.8462ZM6.78696 30.2244C6.87746 30.2466 6.91139 30.2688 6.95664 30.2688C9.19634 30.2688 11.4473 30.2688 13.687 30.2688C13.7888 30.2688 13.9359 30.2244 13.9698 30.1579C14.3092 29.4929 14.6372 28.8279 14.9766 28.1186C14.3318 28.1186 13.7097 28.1186 13.0988 28.1186C11.4813 28.1186 9.85241 28.1075 8.23485 28.1297C7.26205 28.1408 6.79828 28.6506 6.79828 29.5816C6.78696 29.7811 6.78696 29.9917 6.78696 30.2244ZM13.0197 26.7886C13.9698 26.7886 14.8974 26.7997 15.8249 26.7775C15.9381 26.7775 16.0625 26.6556 16.153 26.5558C16.9561 25.8022 17.7479 25.0374 18.5397 24.2727C18.5963 24.2172 18.6528 24.1507 18.732 24.0732C16.809 24.0732 14.92 24.0732 13.0197 24.0732C13.0197 24.982 13.0197 25.8687 13.0197 26.7886ZM33.4597 24.0177C31.7517 23.1976 30.021 22.6988 28.1659 22.6434C28.1659 23.4303 28.1659 24.1507 28.1659 24.8822C29.6364 24.982 30.9938 25.3477 32.306 25.9795C32.6905 25.3145 33.0638 24.6827 33.4597 24.0177ZM38.516 28.5065C37.4867 26.9659 36.2085 25.7024 34.6248 24.6938C34.2402 25.3588 33.867 25.9795 33.471 26.6445C34.704 27.4536 35.6994 28.4511 36.5252 29.6259C37.1926 29.2602 37.826 28.8944 38.516 28.5065ZM17.5782 30.701C17.024 30.3907 16.3905 30.0249 15.7118 29.6481C14.8635 31.2995 14.3771 32.9953 14.2979 34.8351C15.0784 34.8351 15.8249 34.8351 16.4471 34.8351C16.8204 33.4608 17.1823 32.1197 17.5782 30.701ZM26.752 22.6323C24.8629 22.7321 23.1322 23.1865 21.4581 24.0288C21.854 24.6938 22.2273 25.3256 22.5327 25.8465C23.9806 25.4697 25.3493 25.1039 26.752 24.7382C26.752 24.1064 26.752 23.3971 26.752 22.6323ZM21.4355 26.6445C21.0396 25.9795 20.6663 25.3477 20.2817 24.6938C18.6981 25.7246 17.4199 26.9659 16.3905 28.5176C17.0692 28.9055 17.714 29.2602 18.3814 29.637C19.2071 28.44 20.2025 27.4536 21.4355 26.6445ZM39.1947 29.6592C38.516 30.0471 37.8713 30.4129 37.2039 30.7897C37.8713 32.0865 38.2106 33.4386 38.335 34.8351C39.1268 34.8351 39.8621 34.8351 40.62 34.8351C40.5182 33.0175 40.0657 31.3106 39.1947 29.6592ZM27.442 36.3536C27.9057 36.3536 28.279 36.01 28.2903 35.5556C28.3016 35.0901 27.917 34.7021 27.4533 34.7021C26.9895 34.7021 26.5936 35.1011 26.6049 35.5556C26.6049 35.9989 26.9782 36.3536 27.442 36.3536Z" fill="white"/>
<path d="M27.4646 38.6698C31.254 38.6698 35.0547 38.6698 38.8441 38.6698C38.9685 38.6698 39.1043 38.6587 39.2287 38.6808C39.602 38.7252 39.8169 38.9468 39.8395 39.3015C39.8621 39.6451 39.6585 39.8779 39.3192 39.9665C39.1721 39.9998 39.0138 39.9998 38.8554 39.9998C31.254 39.9998 23.6526 39.9998 16.0399 39.9998C15.9042 39.9998 15.7571 40.0109 15.6214 39.9887C15.2481 39.9222 15.0218 39.634 15.0558 39.2793C15.0897 38.9136 15.3159 38.7141 15.6892 38.6808C15.8137 38.6698 15.9381 38.6808 16.0738 38.6808C19.8745 38.6698 23.6752 38.6698 27.4646 38.6698Z" fill="white"/>
<path d="M17.6122 19.7398C12.8274 19.7398 8.04258 19.7398 3.25777 19.7398C2.34153 19.7398 2.18317 19.5846 2.18317 18.6757C2.18317 13.6106 2.18317 8.5566 2.18317 3.49148C2.18317 2.47181 2.49989 2.15039 3.54056 2.15039C12.9405 2.15039 22.3405 2.15039 31.7404 2.15039C32.7811 2.15039 33.1091 2.47181 33.1091 3.4804C33.1091 8.56768 33.1091 13.655 33.1091 18.7533C33.1091 19.5624 32.9281 19.7398 32.0798 19.7398C27.2723 19.7398 22.4423 19.7398 17.6122 19.7398ZM3.58581 3.49148C3.58581 8.4901 3.58581 13.4444 3.58581 18.3876C12.9858 18.3876 22.3518 18.3876 31.7404 18.3876C31.7404 13.4111 31.7404 8.45685 31.7404 3.49148C22.3405 3.49148 12.9744 3.49148 3.58581 3.49148Z" fill="white"/>
<path d="M15.2481 8.62255C14.3997 7.41446 14.5015 6.16203 15.5082 5.37511C16.2774 4.76553 17.3633 4.72119 18.1891 5.2532C19.0261 5.80737 19.4107 6.82704 19.0714 7.76913C18.9696 8.06838 18.9922 8.2568 19.2411 8.43413C19.2976 8.47847 19.3542 8.5228 19.3881 8.57822C19.6935 8.9883 20.0329 9.14347 20.5871 8.96614C20.9491 8.8553 21.4129 9.01047 21.8201 9.03264C21.9672 9.04372 22.1595 9.03264 22.2499 8.94397C22.8382 8.3898 23.4037 7.81346 24.0032 7.25929C24.1955 7.08196 24.2182 6.92679 24.1277 6.68295C23.6978 5.44161 24.4218 4.13377 25.6887 3.82344C26.9895 3.50202 28.2564 4.31111 28.5053 5.60786C28.8107 7.22604 27.1818 8.61147 25.5643 8.06838C25.2701 7.96863 25.1118 8.02405 24.9195 8.22355C24.3765 8.76663 23.8336 9.30972 23.2793 9.84172C23.1096 9.99689 23.0531 10.1188 23.1436 10.3737C23.5055 11.3269 23.1662 12.3355 22.3518 12.9118C21.5599 13.4771 20.508 13.4771 19.7048 12.9229C18.8904 12.3577 18.5511 11.338 18.9017 10.3848C18.9922 10.1521 18.9696 9.99689 18.7773 9.85281C18.732 9.81956 18.6981 9.77522 18.6529 9.73089C18.3022 9.33189 17.9402 8.93289 17.3181 9.28755C17.2728 9.30972 17.205 9.3208 17.1484 9.30972C16.481 9.15455 16.2209 9.56464 15.9607 10.0523C15.61 10.7173 15.2028 11.3491 14.8182 12.003C15.3272 12.6347 15.5422 13.333 15.3159 14.131C14.9766 15.3169 13.6871 16.0041 12.4767 15.6494C11.289 15.2948 10.5877 14.0423 10.9836 12.8897C11.0967 12.5461 11.0401 12.3466 10.78 12.1471C10.6669 12.0584 10.5651 11.9587 10.4859 11.8589C10.3162 11.6483 10.1465 11.5929 9.87505 11.7037C9.6375 11.7924 9.3434 11.87 9.09455 11.8257C8.72126 11.7592 8.57421 11.9143 8.41585 12.1914C7.71453 13.4217 6.99059 14.6408 6.26664 15.8489C6.01779 16.259 5.67844 16.392 5.31647 16.2147C4.93187 16.0373 4.84138 15.6273 5.09024 15.1839C5.81418 13.9426 6.54943 12.6902 7.296 11.4599C7.43174 11.2271 7.44305 11.072 7.28469 10.8392C6.67386 9.95256 6.78698 8.81097 7.54486 8.06838C8.29142 7.32579 9.4339 7.18171 10.3388 7.72479C11.2438 8.26788 11.6623 9.33189 11.3003 10.3183C11.1872 10.6176 11.2551 10.7838 11.47 10.9501C11.4926 10.9722 11.5152 10.9833 11.5265 11.0055C11.832 11.4267 12.1939 11.6372 12.7256 11.3712C12.8161 11.3269 12.9518 11.2936 13.0536 11.3269C13.5966 11.4821 13.8115 11.1496 14.0264 10.7506C14.3997 10.0191 14.8295 9.34297 15.2481 8.62255ZM10.0673 9.60897C10.0673 9.1213 9.6375 8.71122 9.1511 8.71122C8.67602 8.71122 8.25749 9.11022 8.24618 9.58681C8.23486 10.0745 8.65339 10.4956 9.1511 10.5067C9.6375 10.5178 10.0673 10.0966 10.0673 9.60897ZM26.2769 5.07586C25.7792 5.07586 25.3606 5.48595 25.372 5.97362C25.372 6.4502 25.7679 6.84921 26.2543 6.86029C26.752 6.87137 27.1818 6.47237 27.1818 5.9847C27.1931 5.49703 26.7746 5.08694 26.2769 5.07586ZM16.9448 7.9908C17.4538 7.97971 17.861 7.56963 17.8384 7.08196C17.8158 6.60537 17.4199 6.22853 16.9222 6.22853C16.4245 6.22853 16.0059 6.63862 16.0059 7.12629C16.0173 7.60288 16.4471 8.00188 16.9448 7.9908ZM13.1328 12.6347C12.6351 12.6458 12.2279 13.0559 12.2392 13.5547C12.2505 14.0313 12.6577 14.4192 13.1328 14.4303C13.6305 14.4303 14.049 14.0202 14.049 13.5325C14.0603 13.0337 13.6305 12.6237 13.1328 12.6347ZM20.1234 11.0941C20.1121 11.5929 20.5193 12.003 21.017 12.0141C21.5147 12.0252 21.9332 11.604 21.9332 11.1163C21.9332 10.6397 21.5486 10.2407 21.0622 10.2186C20.5645 10.2075 20.1347 10.6065 20.1234 11.0941Z" fill="white"/>
</svg>
