<svg width="40" height="40" viewBox="0 0 40 40" fill="none" xmlns="http://www.w3.org/2000/svg">
  <circle cx="20" cy="20" r="20" fill="#FFE816"/>
  <path
    d="M25.8 11H14.2C12.44 11 11 12.44 11 14.2V25.8C11 27.56 12.44 29 14.2 29H25.8C27.56 29 29 27.56 29 25.8V14.2C29 12.44 27.56 11 25.8 11ZM20 25.3C17.07 25.3 14.7 22.93 14.7 20C14.7 17.07 17.07 14.7 20 14.7C22.93 14.7 25.3 17.07 25.3 20C25.3 22.93 22.93 25.3 20 25.3ZM25.5 15.2C25.5 15.86 24.96 16.4 24.3 16.4C23.64 16.4 23.1 15.86 23.1 15.2C23.1 14.54 23.64 14 24.3 14C24.96 14 25.5 14.54 25.5 15.2Z"
    fill="black"
  />
  <circle cx="20" cy="20" r="3.5" fill="black"/>
</svg>
