<svg width="28" height="28" viewBox="0 0 28 28" fill="none" xmlns="http://www.w3.org/2000/svg">
<path d="M9.3709 14L11.6856 16.3147L17.4722 10.528M22.7806 16.6787L23.8224 15.6369C24.0374 15.4219 24.2079 15.1668 24.3242 14.8859C24.4406 14.6051 24.5005 14.304 24.5005 14C24.5005 13.696 24.4406 13.395 24.3242 13.1142C24.2079 12.8333 24.0374 12.5782 23.8224 12.3632L22.7806 11.3214C22.5654 11.1066 22.3948 10.8514 22.2785 10.5705C22.1622 10.2896 22.1024 9.98856 22.1027 9.68454V8.21338C22.1027 7.59949 21.8589 7.01074 21.4248 6.57666C20.9907 6.14258 20.402 5.89871 19.7881 5.89871H18.3157C18.0117 5.899 17.7106 5.83927 17.4298 5.72295C17.1489 5.60663 16.8937 5.43601 16.6789 5.22088L15.6371 4.17904C15.4221 3.96407 15.1669 3.79355 14.8861 3.6772C14.6052 3.56086 14.3042 3.50098 14.0002 3.50098C13.6962 3.50098 13.3952 3.56086 13.1144 3.6772C12.8335 3.79355 12.5783 3.96407 12.3634 4.17904L11.3216 5.22088C11.1068 5.43601 10.8516 5.60663 10.5707 5.72295C10.2898 5.83927 9.98875 5.899 9.68473 5.89871H8.21357C7.9095 5.89856 7.60839 5.95831 7.32742 6.07457C7.04646 6.19082 6.79116 6.3613 6.5761 6.57625C6.36104 6.7912 6.19043 7.04642 6.07404 7.32732C5.95764 7.60823 5.89773 7.90931 5.89773 8.21338V9.68571C5.89773 10.3005 5.6539 10.8885 5.2199 11.3225L4.17807 12.3644C3.9631 12.5793 3.79257 12.8345 3.67623 13.1153C3.55988 13.3962 3.5 13.6972 3.5 14.0012C3.5 14.3052 3.55988 14.6062 3.67623 14.8871C3.79257 15.1679 3.9631 15.4231 4.17807 15.638L5.2199 16.6799C5.6539 17.1139 5.89773 17.7019 5.89773 18.3167V19.789C5.89773 20.4029 6.1416 20.9917 6.57568 21.4258C7.00977 21.8598 7.59851 22.1037 8.2124 22.1037H9.68473C10.2996 22.1037 10.8876 22.3475 11.3216 22.7815L12.3634 23.8234C12.5783 24.0383 12.8335 24.2089 13.1144 24.3252C13.3952 24.4416 13.6962 24.5014 14.0002 24.5014C14.3042 24.5014 14.6052 24.4416 14.8861 24.3252C15.1669 24.2089 15.4221 24.0383 15.6371 23.8234L16.6789 22.7815C17.1142 22.3492 17.7022 22.1057 18.3157 22.1037H19.7881C20.402 22.1037 20.9907 21.8598 21.4248 21.4258C21.8589 20.9917 22.1027 20.4029 22.1027 19.789V18.3167C22.1027 17.7019 22.3466 17.1127 22.7806 16.6787Z" stroke="#396746" stroke-width="1.5" stroke-linecap="round" stroke-linejoin="round"/>
</svg>
