<svg width="26" height="26" viewBox="0 0 26 26" fill="none" xmlns="http://www.w3.org/2000/svg">
<path fill-rule="evenodd" clip-rule="evenodd" d="M0.9984 9.1156C0.4498 9.1156 0.0039 8.6697 0.0039 8.1211C0 3.1096 3.1096 0 8.1172 0H17.8711C22.8904 0 26 3.1096 26 8.1172V17.8672C26 22.8891 22.8904 26 17.8711 26H8.1211C3.133 26 0 22.8891 0 17.8711L0 14.5314C0 13.9893 0.4407 13.5486 0.9828 13.5486H0.9945V13.5707C1.5431 13.5707 1.9877 14.0153 1.989 14.5639V14.5665L1.989 17.8711C1.989 21.84 4.16 24.011 8.1172 24.011H17.8672C21.827 24.011 24.011 21.827 24.011 17.8711V8.1211C24.011 4.1769 21.827 1.9929 17.8711 1.9929H8.1211C4.1652 1.9929 1.9929 4.1769 1.9929 8.1211C1.9929 8.6697 1.547 9.1156 0.9984 9.1156ZM7.68838 13.9746L15.9512 13.9746L12.7311 17.1817C12.3489 17.5613 12.3476 18.1775 12.7285 18.5597C13.1081 18.9432 13.7256 18.9406 14.1065 18.5623L18.9997 13.6899C19.0003 13.6899 19.0007 13.6899 19.0008 13.6897C19.001 13.6896 19.001 13.6893 19.001 13.6886C19.0907 13.6002 19.1622 13.4923 19.2116 13.3727C19.261 13.2544 19.287 13.1283 19.287 13.0009V12.9996C19.287 12.9905 19.2847 12.9829 19.2824 12.9752C19.2805 12.9686 19.2785 12.9619 19.2779 12.9541C19.2727 12.8436 19.2545 12.7331 19.2116 12.6278C19.1674 12.5212 19.1011 12.4276 19.0244 12.3418C19.0202 12.3376 19.0173 12.3328 19.0145 12.328C19.0112 12.3224 19.0079 12.3168 19.0023 12.3119C18.9126 12.2209 18.8047 12.1494 18.6864 12.1C18.5655 12.0506 18.4407 12.0246 18.312 12.0246L7.68838 12.0246C7.15018 12.0246 6.71338 12.4614 6.71338 12.9996C6.71338 13.5378 7.15018 13.9746 7.68838 13.9746ZM15.7764 9.09853L14.1072 7.43713C13.9161 7.24733 13.6678 7.15243 13.4195 7.15243C13.1686 7.15243 12.919 7.24733 12.7266 7.43973C12.347 7.82193 12.3483 8.43814 12.7305 8.81773L14.3997 10.4791C14.7819 10.8587 15.3981 10.8587 15.779 10.4778C16.1586 10.0956 16.1573 9.47813 15.7764 9.09853Z" fill="#396746"/>
</svg>
