<svg width="219" height="63" viewBox="0 0 219 63" fill="none" xmlns="http://www.w3.org/2000/svg">
<path d="M29.7217 40.1214C29.7217 40.1214 30.3199 38.3408 31.7502 37.5825C31.7502 37.5825 35.7342 43.9891 30.4807 53.3873C30.4807 53.3873 28.6709 55.7807 29.4884 59.2834C29.4884 59.2834 25.4021 57.007 20.6153 62.3189C20.6153 62.3189 21.2573 59.867 24.8764 58.0578C24.8764 58.0578 16.529 57.0655 12.1509 61.9108C12.1509 61.9108 12.7105 59.7839 14.8713 58.8733C14.9916 58.8228 15.1106 58.7677 15.2236 58.7012C15.7533 58.3908 16.9145 57.55 14.3163 57.3712C14.1734 57.3612 14.0305 57.3486 13.8876 57.3333C13.1552 57.2536 10.4819 57.0721 8.9313 58.4566C8.9313 58.4566 7.58869 59.5951 6.58639 61.0933C6.58639 61.0933 7.34543 59.4004 8.21147 58.2619C8.21147 58.2619 8.7658 57.4157 7.5209 57.6683C7.5209 57.6683 5.29298 58.3004 4.13515 58.9624C4.13515 58.9624 5.55551 57.5806 8.03667 56.8315C8.03667 56.8315 9.20447 56.4327 11.0044 56.3842L15.2462 56.2479C15.2462 56.2479 23.6135 56.8893 26.5526 52.6375C26.7214 52.3936 26.8989 52.1557 27.0764 51.9184C28.1272 50.5126 31.2384 45.7318 29.723 40.1221L29.7217 40.1214Z" fill="#396746"/>
<path d="M31.8238 52.1614C31.8238 52.1614 29.0801 55.6641 30.014 59.0499C30.014 59.0499 33.9833 57.474 38.245 62.3186C38.245 62.3186 37.924 60.0714 34.1587 57.9113C34.1587 57.9113 36.2424 58.4843 38.4165 58.2769C38.8233 58.2383 39.2327 58.2297 39.6395 58.2702C41.0951 58.4158 44.1824 59.0745 46.7971 61.9677C46.7971 61.9677 46.7679 60.0123 43.4991 58.465C43.4991 58.465 41.3975 57.3849 46.0966 57.2394C46.0966 57.2394 50.0367 56.8891 52.3138 61.0631C52.3138 61.0631 51.5454 59.3217 50.7764 58.3094C50.7764 58.3094 50.0972 57.3105 51.7295 57.7392C52.03 57.8183 52.3218 57.9253 52.6042 58.0536C53.1885 58.3188 54.4806 58.8924 54.8528 58.9515C54.8528 58.9515 52.2746 56.6358 49.2976 56.4996C49.2976 56.4996 45.2306 56.13 42.8179 56.2078C42.8179 56.2078 35.7353 56.9084 31.8238 52.1607V52.1614Z" fill="#396746"/>
<path d="M27.1734 50.9163C27.1734 50.9163 28.7692 48.4258 29.2358 46.3627C29.2358 46.3627 27.4067 40.5543 30.8702 37.582C30.8702 37.582 33.5554 35.1447 39.2761 37.582C39.2761 37.582 41.5432 38.5158 42.1706 41.114C42.1706 41.114 42.039 35.9722 35.657 35.1939C35.657 35.1939 34.1589 34.9799 32.7385 35.0769C32.7385 35.0769 31.0357 35.1447 32.9718 33.063C32.9718 33.063 36.9804 27.7604 43.9466 28.4224C43.9466 28.4224 48.8697 28.9282 51.5549 31.0684C51.5549 31.0684 48.4609 26.8265 41.3006 27.5656L40.3967 27.6221C40.1069 27.6401 39.8178 27.6687 39.5293 27.6979C39.1724 27.7345 38.6108 27.6726 39.8224 26.5926C39.8224 26.5926 43.7532 23.0121 42.8579 17.3306C42.8579 17.3306 42.5694 23.5318 36.9265 27.5012C36.0405 28.1246 35.1785 28.7806 34.3231 29.4446L33.2849 30.2508C33.2849 30.2508 31.6651 32.0966 32.1317 27.4493C32.1437 27.3297 32.1543 27.2094 32.1649 27.0897C32.2234 26.4218 32.6648 23.2168 35.8531 20.4439C35.8531 20.4439 38.0711 18.6147 37.6822 14.4121C37.6822 14.4121 37.0595 18.4984 34.6075 20.3661C34.6075 20.3661 32.7379 22.0211 32.1809 19.2654C32.0313 18.5263 32.048 17.7633 32.2075 17.0269C32.3909 16.1814 32.7525 14.9073 33.4245 13.7262C33.7501 13.1539 33.9562 12.5179 34.0034 11.8612C34.006 11.8226 34.0087 11.7834 34.01 11.7442C34.0273 11.352 33.9794 10.9599 33.8837 10.5797L33.2829 8.19095C33.2829 8.19095 33.7648 11.2995 33.035 12.9047L32.583 14.0944C32.3623 14.674 32.1317 15.2496 31.8977 15.8238C31.5807 16.6008 30.9965 18.3535 31.2132 20.3023C31.2564 20.6911 31.3441 21.0733 31.4538 21.4482C31.6193 22.0151 31.9277 23.6389 31.0649 26.1652C31.0649 26.1652 30.4415 28.1299 30.506 30.8583C30.5345 32.078 30.1118 33.267 29.3215 34.1969C29.3089 34.2115 29.297 34.2261 29.2843 34.2408C29.2843 34.2408 25.5775 38.23 25.7723 44.4173C25.7723 44.4173 25.9278 48.1141 27.1734 50.9163Z" fill="#396746"/>
<path d="M26.9497 36.8967L29.1969 33.511C29.1969 33.511 28.1899 32.8815 28.3036 30.5719C28.3321 29.9943 28.3355 29.416 28.2969 28.8391C28.2231 27.7345 28.051 26.0589 27.6529 24.7648C27.3146 23.6668 27.2275 22.5036 27.4408 21.3744C27.4508 21.3225 27.4608 21.2707 27.4721 21.2175C27.6994 20.1142 27.7566 18.9823 27.5977 17.867C27.4661 16.9418 27.2175 15.891 26.7523 15.007C26.501 14.5298 26.2777 14.0379 26.1102 13.5248C25.6848 12.2247 25.1531 9.98552 25.7659 8.19095C25.7659 8.19095 24.073 11.4238 25.7659 14.2473C25.7659 14.2473 28.0596 18.1874 25.958 20.61C25.958 20.61 25.5379 21.391 24.0338 20.0012C23.3499 19.3691 22.7969 18.6087 22.3875 17.7719C21.9495 16.876 21.4025 15.5633 21.3167 14.4513C21.3167 14.4513 20.3829 18.3622 24.2352 21.8649C24.2352 21.8649 27.2581 24.2331 26.828 29.3017C26.8154 29.4506 26.8114 29.6001 26.8101 29.7497C26.8061 30.2136 26.6758 31.2518 25.4615 30.0375L20.9372 26.5932C20.9372 26.5932 16.6176 23.4115 16.2088 17.3406C16.2088 17.3406 14.8849 21.3132 18.4321 25.7717C18.6109 25.9964 18.8123 26.2011 19.0276 26.3912C19.5713 26.8711 20.5989 27.898 19.1573 27.6726C19.1573 27.6726 11.4519 26.5341 7.4241 30.9122C7.4241 30.9122 13.5815 26.8073 19.8106 29.0771C19.9369 29.1229 20.0632 29.1674 20.1915 29.2067C20.9126 29.4287 23.9547 30.5107 26.4831 33.6266C26.4831 33.6266 28.2278 35.3454 25.2707 35.1513C24.4459 35.0975 23.6171 35.1354 22.8055 35.2942C20.6454 35.7176 17.273 37.0017 16.8801 40.894C16.8801 40.894 18.2812 35.3481 26.9497 36.8954V36.8967Z" fill="#396746"/>
<path d="M32.4658 53.6398C32.4658 53.6398 34.8592 56.6753 40.7547 56.7338C40.7547 56.7338 34.6253 57.3951 32.4658 53.6398Z" fill="#396746"/>
<path d="M19.468 56.9865C19.468 56.9865 26.0215 57.2364 29.489 51.9272C29.489 51.9272 33.4783 46.0118 31.4152 39.2017C31.4152 39.2017 33.8671 44.1833 30.9872 50.215C30.9872 50.215 28.3797 57.259 19.468 56.9865Z" fill="#396746"/>
<path d="M27.4069 48.464C27.4069 48.464 25.928 41.6925 29.4893 36.5554C29.4893 36.5554 32.0382 32.0411 36.3192 29.2389C36.3192 29.2389 30.7541 32.7416 28.925 36.594C28.925 36.594 25.3445 42.6649 27.4069 48.4634V48.464Z" fill="#396746"/>
<path d="M31.9256 19.428C32.1576 20.1172 32.4308 21.1382 33.2902 21.1847C33.5487 21.1907 33.8179 21.1142 34.0851 21.0185C32.7997 22.0414 31.8572 20.7141 31.925 19.428H31.9256Z" fill="#396746"/>
<path d="M32.0867 24.4475C31.9358 25.3216 31.7065 26.5432 31.5922 27.4086C31.4566 28.3969 31.3449 29.3872 31.4446 30.3869C30.9322 28.6867 31.4752 26.0939 32.0867 24.4475Z" fill="#396746"/>
<path d="M31.8679 33.978C31.8679 33.978 30.8025 35.8025 33.0789 35.5246C33.0789 35.5246 35.1659 35.4223 36.0559 35.627H32.9327C32.9327 35.627 30.4622 36.2212 31.8673 33.978H31.8679Z" fill="#396746"/>
<path d="M20.3241 36.6046C21.8548 35.5797 24.1299 35.3344 25.9285 35.5538C25.6879 35.579 25.4479 35.5896 25.2086 35.6076C23.5517 35.7392 21.8688 35.9599 20.3241 36.6046Z" fill="#396746"/>
<path d="M21.6666 28.7531C22.5685 29.106 23.4173 29.6118 24.2162 30.1581C25.5389 31.0887 26.7479 32.2172 27.6645 33.5545C25.9171 31.6609 23.8912 30.0531 21.6666 28.7531Z" fill="#396746"/>
<path d="M26.6867 24.3172C26.6867 24.3172 28.0101 27.9169 27.465 30.5244C27.465 30.5244 27.1832 31.3612 27.5966 31.9839C27.5966 31.9839 27.3727 31.1764 27.6644 30.0159C27.6644 30.0159 28.3603 27.9302 26.6867 24.3172Z" fill="#396746"/>
<path d="M23.6081 20.2158C23.6081 20.2158 26.1617 22.3613 26.9354 20.2158C26.9354 20.2158 26.7606 22.9887 23.6081 20.2158Z" fill="#396746"/>
<path d="M58.7824 26.7353C58.0108 27.3434 57.2185 27.9217 56.3445 28.3776C55.4372 28.8522 54.4702 29.0775 53.4486 29.0828C52.1897 29.0908 51.1236 28.6468 50.2556 27.7303C50.1526 27.6206 50.0462 27.5156 49.9485 27.4019C49.8236 27.257 49.8375 27.2032 50.0223 27.162C50.336 27.0922 50.6517 27.0284 50.9688 26.9726C52.2735 26.7399 53.5915 26.7074 54.9115 26.702C55.5263 26.6994 56.1404 26.7034 56.7559 26.7047H56.9905C56.6589 26.6608 56.3312 26.5658 55.9989 26.5319C55.0218 26.4322 54.0435 26.3511 53.0604 26.3325C52.2044 26.3165 51.3529 26.3724 50.5055 26.4973C50.3726 26.5166 50.237 26.5266 50.1027 26.5266C49.9173 26.5266 49.882 26.4668 49.9924 26.3112C50.4556 25.6506 50.9967 25.0843 51.7856 24.8051C52.7999 24.4449 53.8241 24.411 54.8543 24.7094C55.291 24.8357 55.727 24.9819 56.1444 25.1634C57.0158 25.5409 57.8765 25.9457 58.7379 26.3471C59.0343 26.486 59.037 26.5359 58.7824 26.7366V26.7353Z" fill="#396746"/>
<path d="M52.8317 19.0729C51.8606 19.84 50.8769 20.5923 49.7151 21.0549C48.5799 21.5082 47.4088 21.6186 46.2104 21.3474C45.6202 21.2145 45.1064 20.9267 44.6531 20.5345C44.3992 20.3145 44.1639 20.0706 43.93 19.8293C43.7778 19.6731 43.7937 19.612 44.0044 19.5708C44.5401 19.4664 45.0765 19.3501 45.6169 19.2823C47.2725 19.0743 48.9368 19.1015 50.6004 19.1148C50.7041 19.1155 50.8078 19.1068 50.9115 19.1015H50.9122C50.9122 19.1015 50.9122 19.0982 50.9115 19.0975V19.1015C50.399 19.0424 49.8853 18.928 49.3722 18.8828C48.4018 18.7958 47.4307 18.728 46.4543 18.7386C45.8236 18.7453 45.1981 18.8097 44.5747 18.8948C44.4338 18.9141 44.2915 18.9314 44.15 18.9427C44.0915 18.9473 44.031 18.942 43.9725 18.9307C43.8974 18.9154 43.8775 18.8636 43.91 18.7951C43.926 18.7612 43.9466 18.7293 43.9665 18.6987C44.6112 17.7283 45.4959 17.1428 46.6604 16.9773C47.5889 16.845 48.4815 16.9666 49.3555 17.2797C50.52 17.6978 51.6326 18.2315 52.7406 18.7772C52.7606 18.7871 52.7812 18.7971 52.7998 18.8091C52.962 18.9088 52.9759 18.9599 52.8317 19.0736V19.0729Z" fill="#396746"/>
<path d="M31.4788 7.99939C31.4137 8.87341 31.1957 9.69492 30.5835 10.3576C30.3609 10.5995 30.103 10.8076 29.8604 11.0302C29.8385 11.0502 29.8125 11.0694 29.7866 11.0847C29.6617 11.1578 29.5939 11.1319 29.5919 10.9897C29.5886 10.7677 29.5945 10.5443 29.6171 10.3243C29.7089 9.41311 29.7115 8.50253 29.6111 7.59395C29.5108 6.68005 29.3925 5.76881 29.2742 4.85823C29.237 4.57309 29.1751 4.29061 29.1253 4.00747C29.1253 4.2494 29.0954 4.49666 29.1053 4.73793C29.1206 5.12874 29.1579 5.51757 29.1692 5.90838C29.1977 6.91135 29.2536 7.91365 29.1951 8.91794C29.1532 9.63045 29.0721 10.337 28.9518 11.0395C28.9452 11.0767 28.9345 11.114 28.9232 11.1505C28.898 11.2382 28.8461 11.2575 28.7684 11.2097C28.7551 11.2017 28.7424 11.1924 28.7311 11.1831C28.1183 10.6879 27.5647 10.1402 27.2191 9.4171C26.9951 8.94851 26.8874 8.44936 26.8362 7.93425C26.7086 6.63817 26.9824 5.42252 27.582 4.27466C27.9841 3.50499 28.4586 2.78185 28.9638 2.07731C29.1266 1.85 29.1891 1.84867 29.3174 2.08329C29.9601 3.24976 30.6048 4.4169 31.0913 5.66113C31.3851 6.41219 31.5386 7.18917 31.4788 7.99872V7.99939Z" fill="#396746"/>
<path d="M15.0036 19.8653C14.7099 20.1863 14.3961 20.4861 14.0439 20.7453C13.3879 21.2285 12.6428 21.4418 11.8392 21.4824C10.5844 21.5449 9.41855 21.2458 8.33317 20.617C7.5728 20.1757 6.86428 19.6612 6.17636 19.1149C6.14712 19.0916 6.11787 19.0677 6.09262 19.0404C6.01419 18.9527 6.01818 18.9075 6.11123 18.839C6.14712 18.8125 6.18833 18.7919 6.22821 18.7726C7.33087 18.2309 8.43752 17.7005 9.59535 17.2837C10.3584 17.0099 11.1413 16.8657 11.9555 16.9381C13.0775 17.0385 14.0499 17.4333 14.7424 18.3705C14.8355 18.4967 14.9405 18.617 15.0256 18.748C15.1007 18.8663 15.0635 18.9387 14.9259 18.9407C14.777 18.9434 14.6261 18.9301 14.4786 18.9068C13.1366 18.6888 11.79 18.7008 10.4421 18.8178C9.68109 18.8836 8.92139 18.9713 8.16169 19.0497C8.12713 19.0531 8.0919 19.063 8.058 19.069C8.15039 19.0936 8.24676 19.1135 8.34114 19.1142C9.50296 19.1255 10.6648 19.1202 11.8266 19.1514C12.8621 19.18 13.887 19.3203 14.898 19.5509C15.1858 19.6167 15.1991 19.6532 15.005 19.8639L15.0036 19.8653Z" fill="#396746"/>
<path d="M41.1022 3.21268C41.0497 3.59153 40.9879 3.96972 40.9148 4.34525C40.7652 5.12024 40.5825 5.88725 40.2741 6.6177C39.8128 7.7104 39.0976 8.60103 38.1319 9.29028C37.4626 9.76883 36.7128 10.0001 35.894 10.0134C35.5803 10.0181 35.2665 10.0028 34.9528 9.98019C34.7587 9.9669 34.7342 9.9124 34.8511 9.75155C35.2041 9.26901 35.551 8.78182 35.9279 8.31922C36.6523 7.4339 37.4858 6.65027 38.3166 5.86598C38.645 5.55492 38.9793 5.25051 39.3083 4.94078C39.3575 4.89359 39.3827 4.86235 39.4618 4.71014C39.4073 4.73939 39.3289 4.7806 39.2957 4.80519C38.0282 5.73571 36.7879 6.69946 35.6919 7.83402C35.3623 8.17499 35.0678 8.54919 34.7561 8.90744C34.661 9.01777 34.5687 9.13209 34.4623 9.23046C34.334 9.35209 34.2676 9.33215 34.2357 9.16134C34.2077 9.01113 34.2044 8.85693 34.1858 8.70538C34.0775 7.83801 34.2928 7.05172 34.7647 6.32459C35.351 5.42066 36.1598 4.79057 37.1309 4.3499C37.9757 3.96706 38.857 3.68059 39.7357 3.39014C40.0547 3.28379 40.3771 3.18808 40.6988 3.08639C40.7646 3.06645 40.8297 3.04385 40.8968 3.0299C41.0776 2.99268 41.1275 3.02657 41.1015 3.21334L41.1022 3.21268Z" fill="#396746"/>
<path d="M20.4264 14.1493C20.4164 14.2304 20.4124 14.3141 20.3958 14.3939C20.3639 14.5415 20.2961 14.5641 20.1778 14.4637C20.11 14.4052 20.0515 14.3354 19.9923 14.2683C19.5696 13.7917 19.1708 13.2912 18.7209 12.8433C17.6793 11.8037 16.4643 10.955 15.2673 10.1022C15.8721 10.6725 16.4803 11.2395 17.0818 11.8137C18.0589 12.7476 18.9701 13.7392 19.7265 14.8665C19.9232 15.1609 19.9219 15.1722 19.5656 15.2028C18.9043 15.2606 18.2463 15.2387 17.6082 15.0346C16.9289 14.8173 16.3713 14.4072 15.8635 13.918C15.0048 13.0892 14.4631 12.0789 14.1514 10.9357C13.944 10.176 13.7911 9.40567 13.6788 8.62736C13.6442 8.3841 13.6921 8.33292 13.926 8.40337C14.4345 8.55757 14.9416 8.71576 15.4454 8.88392C16.2045 9.13848 16.9622 9.39437 17.6873 9.73999C18.6524 10.1986 19.4287 10.8646 19.9837 11.7878C20.4257 12.5229 20.5247 13.3145 20.427 14.148L20.4264 14.1493Z" fill="#396746"/>
<path d="M51.1608 35.2763C51.093 36.4674 50.9162 37.6451 50.7287 38.8216C50.6802 39.1273 50.625 39.1539 50.3798 38.9838C49.5862 38.4308 48.8112 37.8538 48.1259 37.1653C47.2579 36.2919 46.6949 35.2537 46.4404 34.0474C46.2603 33.1913 46.3407 32.3631 46.7062 31.5682C46.8312 31.2964 46.9814 31.0365 47.1197 30.7713C47.1336 30.7447 47.1496 30.7194 47.1668 30.6948C47.2579 30.5719 47.2991 30.5692 47.3809 30.6909C47.4261 30.7587 47.4633 30.8338 47.5038 30.9049C48.1286 31.9956 48.5925 33.1547 48.9747 34.3484C49.2525 35.2185 49.5164 36.0932 49.7869 36.9645C49.8168 37.0609 49.8899 37.1466 49.9232 37.2424C49.8481 36.823 49.7769 36.4036 49.6945 35.9855C49.4692 34.8469 49.2226 33.7124 48.8378 32.615C48.647 32.072 48.4058 31.5469 48.1878 31.0139C48.1286 30.869 48.0655 30.7248 48.0196 30.5745C47.985 30.4602 48.0269 30.419 48.1412 30.431C48.1924 30.437 48.2423 30.4562 48.2928 30.4709C49.5975 30.8577 50.4097 31.7443 50.8637 32.9972C51.1315 33.7356 51.204 34.4987 51.1601 35.2763H51.1608Z" fill="#396746"/>
<path d="M24.5779 9.08574C24.5586 9.23794 24.4788 9.26253 24.3638 9.16417C24.2907 9.10102 24.2236 9.02791 24.1644 8.95148C22.8418 7.24996 20.9887 5.88742 19.2653 4.63122C19.3364 4.69902 19.4049 4.76282 19.4713 4.82663C20.2749 5.59098 21.0858 6.34869 21.8787 7.12368C22.6464 7.8754 23.3283 8.70157 23.9292 9.59353C24.0973 9.84211 24.0873 9.87468 23.8002 9.89661C23.0246 9.95643 22.2549 9.93982 21.5231 9.63208C20.8472 9.34894 20.2955 8.89299 19.8003 8.3606C19.03 7.53377 18.5541 6.55008 18.2942 5.4627C18.1241 4.75019 18.0004 4.02572 17.8575 3.30656C17.8516 3.27732 17.8476 3.24741 17.8476 3.2175C17.8476 3.09919 17.8795 3.06729 17.9945 3.07726C18.0383 3.08058 18.0829 3.09254 18.1261 3.10584C19.2507 3.44481 20.3699 3.79974 21.4566 4.2517C22.2017 4.56143 22.895 4.95889 23.4559 5.55376C23.9717 6.1021 24.3818 6.71159 24.5619 7.45401C24.6935 7.99637 24.6476 8.54138 24.5799 9.08507L24.5779 9.08574Z" fill="#396746"/>
<path d="M45.2809 8.64662C45.1293 9.63164 44.9466 10.6113 44.6109 11.5538C44.1975 12.715 43.4976 13.6668 42.5186 14.4158C41.828 14.9436 41.0464 15.2074 40.1817 15.2227C39.8826 15.2287 39.5815 15.2088 39.283 15.1888C39.0836 15.1755 39.061 15.125 39.1754 14.9542C39.5987 14.3248 40.0594 13.7252 40.5672 13.1616C41.4531 12.1813 42.4249 11.288 43.3913 10.3893C43.5282 10.2617 43.6644 10.1321 43.8007 10.0045C42.385 11.0188 40.9653 12.0397 39.7762 13.3205C39.4911 13.6275 39.2332 13.9599 38.96 14.2789C38.8922 14.3587 38.8184 14.4351 38.736 14.4989C38.6736 14.5474 38.6077 14.5355 38.5812 14.4451C38.5725 14.4165 38.5626 14.3872 38.5586 14.358C38.4648 13.6362 38.4469 12.923 38.754 12.2384C39.1627 11.3298 39.7975 10.6186 40.6389 10.0909C41.2192 9.72668 41.8479 9.46348 42.4933 9.24215C43.3281 8.95701 44.1683 8.6845 45.0084 8.41333C45.2736 8.32825 45.3241 8.37212 45.2809 8.64595V8.64662Z" fill="#396746"/>
<path d="M9.07603 27.3225C9.06274 27.3411 9.05078 27.3604 9.03615 27.3777C8.59283 27.8696 8.11694 28.3228 7.52274 28.6352C6.84013 28.9935 6.10237 29.0952 5.34533 29.0806C4.22738 29.0586 3.19384 28.7376 2.23275 28.17C1.50229 27.7386 0.81637 27.2428 0.15238 26.7157C0.135099 26.7018 0.117818 26.6871 0.101202 26.6725C-0.0397049 26.5429 -0.0390403 26.4778 0.138422 26.3914C1.39595 25.7766 2.64749 25.1471 3.99209 24.7364C5.01632 24.424 6.04321 24.4253 7.06479 24.7649C7.65567 24.9617 8.1515 25.2973 8.55096 25.7746C8.67591 25.9234 8.79821 26.0756 8.91585 26.2312C8.97235 26.3056 9.07005 26.392 9.00026 26.4857C8.96636 26.5309 8.84939 26.5329 8.77229 26.5256C8.46655 26.499 8.1608 26.4658 7.85706 26.4246C7.19373 26.3335 6.52708 26.3262 5.86043 26.3369C4.65143 26.3568 3.45173 26.4711 2.25335 26.62C2.151 26.6333 2.04532 26.6619 1.95426 26.7057C2.05861 26.7057 2.16363 26.7051 2.26798 26.7057C3.27227 26.7117 4.27723 26.6984 5.28086 26.7283C5.99204 26.7503 6.70322 26.8094 7.40908 26.8898C7.92153 26.9483 8.42667 27.068 8.9338 27.1617C8.97035 27.1683 9.00492 27.1843 9.04014 27.1982C9.10262 27.2248 9.11259 27.2687 9.0767 27.3239L9.07603 27.3225Z" fill="#396746"/>
<path d="M12.6032 33.4751C12.5181 34.401 12.2097 35.255 11.7245 36.046C11.2805 36.7718 10.6876 37.364 10.0303 37.8924C9.56237 38.2679 9.07651 38.6202 8.59331 38.9745C8.34273 39.1586 8.28491 39.138 8.23971 38.8375C8.11741 38.0154 8.00243 37.1925 7.89342 36.3677C7.80968 35.7356 7.77046 35.0995 7.8037 34.4614C7.85421 33.503 8.14932 32.627 8.70031 31.8394C9.0579 31.3296 9.51651 30.9441 10.0908 30.7008C10.2775 30.6224 10.4656 30.5493 10.6544 30.4768C10.7096 30.4556 10.7681 30.437 10.8265 30.4303C10.9329 30.419 10.9708 30.4562 10.9475 30.5593C10.9242 30.6603 10.8857 30.7593 10.8438 30.855C10.689 31.2126 10.5221 31.5642 10.3746 31.9245C9.96648 32.9188 9.70328 33.957 9.47397 35.0031C9.32974 35.6611 9.2121 36.3258 9.08449 36.9871C9.07053 37.0576 9.0672 37.1307 9.05923 37.2018C9.10841 37.1194 9.16291 36.9998 9.19482 36.8947C9.5976 35.5535 9.99174 34.2102 10.5015 32.9048C10.7853 32.1777 11.1263 31.4778 11.5145 30.8012C11.5364 30.762 11.5577 30.7228 11.5843 30.6862C11.6647 30.5745 11.7139 30.5679 11.7836 30.6802C12.3134 31.5363 12.6995 32.4382 12.6038 33.4744L12.6032 33.4751Z" fill="#396746"/>
<path d="M22.3219 41.6479C22.0647 42.5411 21.6094 43.3082 20.9361 43.9482C20.4243 44.4354 19.8614 44.8588 19.2824 45.2609C19.2519 45.2822 19.2206 45.3048 19.1867 45.3207C19.113 45.3566 19.0531 45.3427 19.0332 45.2549C19.0079 45.1453 18.982 45.0349 18.9694 44.9239C18.867 44.0911 18.752 43.2603 18.6736 42.4255C18.5939 41.5734 18.7388 40.7559 19.1488 39.9909C19.5437 39.2544 20.1545 38.7985 20.9388 38.5526C20.9673 38.5439 20.9966 38.5366 21.0258 38.5326C21.1322 38.5207 21.1628 38.5519 21.1342 38.6602C21.1129 38.7387 21.0857 38.8178 21.0491 38.8915C20.417 40.1736 20.086 41.5475 19.8142 42.9399C19.761 43.2091 19.7251 43.483 19.6819 43.7548C19.6786 43.7548 19.6739 43.7575 19.6812 43.7588C19.6859 43.7561 19.6852 43.7555 19.6826 43.7548C19.9823 42.815 20.312 41.8679 20.6224 40.9327C20.859 40.2202 21.1787 39.5422 21.5489 38.8895C21.5748 38.8443 21.5981 38.7965 21.6273 38.7533C21.7038 38.639 21.7457 38.6363 21.8201 38.7559C22.3851 39.6512 22.6237 40.599 22.3212 41.6498L22.3219 41.6479Z" fill="#396746"/>
<path d="M40.1868 43.5324C40.1244 44.0376 40.0466 44.54 39.9728 45.0445C39.921 45.3975 39.8911 45.4094 39.5993 45.2034C38.9552 44.7501 38.3245 44.2788 37.7848 43.7013C37.0836 42.9502 36.6628 42.0629 36.5266 41.046C36.4575 40.5302 36.5312 40.0277 36.738 39.5498C36.8509 39.2893 36.9852 39.038 37.1208 38.7888C37.2138 38.6193 37.267 38.6186 37.3574 38.7961C37.6087 39.2899 37.8705 39.7785 38.0885 40.2869C38.5279 41.3132 38.8263 42.3899 39.152 43.456C39.1732 43.5258 39.247 43.666 39.247 43.666C39.1553 43.113 39.0603 42.5627 38.9446 42.0177C38.8296 41.472 38.6927 40.9323 38.5166 40.3993C38.3531 39.9028 38.1297 39.4262 37.9343 38.941C37.8951 38.844 37.8526 38.7482 37.8213 38.6486C37.7954 38.5641 37.832 38.5183 37.925 38.5302C37.947 38.5329 37.9696 38.5362 37.9908 38.5422C38.6216 38.7522 39.1859 39.0553 39.5774 39.6203C40.0154 40.2524 40.2553 40.9489 40.2932 41.7166C40.3231 42.3254 40.2606 42.9296 40.1862 43.5318L40.1868 43.5324Z" fill="#396746"/>
<path d="M48.9273 38.9342C47.9603 39.3781 46.9872 39.8128 45.9098 39.9085C45.065 39.9836 44.2528 39.8434 43.4858 39.4725C42.9946 39.2339 42.6204 38.8604 42.3173 38.4131C42.209 38.2516 42.108 38.0847 42.0109 37.9159C41.9066 37.7338 41.9299 37.6873 42.1339 37.6939C42.4928 37.7052 42.8531 37.7192 43.2106 37.7517C44.4755 37.8661 45.9038 38.1452 47.1341 38.4403C47.1035 38.4284 47.0716 38.4157 47.041 38.4031C45.8746 37.9724 44.6942 37.5902 43.4639 37.3822C43.1694 37.3317 42.8697 37.3124 42.5719 37.2758C42.4536 37.2612 42.3346 37.2439 42.2183 37.216C42.1485 37.1987 42.1226 37.1456 42.1764 37.0804C42.1957 37.0572 42.217 37.0359 42.2389 37.0153C42.8511 36.457 43.5543 36.1526 44.4004 36.1845C45.1714 36.2137 45.8792 36.4317 46.5113 36.8571C47.1321 37.2745 47.725 37.7338 48.3258 38.1804C48.5425 38.3413 48.7492 38.5161 48.9533 38.6922C49.0875 38.8079 49.0835 38.8624 48.9273 38.9348V38.9342Z" fill="#396746"/>
<path d="M16.9791 37.8632C16.4919 38.803 15.794 39.4836 14.7359 39.7568C13.7947 39.9994 12.8682 39.9755 11.9437 39.6937C11.3056 39.4989 10.6908 39.2437 10.0873 38.9612C10.0601 38.9493 10.0321 38.9366 10.0069 38.9213C9.89123 38.8502 9.88193 38.811 9.98163 38.7173C10.08 38.6249 10.185 38.5405 10.2907 38.4561C10.9693 37.9117 11.6439 37.3641 12.3777 36.8955C12.9267 36.5445 13.5149 36.2993 14.167 36.2129C15.1487 36.0833 16.0067 36.3385 16.7292 37.0218C16.7651 37.055 16.8129 37.1274 16.8003 37.1467C16.7737 37.1886 16.7146 37.2271 16.6634 37.2338C16.3676 37.2757 16.0692 37.3082 15.7714 37.3441C14.928 37.4471 14.1131 37.6711 13.3076 37.9297C12.7592 38.1058 12.2189 38.3059 11.6752 38.4946C12.4927 38.3105 13.3906 38.1636 14.2088 37.9828C15.0529 37.7974 15.9097 37.7163 16.7724 37.6924C16.8096 37.6911 16.8475 37.6891 16.8841 37.6931C17.021 37.705 17.0429 37.7396 16.9791 37.8625V37.8632Z" fill="#396746"/>
<path d="M19.9867 30.3615C19.9595 30.5463 19.9269 30.7311 19.8877 30.9145C19.7269 31.6636 19.3334 32.2638 18.7292 32.7324C17.9941 33.3033 17.1653 33.6323 16.2394 33.7287C15.5655 33.7985 14.8922 33.7772 14.2175 33.7606C14.2102 33.7606 14.2029 33.7599 14.1949 33.7592C13.9464 33.7413 13.9171 33.7034 14.0374 33.496C14.4841 32.733 14.9227 31.9653 15.3946 31.2176C15.8101 30.5616 16.3604 30.0405 17.0689 29.6936C17.8499 29.3107 18.6375 29.2888 19.4431 29.5925C19.4776 29.6058 19.5135 29.6191 19.5454 29.6397C19.6012 29.6763 19.6079 29.7268 19.5554 29.768C19.4903 29.8185 19.4225 29.867 19.3487 29.9023C17.9243 30.5968 16.7286 31.6064 15.5575 32.6513C15.513 32.6911 15.4445 32.7955 15.4133 32.8453C15.503 32.7862 15.5748 32.7397 15.6452 32.6918C16.4063 32.172 17.1613 31.643 17.9296 31.1352C18.5059 30.755 19.1254 30.4519 19.7641 30.1881C19.9954 30.093 20.0253 30.1149 19.9867 30.3622V30.3615Z" fill="#396746"/>
<path d="M6.57121 32.237C6.51139 32.5381 6.45357 32.8392 6.36915 33.1336C6.23556 33.5975 5.97435 33.989 5.62408 34.318C4.86903 35.0292 3.97241 35.44 2.94419 35.5689C2.22038 35.66 1.49391 35.642 0.767444 35.6101C0.730224 35.6088 0.692338 35.6075 0.656447 35.6001C0.575359 35.5829 0.538138 35.5377 0.575359 35.4539C0.590646 35.42 0.605933 35.3861 0.623879 35.3529C1.08116 34.5194 1.54243 33.6866 2.09277 32.909C2.58195 32.219 3.20274 31.7006 4.00298 31.4015C4.70087 31.1403 5.3848 31.2035 6.06408 31.4607C6.10728 31.4766 6.17042 31.5212 6.16976 31.5531C6.16976 31.5923 6.11924 31.6381 6.08069 31.6674C6.02154 31.7126 5.95574 31.7498 5.88861 31.7824C4.7587 32.3287 3.77966 33.0931 2.8312 33.902C2.6092 34.0914 2.41512 34.3247 2.22968 34.5394C2.86509 34.1027 3.49718 33.6587 4.13658 33.2293C4.82848 32.7647 5.55695 32.3673 6.32994 32.0535C6.40305 32.0236 6.4848 32.0157 6.5619 31.9971C6.56589 32.0775 6.58716 32.1606 6.57187 32.2363L6.57121 32.237Z" fill="#396746"/>
<path d="M58.1676 35.6113C57.4484 35.6438 56.7293 35.6585 56.0128 35.5681C54.9999 35.4418 54.1165 35.037 53.3641 34.3464C52.8464 33.8699 52.5705 33.2664 52.4449 32.5858C52.425 32.4754 52.407 32.3644 52.3937 32.2528C52.3559 31.9417 52.3652 31.9278 52.6596 32.0653C53.1269 32.2853 53.5968 32.502 54.0467 32.7539C54.8982 33.2305 55.6851 33.8054 56.4807 34.369C56.603 34.4548 56.7692 34.4973 56.8915 34.5824C55.9889 33.7562 55.059 32.9639 54.0195 32.3133C53.6958 32.1112 53.3515 31.943 53.0199 31.7529C52.9275 31.7004 52.8032 31.6745 52.7846 31.5383C52.877 31.4937 52.966 31.4412 53.0617 31.4067C54.2355 30.9939 55.2378 31.3581 56.1464 32.1072C56.496 32.3957 56.7818 32.7479 57.0191 33.1314C57.4664 33.8586 57.8958 34.597 58.3251 35.3348C58.4554 35.5594 58.4248 35.6006 58.1669 35.6119L58.1676 35.6113Z" fill="#396746"/>
<path d="M44.8226 33.7525C43.8562 33.7864 42.8885 33.8343 41.9387 33.5864C41.2228 33.399 40.5927 33.0513 40.0351 32.5661C39.4735 32.077 39.1644 31.4522 39.0348 30.729C39.0122 30.6034 38.9943 30.4771 38.979 30.3515C38.9464 30.0956 38.9617 30.0783 39.2043 30.1933C39.6981 30.4279 40.2072 30.6386 40.6692 30.9244C41.4867 31.4296 42.5309 32.0803 43.3331 32.6147C43.3331 32.6147 43.3398 32.6186 43.3444 32.622C43.3072 32.5801 43.274 32.5336 43.2328 32.497C42.1294 31.5233 41.0028 30.5828 39.6675 29.9308C39.5805 29.8889 39.4967 29.8357 39.421 29.7759C39.3465 29.7168 39.3578 29.6716 39.4422 29.6237C39.4615 29.6124 39.4821 29.6038 39.5027 29.5965C40.2332 29.3266 40.9596 29.2914 41.6921 29.6038C42.3886 29.8995 42.947 30.3595 43.3896 30.9643C43.9792 31.7699 44.4604 32.6439 44.9349 33.5206C45.028 33.6927 45.0027 33.7459 44.8219 33.7525H44.8226Z" fill="#396746"/>
<path d="M13.9582 14.8791C13.9502 15.002 13.8917 15.026 13.8006 14.9422C13.6684 14.8199 13.5468 14.687 13.4218 14.558C12.7073 13.8203 11.818 13.2753 10.9506 12.7369C11.2942 13.0253 11.6399 13.3145 11.9828 13.6036C12.5458 14.0788 13.0735 14.5893 13.5288 15.1702C13.57 15.2227 13.6072 15.2785 13.6445 15.335C13.6511 15.345 13.6451 15.3636 13.6451 15.4008C13.3427 15.466 13.0336 15.4925 12.7199 15.4746C11.9935 15.4334 11.4338 15.0638 10.94 14.5687C10.5578 14.1852 10.2727 13.7352 10.1025 13.2254C9.939 12.7356 9.80873 12.2357 9.67181 11.7379C9.62662 11.5724 9.65719 11.5385 9.81804 11.5751C10.6575 11.7658 11.4976 11.9513 12.2939 12.2909C12.8542 12.5295 13.2968 12.909 13.6351 13.4155C13.9342 13.8628 13.9934 14.3606 13.9568 14.8797L13.9582 14.8791Z" fill="#396746"/>
<path d="M14.5383 26.4377C14.535 26.4795 14.5084 26.5194 14.4918 26.5606C14.4466 26.5414 14.3967 26.5267 14.3555 26.5008C14.319 26.4762 14.2884 26.441 14.2585 26.4078C13.6025 25.6653 12.8162 25.0791 11.998 24.5314C11.8179 24.4105 11.6331 24.2962 11.451 24.1785C12.0113 24.6537 12.5397 25.1556 13.0807 25.6514C13.4489 25.9904 13.77 26.3812 14.1096 26.7501C14.1588 26.8032 14.1973 26.8684 14.2605 26.9541C14.1787 26.9774 14.1196 27.0006 14.0584 27.0119C12.981 27.21 12.121 26.8225 11.4098 26.0296C11.0223 25.5976 10.7584 25.0964 10.5896 24.5467C10.4633 24.1386 10.357 23.7252 10.2493 23.3125C10.2074 23.1496 10.2407 23.1111 10.4015 23.1496C11.2463 23.3484 12.0984 23.5285 12.8986 23.8768C13.4848 24.1327 13.9461 24.5401 14.2751 25.0924C14.5237 25.5092 14.5696 25.9664 14.5383 26.4377Z" fill="#396746"/>
<path d="M56.44 19.9853C56.2957 20.6221 56.1362 21.2535 55.8504 21.8444C55.554 22.4592 55.116 22.951 54.5457 23.3292C54.0419 23.6616 53.4902 23.7759 52.896 23.7114C52.7491 23.6955 52.6023 23.6702 52.4175 23.6443C52.4866 23.5479 52.5311 23.4808 52.5803 23.4183C53.138 22.7051 53.8093 22.1076 54.5032 21.5327C54.7278 21.3459 54.9525 21.1598 55.1771 20.9724C55.1944 20.9617 55.235 20.8986 55.2509 20.8567L55.1233 20.9265C54.2566 21.4675 53.4238 22.0518 52.7066 22.7855C52.5963 22.8985 52.4919 23.0155 52.3789 23.1258C52.3297 23.1744 52.2673 23.2116 52.1795 23.2774C52.1064 22.7158 52.143 22.2193 52.4155 21.7606C52.7478 21.2023 53.2191 20.8002 53.8126 20.537C54.3623 20.2931 54.9452 20.1528 55.5241 20C55.77 19.9348 56.0172 19.8744 56.2658 19.8225C56.4453 19.7846 56.4785 19.8159 56.4393 19.986L56.44 19.9853Z" fill="#396746"/>
<path d="M45.3641 4.55081C45.2225 5.17093 45.0683 5.78906 44.7991 6.3693C44.4814 7.05456 43.9975 7.5916 43.3528 7.98574C42.7593 8.34798 42.1186 8.35596 41.4612 8.25227C41.3815 8.24031 41.3555 8.20043 41.4034 8.12997C41.4326 8.08611 41.4665 8.04623 41.4991 8.00502C42.0328 7.32175 42.6709 6.7435 43.3355 6.19184C43.5948 5.97716 43.856 5.7638 44.1165 5.54978C43.3601 6.03631 42.5353 6.50556 41.8773 7.12435C41.7304 7.26193 41.5935 7.41148 41.4519 7.55638C41.3941 7.61487 41.3409 7.67867 41.2784 7.73118C41.2346 7.76774 41.1787 7.78967 41.1276 7.81692C41.1076 7.76441 41.0724 7.71323 41.0684 7.6594C41.0219 7.03595 41.1728 6.47432 41.5835 5.98779C41.9185 5.58966 42.3226 5.29323 42.8012 5.09184C43.3555 4.85854 43.9377 4.71897 44.5166 4.56676C44.7486 4.50628 44.9812 4.45244 45.2159 4.40126C45.3608 4.36936 45.398 4.40458 45.3647 4.54948L45.3641 4.55081Z" fill="#396746"/>
<path d="M25.0864 24.7286C24.9994 24.706 24.9156 24.6735 24.8332 24.6376C24.0376 24.294 23.2001 24.1005 22.3507 23.9563C22.0483 23.9045 21.6675 23.8633 21.3498 23.8613C21.3577 23.8579 21.365 23.854 21.3498 23.8613C22.1061 24.074 22.8685 24.2647 23.6156 24.5053C24.0762 24.6535 24.5128 24.8749 24.9608 25.0636C24.9808 25.0723 25.0014 25.0822 25.0206 25.0935C25.1622 25.174 25.1722 25.2145 25.0386 25.2876C24.7628 25.4378 24.4896 25.6 24.1971 25.705C23.6375 25.9071 23.0752 25.8227 22.5222 25.6472C21.9087 25.4524 21.385 25.1095 20.9476 24.6436C20.6259 24.2999 20.3342 23.9277 20.0291 23.5675C20.0045 23.5389 19.9826 23.5083 19.9633 23.4764C19.9154 23.3987 19.94 23.3488 20.0258 23.3289C20.1354 23.3036 20.2444 23.2777 20.3548 23.2578C21.0839 23.1255 21.809 22.9693 22.5534 22.9467C23.25 22.9268 23.8854 23.1029 24.453 23.5143C24.8339 23.7908 25.0419 24.1856 25.2054 24.609C25.2493 24.7233 25.2087 24.7612 25.0864 24.728V24.7286Z" fill="#396746"/>
<path d="M48.701 23.3667C48.5654 23.9496 48.4158 24.5292 48.1686 25.0782C47.8775 25.7229 47.4355 26.2393 46.8532 26.6388C46.3554 26.9791 45.8051 27.1007 45.2095 27.0482C45.1052 27.0396 45.0015 27.0263 44.8971 27.0123C44.7057 26.9864 44.6938 26.9532 44.8161 26.7923C44.834 26.7691 44.8539 26.7458 44.8726 26.7225C45.4674 25.9615 46.1972 25.3394 46.9376 24.7279C47.1224 24.5764 47.2833 24.4002 47.4687 24.248C46.487 24.8721 45.5093 25.5109 44.7217 26.3809C44.6552 26.4547 44.5602 26.5025 44.4784 26.5617C44.4598 26.4646 44.4299 26.3669 44.4239 26.2679C44.3687 25.2696 44.8958 24.601 45.6755 24.0839C46.053 23.8333 46.4823 23.6904 46.915 23.5701C47.4341 23.4258 47.9559 23.2949 48.4783 23.164C48.7229 23.1022 48.7541 23.1307 48.6996 23.366L48.701 23.3667Z" fill="#396746"/>
<path d="M26.2818 3.81905C26.2572 4.45246 25.9927 4.96757 25.5474 5.40225C25.5188 5.4315 25.4623 5.46274 25.4324 5.45144C25.4025 5.44147 25.3772 5.38231 25.3733 5.34111C25.356 5.18956 25.3473 5.03603 25.3407 4.88382C25.3028 4.02841 25.1041 3.20291 24.8788 2.38339C24.8017 2.10291 24.7126 1.82641 24.6288 1.54726C24.5983 1.43892 24.5657 1.32991 24.5338 1.22158C24.5338 1.33124 24.5384 1.42895 24.5657 1.52732C24.5697 1.54194 24.5723 1.5559 24.5743 1.57052C24.6621 2.06835 24.7525 2.56551 24.8362 3.06333C24.9652 3.82702 25.0456 4.59536 25.009 5.37234C25.0077 5.41023 25.0077 5.44878 25.0044 5.48667C24.9924 5.60697 24.9625 5.62691 24.8648 5.56908C24.2161 5.18558 23.7203 4.6831 23.5209 3.92672C23.3095 3.12249 23.3401 2.32956 23.6365 1.55789C23.82 1.08067 24.0473 0.620063 24.2639 0.15547C24.3583 -0.0432619 24.4049 -0.0485791 24.5252 0.122902C24.9485 0.73239 25.3806 1.33723 25.78 1.96399C26.1369 2.5243 26.3078 3.14708 26.2818 3.81905Z" fill="#396746"/>
<path d="M34.9042 4.36813C34.6656 4.91779 34.2269 5.27206 33.7324 5.57115C33.6327 5.63163 33.5922 5.60505 33.5955 5.46414C33.6068 4.96299 33.5908 4.45719 33.652 3.96202C33.747 3.19767 33.8979 2.43996 34.0242 1.6796C34.0475 1.57591 34.0707 1.4709 34.094 1.36654C34.0282 1.47688 33.9823 1.57525 33.9504 1.68491C33.6859 2.51972 33.4606 3.36649 33.3323 4.23386C33.2911 4.51501 33.2871 4.80148 33.2645 5.08462C33.2565 5.18166 33.2499 5.27937 33.2319 5.37508C33.2126 5.48142 33.1615 5.49804 33.0817 5.42027C32.6896 5.02946 32.4111 4.58148 32.3659 4.01121C32.3147 3.37314 32.4357 2.77428 32.7427 2.21265C33.1296 1.50812 33.6068 0.864066 34.0853 0.221345C34.1857 0.0857551 34.2269 0.0890784 34.3053 0.23929C34.6643 0.931861 35.0178 1.62842 35.1388 2.40939C35.2425 3.08069 35.176 3.73803 34.9035 4.36746L34.9042 4.36813Z" fill="#396746"/>
<path d="M49.2976 11.6726C49.2843 11.7537 49.2717 11.8354 49.2471 11.9145C49.0982 12.4084 48.9719 12.9115 48.7872 13.3927C48.5173 14.0973 48.0421 14.6503 47.414 15.0716C46.9275 15.3987 46.3924 15.5256 45.8122 15.4691C45.6433 15.4518 45.4759 15.4286 45.2665 15.4026C45.3376 15.3023 45.3808 15.2345 45.43 15.1727C45.9192 14.5506 46.4908 14.0102 47.0963 13.5051C47.4353 13.2232 47.7516 12.9202 48.0913 12.639C47.1062 13.2618 46.1325 13.8939 45.3423 14.7646C45.2771 14.837 45.206 14.9042 45.1309 14.9646C45.0651 15.0171 45.0179 14.9932 45.0119 14.9088C44.9754 14.3917 45.0146 13.8919 45.3103 13.4399C45.6666 12.8949 46.1445 12.5041 46.744 12.2568C47.3754 11.995 48.0401 11.8414 48.6994 11.6746C48.8589 11.634 49.0211 11.6008 49.182 11.5663C49.2704 11.547 49.3136 11.5822 49.2989 11.6733L49.2976 11.6726Z" fill="#396746"/>
<path d="M38.9856 23.4928C38.5164 24.1163 38.0339 24.7317 37.3818 25.1797C36.7737 25.5978 36.1017 25.8284 35.3573 25.8131C34.7704 25.8012 34.2812 25.5406 33.7894 25.1923C33.8838 25.1358 33.9489 25.09 34.0193 25.0534C34.8222 24.6374 35.6797 24.3722 36.5484 24.1395C36.896 24.0465 37.2429 23.9561 37.5899 23.8644C36.4606 24.0192 35.2503 24.1668 34.1902 24.6134C34.0871 24.6566 33.9815 24.6978 33.8738 24.7277C33.7488 24.7636 33.7143 24.7284 33.7568 24.6121C33.9236 24.1535 34.1602 23.7447 34.579 23.4622C35.1253 23.094 35.7288 22.9285 36.3835 22.9458C37.1366 22.9657 37.8697 23.1233 38.6068 23.2589C38.7098 23.2781 38.8128 23.2987 38.9139 23.326C39.0435 23.3619 39.0607 23.3918 38.9843 23.4921L38.9856 23.4928Z" fill="#396746"/>
<path d="M6.80679 23.1264C6.79814 23.2513 6.74763 23.2679 6.6486 23.1862C6.59077 23.139 6.5376 23.0858 6.48775 23.03C5.93941 22.4172 5.30068 21.9114 4.62805 21.4441C4.40007 21.2866 4.12224 21.1278 3.8052 20.9948C4.28509 21.4009 4.77095 21.8017 5.24485 22.2145C5.66956 22.584 6.05041 22.9974 6.39869 23.4401C6.43857 23.4913 6.46449 23.5537 6.49706 23.6109C6.43059 23.6355 6.36678 23.6727 6.29832 23.6833C5.7327 23.7691 5.17838 23.7465 4.65929 23.4693C4.13953 23.1922 3.72146 22.8027 3.38714 22.3215C3.1904 22.0363 3.02889 21.7306 2.92653 21.4003C2.77964 20.929 2.65136 20.4525 2.52375 19.9766C2.47988 19.8151 2.50913 19.7845 2.67529 19.8204C2.98967 19.8868 3.30206 19.9639 3.61312 20.045C4.13354 20.1819 4.65463 20.3169 5.15047 20.5362C5.72805 20.7921 6.18666 21.1849 6.52298 21.7206C6.79549 22.1546 6.84068 22.6325 6.80679 23.1264Z" fill="#396746"/>
<path d="M17.876 7.73097C17.8694 7.82934 17.8209 7.85326 17.7458 7.79677C17.6806 7.74758 17.6208 7.68843 17.5663 7.62728C16.7601 6.73199 15.7963 6.04873 14.7881 5.41066C14.6837 5.36214 14.6013 5.28903 14.477 5.26443C14.5607 5.32425 14.6425 5.40468 14.7256 5.46449C15.1636 5.82873 15.6042 6.1883 16.0389 6.55652C16.5427 6.9839 17.0087 7.44982 17.4207 7.96692C17.458 8.01411 17.4978 8.05931 17.5311 8.10849C17.5949 8.20686 17.5836 8.23876 17.4746 8.2587C16.7229 8.38831 16.0143 8.31453 15.3769 7.84662C14.8013 7.4239 14.3693 6.89217 14.0928 6.2335C13.8722 5.70643 13.7279 5.15742 13.6016 4.60244C13.597 4.5805 13.593 4.55857 13.5903 4.53597C13.5751 4.40038 13.599 4.37446 13.7379 4.40636C14.0297 4.47217 14.3228 4.53531 14.6106 4.61772C15.0984 4.75863 15.5903 4.89489 16.0675 5.06703C16.6989 5.29301 17.1968 5.70111 17.569 6.26474C17.8667 6.71538 17.9119 7.2132 17.8774 7.7303L17.876 7.73097Z" fill="#396746"/>
<path d="M44.2449 44.8736C44.1771 45.3249 44.0887 45.7736 44.0089 46.2235C44.0003 46.2747 43.989 46.3266 43.975 46.3771C43.9537 46.4582 43.9092 46.4927 43.8281 46.4422C43.8148 46.4342 43.8029 46.4263 43.7909 46.417C43.2479 46.0029 42.7128 45.5795 42.2948 45.0305C41.8993 44.5107 41.672 43.9212 41.6122 43.2738C41.5936 43.0751 41.6108 42.8677 41.6447 42.6703C41.7185 42.2502 41.9226 41.886 42.1911 41.5078C42.2469 41.5976 42.2914 41.66 42.3267 41.7285C42.6803 42.4011 42.9195 43.1189 43.1229 43.8487C43.2372 44.2588 43.3469 44.6716 43.4586 45.0837C43.4725 45.1395 43.5284 45.2445 43.535 45.2565C43.5217 45.19 43.5091 45.1229 43.4951 45.0564C43.426 44.6131 43.3675 44.1678 43.2858 43.7264C43.1601 43.0478 42.9674 42.3872 42.6909 41.7524C42.655 41.6687 42.6577 41.569 42.6417 41.4772C42.7328 41.4985 42.8265 41.5098 42.9122 41.5437C43.7756 41.882 44.1478 42.5839 44.2994 43.4426C44.3838 43.9225 44.3173 44.4004 44.2449 44.8743V44.8736Z" fill="#396746"/>
<path d="M17.2277 43.9153C17.0543 44.4789 16.7778 44.982 16.3544 45.3895C15.9935 45.7364 15.6007 46.0501 15.2211 46.3792C15.2152 46.3838 15.2098 46.3878 15.2032 46.3924C15.0417 46.5061 15.0064 46.4968 14.9706 46.3067C14.8848 45.8501 14.7931 45.3935 14.7313 44.9342C14.6794 44.55 14.6509 44.1599 14.6389 43.7717C14.6256 43.3443 14.7545 42.9455 14.94 42.562C15.1992 42.025 15.6259 41.684 16.1789 41.488C16.2234 41.472 16.2773 41.4813 16.3265 41.48C16.3238 41.5285 16.3271 41.579 16.3165 41.6262C16.3025 41.6847 16.2799 41.7412 16.256 41.7957C15.8785 42.6451 15.6944 43.5464 15.5402 44.4556C15.5142 44.6112 15.4916 44.766 15.4671 44.9216C15.6465 44.2955 15.8805 43.6707 16.0878 43.0539C16.2474 42.5807 16.4654 42.1267 16.6668 41.6674C16.7379 41.5052 16.7744 41.5092 16.8721 41.6501C17.3547 42.348 17.4796 43.1004 17.2284 43.9159L17.2277 43.9153Z" fill="#396746"/>
<path d="M30.9371 22.754C30.874 23.3076 30.6885 23.8161 30.3609 24.2694C30.0378 24.7167 29.5706 24.944 29.0628 25.1062C28.9684 25.1361 28.9385 25.0989 28.9711 24.9746C29.0741 24.5765 29.1578 24.1704 29.2981 23.7862C29.5221 23.1747 29.7893 22.5114 29.9913 21.8906C29.7321 22.3804 29.4483 22.8577 29.2203 23.3615C28.993 23.862 28.8222 24.387 28.5995 24.9719C28.5596 24.8968 28.5417 24.8549 28.5184 24.8177C28.2007 24.3099 28.1024 23.7689 28.2526 23.1827C28.3735 22.7148 28.6002 22.308 28.9232 21.9531C29.3984 21.4306 29.9388 20.978 30.4792 20.5261C30.6048 20.4204 30.6327 20.4277 30.6713 20.5825C30.8514 21.2951 31.0222 22.0096 30.9378 22.7546L30.9371 22.754Z" fill="#396746"/>
<path d="M30.4357 14.5804C30.4244 14.6787 30.3772 14.694 30.3014 14.6289C30.2503 14.585 30.2044 14.5339 30.1612 14.4827C29.4833 13.6671 28.6478 13.0357 27.7831 12.4369C28.2723 12.934 28.7834 13.4239 29.2832 13.9197C29.5637 14.1975 29.7983 14.5232 30.0529 14.8276C30.0715 14.8502 30.0907 14.8742 30.106 14.8987C30.1692 15.0011 30.1572 15.0317 30.0442 15.0456C29.9332 15.0589 29.8202 15.0682 29.7086 15.0729C29.2167 15.0908 28.7574 14.9885 28.3454 14.7047C27.6827 14.2474 27.2467 13.6273 27.0214 12.8616C26.9011 12.4528 26.816 12.0347 26.7223 11.6187C26.6844 11.4525 26.7196 11.416 26.8771 11.4651C27.5265 11.6685 28.1805 11.8599 28.8199 12.0932C29.3816 12.2986 29.8295 12.6682 30.1612 13.1753C30.445 13.6093 30.4902 14.0826 30.4364 14.5777L30.4357 14.5804Z" fill="#396746"/>
<path d="M36.1923 17.3769C36.1816 17.8667 35.9743 18.2722 35.6639 18.6351C35.6419 18.661 35.5868 18.6956 35.5768 18.6876C35.5449 18.6643 35.515 18.6238 35.509 18.5866C35.4724 18.3725 35.4485 18.1559 35.4106 17.9418C35.2644 17.0964 34.9799 16.2928 34.6662 15.4979C34.7958 16.0283 34.8922 16.6066 34.9985 17.1416C35.0896 17.6035 35.1348 18.0748 35.1953 18.5427C35.2072 18.6364 35.1966 18.7341 35.1966 18.8451C35.1454 18.8351 35.1075 18.8365 35.0763 18.8218C34.2913 18.4556 33.8234 17.8475 33.6772 16.992C33.5862 16.4656 33.5974 15.9446 33.7596 15.4354C33.8932 15.0154 34.0507 14.6026 34.2083 14.1899C34.2761 14.0104 34.3126 14.0058 34.4329 14.1433C34.8895 14.6704 35.3475 15.1968 35.7283 15.7824C36.0427 16.2669 36.2036 16.796 36.1916 17.3762L36.1923 17.3769Z" fill="#396746"/>
<path d="M41.5721 19.2422C41.5675 19.2755 41.5356 19.3074 41.5117 19.3346C41.2132 19.6809 40.9301 20.0418 40.6117 20.3675C40.0581 20.9331 39.3755 21.2502 38.5838 21.3239C38.1758 21.3618 37.7949 21.2615 37.4373 21.074C37.2798 20.9916 37.1316 20.8926 36.9395 20.7783C37.0538 20.7125 37.1269 20.6666 37.204 20.6274C37.874 20.2851 38.5865 20.0604 39.3097 19.8644C39.6054 19.7839 39.9025 19.7088 40.199 19.6311C39.2645 19.7647 38.1605 19.9002 37.2851 20.2705C37.2027 20.305 37.1183 20.3396 37.0319 20.3622C36.9235 20.3921 36.8857 20.3549 36.9262 20.2492C37.0631 19.8976 37.2319 19.5646 37.541 19.3266C37.9877 18.981 38.4968 18.8069 39.0577 18.7836C39.5556 18.7624 40.0428 18.8534 40.5306 18.9325C40.8184 18.9797 41.1036 19.0395 41.39 19.0953C41.4412 19.1053 41.497 19.1126 41.5389 19.1392C41.5635 19.1545 41.5761 19.209 41.5715 19.2416L41.5721 19.2422Z" fill="#396746"/>
<path d="M21.7966 20.6485C21.8624 20.6771 21.9196 20.7223 22.0053 20.7748C21.5035 21.1364 20.9924 21.3763 20.3836 21.3238C19.6245 21.2587 18.9586 20.9656 18.4189 20.4319C18.0686 20.0856 17.7608 19.6954 17.4411 19.3192C17.3295 19.187 17.3474 19.1378 17.5043 19.1092C18.2759 18.9656 19.043 18.7835 19.8359 18.7842C20.2633 18.7842 20.6627 18.8938 21.0449 19.0833C21.5361 19.3272 21.8458 19.7227 22.0259 20.2311C22.0399 20.269 22.0339 20.3136 22.0379 20.3561C21.9947 20.3568 21.9508 20.3667 21.9103 20.3574C21.8518 20.3455 21.7953 20.3242 21.7408 20.2996C20.9545 19.948 20.1184 19.7798 19.2763 19.6383C19.1579 19.6183 18.9007 19.609 18.7818 19.5917C19.4152 19.7725 20.0539 19.9786 20.6787 20.1813C21.0615 20.3056 21.4251 20.4877 21.796 20.6472L21.7966 20.6485Z" fill="#396746"/>
<path d="M24.9694 17.8785C24.7261 18.3251 24.324 18.5983 23.884 18.8223C23.7903 18.8702 23.7637 18.8456 23.7657 18.7166C23.7717 18.2201 23.8288 17.7289 23.9392 17.2464C24.0688 16.6775 24.2156 16.1118 24.3546 15.5456C24.0694 16.2787 23.7271 17.0178 23.5789 17.7928C23.5344 18.028 23.5058 18.266 23.4692 18.5033C23.4633 18.5405 23.4619 18.5784 23.4513 18.6143C23.424 18.7067 23.3735 18.7226 23.3104 18.6482C23.0366 18.3225 22.8199 17.9696 22.784 17.5295C22.7321 16.8928 22.8877 16.3119 23.2353 15.7788C23.6175 15.1933 24.0747 14.6675 24.5307 14.1405C24.6443 14.0102 24.6809 14.0155 24.746 14.1711C25.0119 14.7985 25.2705 15.4312 25.3289 16.1198C25.3808 16.7399 25.2671 17.3302 24.9687 17.8778L24.9694 17.8785Z" fill="#396746"/>
<path d="M204.667 22.0923C204.667 21.0833 205.028 20.3007 205.748 19.7447C206.49 19.1681 207.54 18.8798 208.899 18.8798V26.8801C208.59 27.2096 208.333 27.5597 208.127 27.9303L208.343 28.0539C209.723 26.0564 211.514 25.0576 213.718 25.0576C214.747 25.0576 215.653 25.2945 216.436 25.7681C217.239 26.2417 217.867 26.9007 218.32 27.745C218.773 28.5687 219 29.4954 219 30.525V38.587C219 39.4725 218.65 40.1109 217.95 40.5021C217.249 40.8728 216.189 41.0581 214.768 41.0581V31.1737C214.768 30.4735 214.541 29.8866 214.088 29.413C213.656 28.9394 213.038 28.7025 212.235 28.7025C211.247 28.7025 210.443 29.0217 209.826 29.6601C209.208 30.2985 208.899 31.1016 208.899 32.0694V38.587C208.899 39.4725 208.549 40.1109 207.849 40.5021C207.149 40.8728 206.088 41.0581 204.667 41.0581V22.0923Z" fill="#396746"/>
<path d="M195.415 41.0582C194.056 41.0582 192.851 40.811 191.801 40.3168C190.751 39.8226 189.927 39.143 189.33 38.2781C188.753 37.3927 188.465 36.3939 188.465 35.2819V31.1737C188.465 29.9793 188.753 28.9188 189.33 27.9921C189.927 27.0654 190.751 26.3447 191.801 25.8299C192.851 25.3151 194.046 25.0577 195.384 25.0577C196.64 25.0577 197.752 25.243 198.72 25.6137C199.688 25.9637 200.44 26.458 200.975 27.0963C201.531 27.7347 201.809 28.4657 201.809 29.2894C201.809 29.969 201.541 30.5147 201.006 30.9266C200.471 31.3384 199.76 31.5443 198.875 31.5443C198.607 31.5443 198.411 31.534 198.288 31.5135C198.288 30.6897 198.03 30.0205 197.515 29.5057C197.001 28.9703 196.331 28.7026 195.508 28.7026C194.684 28.7026 194.004 28.96 193.469 29.4748C192.954 29.969 192.697 30.6074 192.697 31.3899V34.973C192.697 35.6938 192.954 36.2807 193.469 36.7337C194.004 37.1867 194.694 37.4133 195.539 37.4133C196.362 37.4133 197.032 37.1558 197.546 36.641C198.082 36.1262 198.349 35.457 198.349 34.6332C198.494 34.6127 198.7 34.6024 198.967 34.6024C199.853 34.6024 200.563 34.8083 201.099 35.2201C201.634 35.6114 201.902 36.1468 201.902 36.8264C201.902 37.6501 201.624 38.3811 201.068 39.0195C200.532 39.6579 199.77 40.1624 198.782 40.533C197.793 40.8831 196.671 41.0582 195.415 41.0582Z" fill="#396746"/>
<path d="M171.033 28.2701C171.033 27.2405 171.373 26.4477 172.053 25.8917C172.732 25.3357 173.741 25.0577 175.08 25.0577V26.8801C174.771 27.2096 174.513 27.5597 174.307 27.9303L174.524 28.0539C175.141 27.1066 175.924 26.3756 176.871 25.8608C177.839 25.3254 178.91 25.0577 180.084 25.0577C181.113 25.0577 182.019 25.2945 182.802 25.7681C183.605 26.2417 184.233 26.9007 184.686 27.745C185.139 28.5687 185.366 29.4954 185.366 30.525V38.587C185.366 39.4725 185.016 40.1109 184.315 40.5022C183.615 40.8728 182.555 41.0582 181.134 41.0582V31.1737C181.134 30.4735 180.907 29.8866 180.454 29.413C180.022 28.9394 179.404 28.7026 178.601 28.7026C177.613 28.7026 176.809 29.0217 176.192 29.6601C175.574 30.2985 175.265 31.1016 175.265 32.0695V38.587C175.265 39.4725 174.915 40.1109 174.215 40.5022C173.535 40.8728 172.475 41.0582 171.033 41.0582V28.2701Z" fill="#396746"/>
<path d="M156.8 47.236C155.935 47.236 155.256 46.9271 154.761 46.3093C154.267 45.7121 154.02 44.8266 154.02 43.6528C154.617 43.7764 155.163 43.8382 155.657 43.8382C156.172 43.8382 156.594 43.7558 156.924 43.5911C157.253 43.4469 157.562 43.1689 157.85 42.757C158.159 42.3452 158.499 41.7274 158.87 40.9037L159.333 39.8535L153.402 25.3974C153.546 25.2945 153.814 25.2121 154.205 25.1503C154.617 25.0885 154.957 25.0577 155.225 25.0577C155.863 25.0577 156.45 25.1915 156.985 25.4592C157.541 25.7269 157.912 26.1079 158.097 26.6021L161.125 34.6641L160.599 36.1777L160.877 36.2704L164.646 26.6021C164.852 26.0873 165.212 25.7063 165.727 25.4592C166.262 25.1915 166.86 25.0577 167.519 25.0577C167.786 25.0577 168.116 25.0885 168.507 25.1503C168.919 25.2121 169.197 25.2945 169.341 25.3974L162.453 42.1393C161.732 43.8896 160.929 45.1767 160.043 46.0004C159.179 46.8241 158.097 47.236 156.8 47.236Z" fill="#396746"/>
<path d="M143.909 41.0581C141.026 41.0581 138.74 40.5639 137.051 39.5755C135.383 38.587 134.549 37.2176 134.549 35.4672C134.549 34.7053 134.837 34.0875 135.414 33.6139C135.991 33.1403 136.959 32.9035 138.318 32.9035C138.4 34.4067 138.915 35.5496 139.862 36.3321C140.83 37.0941 142.179 37.475 143.909 37.475C145.247 37.475 146.297 37.2485 147.059 36.7955C147.821 36.3218 148.202 35.6732 148.202 34.8495C148.202 34.2935 148.058 33.8404 147.77 33.4903C147.481 33.1403 146.977 32.8211 146.256 32.5328C145.556 32.2445 144.526 31.9459 143.167 31.637C141.108 31.1634 139.491 30.628 138.318 30.0308C137.144 29.4336 136.289 28.7231 135.754 27.8994C135.239 27.0757 134.982 26.0461 134.982 24.8105C134.982 23.6368 135.332 22.6071 136.032 21.7216C136.753 20.8156 137.751 20.1154 139.028 19.6212C140.305 19.127 141.788 18.8798 143.476 18.8798C145.082 18.8798 146.524 19.0961 147.801 19.5285C149.077 19.9404 150.076 20.5273 150.797 21.2892C151.518 22.0511 151.878 22.9263 151.878 23.9148C151.878 24.6767 151.59 25.2842 151.013 25.7372C150.457 26.1696 149.53 26.4065 148.233 26.4476C148.13 25.0679 147.708 24.0589 146.967 23.4205C146.225 22.7822 145.062 22.463 143.476 22.463C142.179 22.463 141.18 22.6689 140.48 23.0807C139.78 23.4926 139.43 24.0898 139.43 24.8723C139.43 25.4077 139.564 25.8505 139.831 26.2005C140.099 26.53 140.552 26.8286 141.19 27.0963C141.849 27.364 142.786 27.6317 144.001 27.8994C146.122 28.3731 147.801 28.9188 149.036 29.5365C150.292 30.1337 151.198 30.8545 151.754 31.6988C152.331 32.5431 152.619 33.583 152.619 34.8186C152.619 36.0747 152.259 37.1764 151.538 38.1237C150.838 39.071 149.829 39.802 148.511 40.3168C147.214 40.811 145.68 41.0581 143.909 41.0581Z" fill="#396746"/>
<path d="M120.661 23.9677C120.661 23.3323 120.855 22.8469 121.244 22.5115C121.632 22.1761 122.206 22.0085 122.965 22.0085V28.9717C122.718 29.2541 122.523 29.5013 122.382 29.7131L122.488 29.819C123.035 29.0776 123.724 28.4775 124.553 28.0186C125.383 27.542 126.283 27.3037 127.254 27.3037C128.684 27.3037 129.813 27.7273 130.643 28.5746C131.472 29.4218 131.887 30.5162 131.887 31.8576V39.324C131.887 39.9064 131.693 40.3389 131.305 40.6213C130.934 40.8861 130.36 41.0184 129.584 41.0184V32.0959C129.584 31.2487 129.345 30.578 128.869 30.0837C128.392 29.5895 127.669 29.3424 126.698 29.3424C126.045 29.3424 125.427 29.4836 124.844 29.766C124.28 30.0308 123.821 30.4014 123.468 30.878C123.132 31.3369 122.965 31.84 122.965 32.3872V39.324C122.965 39.9064 122.771 40.3389 122.382 40.6213C122.012 40.8861 121.438 41.0184 120.661 41.0184V23.9677Z" fill="#396746"/>
<path d="M115.407 41.0184C114.154 41.0184 113.218 40.6654 112.6 39.9594C111.982 39.2357 111.674 38.2914 111.674 37.1264V29.3953H109.211C109.211 28.7952 109.344 28.3363 109.608 28.0186C109.873 27.7009 110.235 27.542 110.694 27.542H111.7V25.0268C111.7 24.4443 111.885 24.0207 112.256 23.7559C112.644 23.4735 113.218 23.3323 113.977 23.3323V27.542H117.498C117.498 28.7776 116.942 29.3953 115.83 29.3953H114.003V37.047C114.003 37.753 114.127 38.2561 114.374 38.5561C114.639 38.8385 115.107 38.9798 115.777 38.9798C116.395 38.9798 116.978 38.8209 117.525 38.5032C117.754 38.7326 117.869 39.0415 117.869 39.4298C117.869 39.8535 117.648 40.2241 117.207 40.5419C116.766 40.8596 116.166 41.0184 115.407 41.0184Z" fill="#396746"/>
<path d="M101.605 41.0184C100.087 41.0184 98.8604 40.6125 97.9249 39.8005C97.0071 38.9886 96.5482 37.9207 96.5482 36.5969C96.5482 35.2554 97.0336 34.1787 98.0044 33.3668C98.9751 32.5372 100.255 32.1224 101.843 32.1224C103.538 32.1224 104.932 32.7225 106.027 33.9228L106.133 33.8169C105.938 33.6051 105.718 33.3844 105.471 33.155V32.043C105.471 31.1428 105.188 30.4456 104.623 29.9513C104.059 29.4571 103.255 29.21 102.214 29.21C100.361 29.21 99.0369 29.9425 98.2426 31.4075C97.9602 31.2663 97.7219 31.081 97.5278 30.8515C97.3513 30.6044 97.263 30.3573 97.263 30.1102C97.263 29.6336 97.5013 29.1835 97.9779 28.7599C98.4544 28.3186 99.0811 27.9656 99.8577 27.7009C100.652 27.4361 101.482 27.3037 102.346 27.3037C104.023 27.3037 105.338 27.7185 106.291 28.5481C107.262 29.3777 107.748 30.525 107.748 31.99V39.2445C107.748 39.8623 107.571 40.3124 107.218 40.5948C106.865 40.8772 106.309 41.0184 105.55 41.0184V39.774C105.921 39.3857 106.124 39.1563 106.159 39.0857L106.053 38.9798C104.906 40.3389 103.423 41.0184 101.605 41.0184ZM102.002 39.1916C103.097 39.1916 103.953 38.9621 104.57 38.5032C105.206 38.0443 105.524 37.4088 105.524 36.5969C105.524 35.785 105.215 35.1407 104.597 34.6641C103.979 34.1876 103.132 33.9493 102.055 33.9493C101.049 33.9493 100.255 34.1876 99.6724 34.6641C99.1075 35.123 98.8251 35.7673 98.8251 36.5969C98.8251 37.4265 99.0987 38.0707 99.6459 38.5297C100.211 38.9709 100.996 39.1916 102.002 39.1916Z" fill="#396746"/>
<path d="M80.9727 23.4117C80.9727 23.0763 81.0874 22.8028 81.3168 22.5909C81.564 22.3615 81.8729 22.2467 82.2435 22.2467H89.9746C91.1395 22.2467 92.1721 22.4939 93.0723 22.9881C93.9725 23.4647 94.6697 24.1442 95.1639 25.0268C95.6582 25.8917 95.9053 26.8889 95.9053 28.0186C95.9053 29.1835 95.6582 30.2073 95.1639 31.0898C94.6874 31.9724 93.999 32.6519 93.0988 33.1285C92.1986 33.6051 91.1572 33.8434 89.9746 33.8434H83.4614V38.9533C83.4614 39.624 83.2496 40.1359 82.826 40.4889C82.4024 40.8419 81.7846 41.0184 80.9727 41.0184V23.4117ZM89.9746 31.6458C91.0336 31.6458 91.8721 31.3281 92.4898 30.6927C93.1076 30.0396 93.4165 29.1482 93.4165 28.0186C93.4165 26.9242 93.0988 26.0593 92.4634 25.4239C91.8456 24.7708 91.016 24.4443 89.9746 24.4443H83.4614V31.6458H89.9746Z" fill="#396746"/>
</svg>
