<svg width="45" height="45" viewBox="0 0 45 45" fill="none" xmlns="http://www.w3.org/2000/svg">
<path fill-rule="evenodd" clip-rule="evenodd" d="M21.0106 33.051L11.9657 24.0019C12.9603 22.337 13.9517 20.6141 14.9334 18.9009C18.2038 13.2138 21.3968 7.66195 24.3903 4.77333C32.5147 -3.35476 43.6421 1.35979 43.6421 1.35979C43.6421 1.35979 48.3513 12.4924 40.2302 20.6205C37.3654 23.5897 31.9031 26.7391 26.2605 29.9852C24.503 30.9996 22.7294 32.0205 21.0106 33.051ZM27.8989 12.0158C27.8989 10.6647 28.4354 9.36885 29.3903 8.41344C30.3453 7.45802 31.6405 6.92128 32.991 6.92128C34.3416 6.92128 35.6368 7.45802 36.5918 8.41344C37.5467 9.36885 38.0832 10.6647 38.0832 12.0158C38.0498 13.3444 37.4988 14.6073 36.5478 15.5351C35.5968 16.463 34.321 16.9823 32.9927 16.9823C31.6643 16.9823 30.3885 16.463 29.4375 15.5351C28.4865 14.6073 27.9323 13.3444 27.8989 12.0158ZM14.7339 11.2687C10.1696 10.0547 5.88533 12.3024 2.0839 15.79C1.90859 15.9553 1.77432 16.1592 1.6918 16.3856C1.60929 16.6119 1.58081 16.8545 1.60864 17.0938C1.63647 17.3331 1.71984 17.5627 1.8521 17.764C1.98436 17.9654 2.16184 18.133 2.37037 18.2536L8.50223 21.9505L8.50867 21.9376C9.39385 20.4563 10.382 18.7399 11.3863 17.0009C12.529 15.0139 13.691 12.998 14.7339 11.2687ZM23.061 36.516L26.7562 42.6507C26.877 42.8591 27.0447 43.0364 27.2462 43.1684C27.4476 43.3004 27.677 43.3835 27.9163 43.4111C28.1555 43.4386 28.3978 43.4098 28.6239 43.327C28.85 43.2442 29.0537 43.1096 29.2186 42.9341C32.7046 39.1341 34.9545 34.8447 33.7378 30.2783C32.0576 31.2894 30.2937 32.3071 28.5458 33.315L28.2787 33.4696C26.5148 34.4872 24.767 35.492 23.0771 36.5064L23.061 36.516ZM8.3767 30.0883C9.67765 30.0652 10.955 30.4371 12.0405 31.1549C13.126 31.8727 13.9686 32.9027 14.4572 34.1092C14.9459 35.3156 15.0576 36.6419 14.7777 37.9132C14.4979 39.1845 13.8395 40.3411 12.8895 41.2306C12.1749 41.9133 11.058 42.4479 10.0247 42.8601C8.86664 43.3093 7.6846 43.6942 6.48403 44.0129C5.30272 44.335 4.17613 44.5926 3.32314 44.7633C2.96451 44.8369 2.60386 44.9002 2.24162 44.9533C2.09925 44.9704 1.95651 44.9844 1.81351 44.9951C1.59852 45.0113 1.3824 44.9872 1.17619 44.9243C0.874784 44.8348 0.605493 44.6604 0.40045 44.4219C0.2262 44.2183 0.104613 43.9751 0.0463794 43.7134C0.00293809 43.5279 -0.0101068 43.3364 0.00775352 43.1467C0.01741 43.0178 0.0367229 42.8697 0.0560359 42.7345C0.0978806 42.4511 0.162257 42.0807 0.249165 41.6589C0.419763 40.8087 0.683707 39.688 1.00559 38.5126C1.32747 37.3404 1.72017 36.0845 2.16115 34.9864C2.57316 33.9527 3.10748 32.8384 3.78987 32.1267C4.37903 31.497 5.08862 30.992 5.87654 30.6419C6.66447 30.2917 7.51467 30.1034 8.3767 30.0883Z" fill="#396746"/>
</svg>
