<svg width="40" height="40" viewBox="0 0 40 40" fill="none" xmlns="http://www.w3.org/2000/svg">
<g clip-path="url(#clip0_713_154)">
<path d="M28.0182 19.9221C28.8473 19.9221 29.6309 19.9221 30.46 19.9221C30.46 19.7115 30.46 19.5673 30.46 19.4121C30.46 17.0507 30.46 14.6782 30.46 12.3168C30.46 11.6405 30.5849 11.5186 31.2777 11.5186C33.3334 11.5186 35.389 11.5186 37.4447 11.5186C38.0466 11.5186 38.1829 11.6627 38.1942 12.2613C38.1942 16.1194 38.1942 19.9775 38.2056 23.8356C38.2056 24.0795 38.2851 24.3567 38.4214 24.5562C42.385 30.7092 38.5463 38.8356 31.1755 39.8888C25.4969 40.6982 20.1477 36.707 19.4776 31.1638C19.2618 29.3789 19.5003 27.6715 20.2045 26.0086C20.284 25.809 20.318 25.5873 20.318 25.3656C20.3294 22.8046 20.318 20.2436 20.318 17.6937C20.318 17.0507 20.443 16.9288 21.113 16.9288C23.1346 16.9288 25.1675 16.9288 27.1891 16.9288C27.9046 16.9288 28.0182 17.0396 28.0182 17.7602C28.0182 18.4919 28.0182 19.2237 28.0182 19.9221ZM38.9665 29.9443C38.9665 24.9332 34.7984 20.8645 29.6763 20.8755C24.5543 20.8866 20.4202 24.9332 20.4089 29.9332C20.4089 34.9443 24.577 39.013 29.6991 39.0019C34.8212 38.9908 38.9665 34.9332 38.9665 29.9443ZM37.138 22.86C37.138 19.4454 37.138 15.9975 37.138 12.5496C35.2527 12.5496 33.3901 12.5496 31.5049 12.5496C31.4935 12.6272 31.4821 12.6826 31.4821 12.727C31.4821 15.0662 31.4821 17.3944 31.4708 19.7336C31.4708 19.9886 31.5844 20.0441 31.8115 20.0995C32.9131 20.3212 33.9694 20.6871 34.912 21.2857C35.6843 21.7625 36.3998 22.3279 37.138 22.86ZM26.9961 17.9598C25.088 17.9598 23.2255 17.9598 21.3743 17.9598C21.3743 19.9664 21.3743 21.9398 21.3743 23.9908C22.8166 22.1727 24.577 20.9421 26.7689 20.288C26.8598 20.2547 26.9847 20.1327 26.9961 20.0551C27.0074 19.3567 26.9961 18.6693 26.9961 17.9598Z" fill="#396746"/>
<path d="M17.4674 7.12825C18.728 7.84888 19.9773 8.55841 21.2152 9.25686C22.8166 7.52737 25.088 7.48302 26.7462 8.86883C28.1999 7.7491 29.6423 6.61828 31.1187 5.47637C30.5508 4.43424 30.4373 3.36994 30.8802 2.27238C31.2209 1.44089 31.8001 0.820051 32.6065 0.409851C34.2306 -0.410548 36.1954 0.0329112 37.2856 1.45198C38.3873 2.89322 38.251 4.8777 36.9676 6.16373C35.8319 7.30564 33.6513 7.8267 31.7433 6.26351C30.301 7.38324 28.8473 8.50298 27.4276 9.61162C27.5752 10.0994 27.757 10.5429 27.8251 11.0085C28.0636 12.4608 27.3367 13.8799 26.0307 14.6227C24.7587 15.3544 23.1346 15.2657 21.9534 14.401C20.7382 13.5141 20.1817 12.0285 20.5906 10.6094C20.7155 10.1881 20.6133 10.0218 20.2385 9.82227C19.1369 9.23468 18.0579 8.59167 16.9449 7.95974C16.1954 8.8134 15.2527 9.31229 14.1056 9.34555C12.9472 9.36772 11.9932 8.92426 11.1982 8.09278C9.8694 8.93535 8.56332 9.75575 7.22318 10.5983C7.68882 11.707 7.68882 12.7934 7.10961 13.8467C6.68939 14.6227 6.05339 15.177 5.21296 15.4985C3.54345 16.1526 1.63544 15.5318 0.68144 14.0351C-0.272563 12.5274 0.0227237 10.5761 1.39694 9.40098C2.89609 8.12604 4.77003 8.2369 6.67803 9.74466C7.31403 9.34555 7.97275 8.93535 8.62011 8.52515C9.27883 8.11495 9.92619 7.70475 10.5963 7.28346C9.91483 5.39876 10.3123 3.8134 12.0386 2.67149C13.2879 1.85109 14.9801 1.95087 16.184 2.8267C17.5582 3.80231 17.9898 5.25464 17.4674 7.12825ZM16.6951 5.73136C16.6951 4.29012 15.5139 3.12604 14.0261 3.10386C12.5383 3.09278 11.3231 4.27903 11.3231 5.73136C11.3231 7.1726 12.5156 8.34777 13.9921 8.35885C15.4798 8.38103 16.6951 7.19477 16.6951 5.73136ZM34.3328 6.24134C35.8206 6.24134 37.0017 5.07726 37.0017 3.63602C37.0017 2.1726 35.7979 0.997434 34.3101 0.997434C32.8223 0.997434 31.6298 2.18369 31.6298 3.65819C31.6525 5.08834 32.845 6.24134 34.3328 6.24134ZM24.1681 14.1349C25.6672 14.1349 26.8825 12.9487 26.8711 11.4963C26.8597 10.0662 25.6445 8.891 24.1794 8.87992C22.6917 8.87992 21.4651 10.0883 21.4764 11.5296C21.4878 12.9708 22.6803 14.1349 24.1681 14.1349ZM1.15844 12.095C1.12437 13.5141 2.32823 14.7336 3.79331 14.7668C5.26974 14.8001 6.51903 13.6249 6.5531 12.1726C6.57582 10.7424 5.39467 9.54511 3.91824 9.51185C2.41909 9.47859 1.18116 10.6316 1.15844 12.095Z" fill="#396746"/>
<path d="M10.142 24.1019C10.142 21.175 10.142 18.2371 10.142 15.3103C10.142 14.6008 10.2555 14.501 10.9824 14.501C13.0267 14.501 15.0596 14.501 17.1039 14.501C17.7399 14.501 17.8649 14.634 17.8649 15.2549C17.8649 21.1418 17.8649 27.0287 17.8649 32.9267C17.8649 33.5365 17.7172 33.6806 17.0926 33.6917C15.0256 33.6917 12.9585 33.6917 10.8915 33.6917C10.301 33.6917 10.142 33.5365 10.142 32.9489C10.142 29.9999 10.142 27.0509 10.142 24.1019ZM16.8313 15.5209C14.9347 15.5209 13.0721 15.5209 11.1982 15.5209C11.1982 21.2526 11.1982 26.9511 11.1982 32.6606C13.0835 32.6606 14.9461 32.6606 16.8313 32.6606C16.8313 26.9511 16.8313 21.2526 16.8313 15.5209Z" fill="#396746"/>
<path d="M7.70017 26.2859C7.70017 28.481 7.70017 30.6872 7.70017 32.8823C7.70017 33.5586 7.57525 33.6806 6.88246 33.6806C4.83816 33.6806 2.80523 33.6806 0.760936 33.6806C0.124934 33.6806 -0.0113525 33.5475 -0.0113525 32.9267C-0.0113525 28.5143 -0.0113525 24.1018 -0.0113525 19.6894C-0.0113525 19.0686 0.124934 18.9355 0.760936 18.9355C2.81659 18.9355 4.87224 18.9355 6.92789 18.9355C7.56389 18.9355 7.70017 19.0686 7.70017 19.6894C7.71153 21.8845 7.70017 24.0908 7.70017 26.2859ZM1.05622 19.9555C1.05622 24.2127 1.05622 28.4367 1.05622 32.6606C2.94152 32.6606 4.79274 32.6606 6.64396 32.6606C6.64396 28.4145 6.64396 24.1905 6.64396 19.9555C4.77002 19.9555 2.9188 19.9555 1.05622 19.9555Z" fill="#396746"/>
<path d="M37.5355 29.9776C37.5128 34.2237 33.9921 37.6272 29.6309 37.594C25.3152 37.5718 21.8399 34.1128 21.8626 29.8778C21.8853 25.676 25.406 22.2725 29.7104 22.2725C34.0375 22.2835 37.5582 25.7314 37.5355 29.9776ZM29.1198 23.2259C28.3135 23.4365 27.5412 23.6472 26.7008 23.8578C26.837 24.1017 26.9165 24.2459 27.0074 24.39C27.1891 24.6893 27.2345 24.9665 26.9052 25.1882C26.644 25.3656 26.3373 25.2436 26.1102 24.8778C26.0193 24.7447 25.9398 24.6006 25.7922 24.3789C25.1789 24.9886 24.5997 25.543 24.0318 26.1084C24.3725 26.5075 25.213 26.5518 24.8041 27.2059C24.4293 27.8379 23.975 27.1838 23.4526 27.084C23.2482 27.849 23.0324 28.625 22.8052 29.4565C23.146 29.4565 23.3504 29.4565 23.5548 29.4565C23.8728 29.4676 24.0659 29.6228 24.0772 29.9332C24.0886 30.2547 23.8842 30.4099 23.5775 30.4432C23.3617 30.4654 23.1346 30.4432 22.7939 30.4432C23.0324 31.2858 23.2368 32.0396 23.464 32.86C23.7138 32.727 23.8615 32.6494 24.0091 32.5718C24.3157 32.3944 24.5997 32.3501 24.8268 32.6827C25.0085 32.9376 24.895 33.2148 24.5429 33.4255C24.3953 33.5141 24.2362 33.6028 23.9864 33.747C24.611 34.3567 25.1789 34.911 25.7922 35.5097C25.9625 35.2436 26.0648 35.0552 26.1897 34.8667C26.36 34.6117 26.5985 34.523 26.8825 34.6893C27.155 34.8556 27.2005 35.0995 27.0642 35.3656C26.962 35.5541 26.8598 35.7425 26.7008 36.0197C27.5525 36.2414 28.3362 36.441 29.1766 36.6516C29.1766 36.3412 29.1766 36.1527 29.1766 35.9643C29.188 35.6427 29.3356 35.421 29.6877 35.421C30.0398 35.421 30.1874 35.6317 30.1988 35.9532C30.1988 36.1527 30.1988 36.3634 30.1988 36.5851C31.0846 36.4964 31.8796 36.3301 32.6179 35.9421C32.4929 35.4986 31.8796 35.0773 32.4929 34.7115C33.1744 34.3124 33.2198 35.1217 33.6286 35.4654C34.1965 34.911 34.7757 34.3456 35.389 33.7359C35.1505 33.5918 35.0256 33.5141 34.8893 33.4365C34.4918 33.2037 34.3782 32.9598 34.5372 32.6716C34.6962 32.3833 34.9915 32.3501 35.389 32.5607C35.5366 32.6383 35.6729 32.7159 35.9114 32.849C36.1386 32.0175 36.343 31.2636 36.5702 30.4321C36.2408 30.4321 36.025 30.4432 35.8206 30.4321C35.5026 30.3988 35.2754 30.2436 35.2981 29.9C35.3209 29.5895 35.5253 29.4454 35.8433 29.4454C36.0477 29.4454 36.2522 29.4454 36.5815 29.4454C36.343 28.5918 36.1272 27.8268 35.9114 27.0618C35.3776 27.1949 34.9234 27.8157 34.5486 27.1727C34.1851 26.5297 34.9801 26.4853 35.3436 26.0973C34.7644 25.5319 34.1965 24.9665 33.5719 24.3678C33.4129 24.6339 33.3106 24.8002 33.2084 24.9665C33.0381 25.2436 32.7882 25.3545 32.4929 25.1882C32.1976 25.0219 32.1636 24.7558 32.3226 24.4787C32.4248 24.3013 32.527 24.1239 32.6746 23.8578C31.8228 23.6361 31.0392 23.4365 30.2556 23.237C30.0852 23.7359 30.4259 24.4454 29.6877 24.4454C28.9495 24.4565 29.2675 23.758 29.1198 23.2259Z" fill="#396746"/>
<path d="M30.2215 29.4452C30.8689 29.4452 31.4821 29.4563 32.1068 29.4452C32.4589 29.4452 32.7314 29.5339 32.7541 29.9219C32.7769 30.2434 32.5384 30.4319 32.1295 30.4319C31.3686 30.443 30.5963 30.443 29.8353 30.4319C29.3697 30.4319 29.188 30.2434 29.188 29.8C29.188 28.647 29.188 27.5051 29.188 26.3521C29.188 26.0084 29.2902 25.7423 29.6877 25.7201C30.0171 25.698 30.1988 25.9419 30.2101 26.3742C30.2101 27.2501 30.2101 28.1148 30.2101 28.9907C30.1988 29.1348 30.2101 29.2678 30.2215 29.4452Z" fill="#396746"/>
</g>
<defs>
<clipPath id="clip0_713_154">
<rect width="40" height="40" fill="white"/>
</clipPath>
</defs>
</svg>
