<svg width="40" height="40" viewBox="0 0 40 40" fill="none" xmlns="http://www.w3.org/2000/svg">
<path d="M25.6547 31.745C25.8173 32.1664 25.9583 32.523 26.1101 32.8795C26.4137 33.6251 26.7281 34.3706 27.0209 35.127C27.1185 35.3863 27.2486 35.5051 27.5522 35.4943C28.2028 35.4727 28.8533 35.4619 29.5039 35.5051C30.6533 35.57 31.5316 36.4452 31.6183 37.5797C31.7051 38.671 30.9677 39.6758 29.8618 39.9352C29.6449 39.9892 29.4063 39.9892 29.1786 39.9892C23.0632 39.9892 16.9477 39.9676 10.843 40C9.119 40.0108 7.98048 38.4009 8.57685 36.9314C8.92383 36.0778 9.55272 35.5808 10.4744 35.5159C11.1575 35.4619 11.8515 35.5051 12.5454 35.4835C12.6755 35.4835 12.8924 35.3971 12.9249 35.2998C13.4128 34.1545 13.8791 32.9876 14.3779 31.7558C14.1719 31.7558 14.0201 31.7558 13.8683 31.7558C10.3334 31.7558 6.80943 31.7558 3.2746 31.7558C1.64814 31.7558 0.444565 30.859 0.10843 29.4003C0.0433722 29.0978 0.0216861 28.7844 0.0216861 28.4819C0 20.0756 0 11.6802 0 3.28471C0 1.26418 1.26864 0 3.29629 0C14.4429 0 25.5896 0 36.7362 0C38.4061 0 39.588 0.875202 39.9349 2.36629C40 2.64722 40.0108 2.94976 40.0108 3.2523C40.0108 11.6586 40.0108 20.0756 40.0108 28.4819C40.0108 30.5024 38.7531 31.745 36.7146 31.745C33.2123 31.745 29.7099 31.745 26.2076 31.745C26.0342 31.745 25.8824 31.745 25.6547 31.745ZM20.0163 30.6537C25.6113 30.6537 31.2171 30.6537 36.8121 30.6537C38.1025 30.6537 38.9265 29.8325 38.9265 28.5575C38.9265 20.1513 38.9265 11.7342 38.9265 3.32793C38.9265 1.85845 38.1458 1.0805 36.6712 1.0805C25.5679 1.0805 14.4646 1.0805 3.36134 1.0805C1.87585 1.0805 1.10599 1.84765 1.10599 3.31713C1.10599 11.6694 1.10599 20.0324 1.10599 28.3847C1.10599 29.8865 1.865 30.6429 3.38303 30.6429C8.92383 30.6537 14.4646 30.6537 20.0163 30.6537ZM20.0163 36.5748C18.379 36.5748 16.7417 36.5748 15.1044 36.5748C13.6622 36.5748 12.2093 36.5748 10.7671 36.5748C10.019 36.5748 9.50935 37.0827 9.53104 37.7742C9.55272 38.4657 10.0732 38.8871 10.8973 38.8871C16.9694 38.8871 23.0415 38.8871 29.1136 38.8871C29.2762 38.8871 29.4389 38.8763 29.6015 38.8439C30.2629 38.7142 30.6533 38.0875 30.4907 37.4392C30.3605 36.8882 29.8834 36.564 29.1895 36.564C26.1209 36.5748 23.074 36.5748 20.0163 36.5748ZM25.9799 35.4619C25.4812 34.2301 25.0041 33.0632 24.5161 31.9071C24.4836 31.8206 24.2776 31.7558 24.1583 31.7558C21.4042 31.745 18.6392 31.7558 15.8851 31.745C15.6465 31.745 15.5272 31.8206 15.4405 32.0475C15.0285 33.0956 14.5947 34.1437 14.1719 35.1918C14.1393 35.2782 14.1176 35.3647 14.096 35.4727C18.0428 35.4619 21.9789 35.4619 25.9799 35.4619Z" fill="#396746"/>
<path d="M20.0054 2.5069C25.5462 2.5069 31.0979 2.5069 36.6387 2.5069C37.3868 2.5069 37.5061 2.62575 37.5061 3.3713C37.5061 10.4486 37.5061 17.5258 37.5061 24.5923C37.5061 25.3594 37.376 25.4891 36.617 25.4891C25.5462 25.4891 14.4646 25.4891 3.39389 25.4891C2.63488 25.4891 2.50476 25.3486 2.50476 24.5923C2.50476 17.515 2.50476 10.4377 2.50476 3.3713C2.50476 2.63656 2.63488 2.49609 3.3722 2.49609C8.92384 2.5069 14.4646 2.5069 20.0054 2.5069ZM3.63244 24.3654C14.5731 24.3654 25.4812 24.3654 36.3784 24.3654C36.3784 17.4286 36.3784 10.5242 36.3784 3.61981C25.4486 3.61981 14.5405 3.61981 3.63244 3.61981C3.63244 10.535 3.63244 17.4394 3.63244 24.3654Z" fill="#396746"/>
<path d="M20.6452 27.7037C20.6452 28.0387 20.3741 28.3196 20.0379 28.3304C19.6801 28.3412 19.3765 28.0495 19.3874 27.7037C19.3982 27.3688 19.6801 27.0986 20.0163 27.0986C20.3632 27.0986 20.6343 27.3688 20.6452 27.7037Z" fill="#396746"/>
<path d="M17.9344 11.4426C17.9344 14.9867 15.0393 17.8716 11.4828 17.8716C7.93709 17.8716 5.02032 14.965 5.03116 11.4318C5.042 7.87699 7.92625 5.01367 11.4936 5.01367C15.061 5.01367 17.9452 7.88779 17.9344 11.4426ZM8.12143 15.5377C9.61777 16.8667 11.949 17.126 13.8357 16.2184C15.4947 15.4189 16.8392 13.474 16.7416 11.9829C15.1152 11.9829 13.4779 11.9829 11.8406 11.9829C11.7538 11.9829 11.6563 12.0369 11.5912 12.0909C10.4527 13.2363 9.30332 14.3708 8.12143 15.5377ZM10.9298 6.1698C9.01056 6.22383 7.09134 7.77974 6.40822 9.76786C5.7468 11.7019 6.42991 13.8846 7.37326 14.7381C7.39494 14.7273 7.42747 14.7165 7.43831 14.6949C8.18648 13.9494 8.93465 13.2146 9.67198 12.4691C10.0949 12.0477 10.6587 11.6911 10.8756 11.1833C11.0816 10.6755 10.9298 10.0164 10.9406 9.4221C10.9406 8.3416 10.9298 7.27191 10.9298 6.1698ZM12.0683 10.8484C13.6514 10.8484 15.2128 10.8484 16.7633 10.8484C16.6115 8.3416 14.2803 6.25624 12.0683 6.18061C12.0683 7.73652 12.0683 9.29244 12.0683 10.8484Z" fill="#396746"/>
<path d="M30.7508 11.8099C31.6074 10.9455 32.4532 10.1027 33.3206 9.23832C33.1797 9.22751 33.017 9.22751 32.8544 9.2059C32.5074 9.16268 32.2797 8.93578 32.3122 8.62243C32.3447 8.28748 32.5399 8.1146 32.8761 8.10379C33.4724 8.09299 34.0688 8.09299 34.6652 8.10379C35.0447 8.1146 35.2398 8.31989 35.2507 8.73048C35.2615 9.27073 35.2615 9.81098 35.2507 10.3512C35.2398 10.7834 35.0447 11.0103 34.7085 11.0211C34.3507 11.0319 34.1555 10.805 34.1447 10.3404C34.1447 10.2864 34.1339 10.2324 34.1339 10.1243C34.0254 10.2216 33.9278 10.2864 33.8519 10.3728C33.0495 11.1724 32.2472 11.972 31.4448 12.7715C30.8918 13.3226 30.7183 13.3226 30.1545 12.7607C28.5822 11.194 27.0208 9.6381 25.4269 8.03896C25.3076 8.14701 25.1992 8.24426 25.1016 8.3415C23.5185 9.91903 21.9246 11.5074 20.3415 13.0849C20.2548 13.1713 20.1788 13.2686 20.0813 13.3334C19.8319 13.5171 19.5608 13.5171 19.3439 13.2902C19.1271 13.0633 19.1379 12.804 19.3222 12.5554C19.3765 12.4798 19.4524 12.415 19.5174 12.3501C21.2957 10.5781 23.0739 8.80612 24.8522 7.0341C25.3076 6.58029 25.5245 6.58029 25.969 7.0233C27.4762 8.51438 28.9726 10.0163 30.4689 11.5074C30.5665 11.6262 30.6749 11.7235 30.7508 11.8099Z" fill="#396746"/>
<path d="M28.8208 17.6772C28.8208 19.1683 28.8208 20.6702 28.8208 22.1613C28.8208 22.842 28.669 22.9825 27.975 22.9825C27.1184 22.9825 26.2727 22.9825 25.4161 22.9825C24.8631 22.9825 24.6896 22.8096 24.6896 22.2586C24.6896 19.2007 24.6896 16.1429 24.6896 13.0851C24.6896 12.5557 24.8631 12.3936 25.4052 12.3828C26.2943 12.3828 27.1943 12.3828 28.0834 12.3828C28.6364 12.3828 28.8099 12.5557 28.8208 13.1067C28.8208 14.6302 28.8208 16.1537 28.8208 17.6772ZM25.8173 13.4957C25.8173 16.305 25.8173 19.0711 25.8173 21.848C26.457 21.848 27.075 21.848 27.7039 21.848C27.7039 19.0603 27.7039 16.2942 27.7039 13.4957C27.0642 13.4957 26.457 13.4957 25.8173 13.4957Z" fill="#396746"/>
<path d="M23.2692 19.5681C23.2692 20.4757 23.2692 21.3725 23.2692 22.2802C23.2692 22.7988 23.0849 22.9825 22.5644 22.9825C21.6536 22.9825 20.7536 22.9825 19.8428 22.9825C19.3441 22.9825 19.1489 22.788 19.1489 22.3018C19.138 20.4649 19.138 18.6389 19.1489 16.802C19.1489 16.3374 19.3549 16.1321 19.8211 16.1321C20.7428 16.1213 21.6645 16.1213 22.5753 16.1321C23.0741 16.1321 23.2584 16.3266 23.2692 16.8236C23.2801 17.7313 23.2692 18.6497 23.2692 19.5681ZM22.1416 21.8588C22.1416 20.292 22.1416 18.7793 22.1416 17.2775C21.491 17.2775 20.8838 17.2775 20.2766 17.2775C20.2766 18.8226 20.2766 20.3353 20.2766 21.8588C20.9163 21.8588 21.5235 21.8588 22.1416 21.8588Z" fill="#396746"/>
<path d="M30.2305 20.475C30.2305 19.8808 30.2305 19.2865 30.2305 18.6922C30.2305 18.2168 30.4148 18.0331 30.8919 18.0331C31.8244 18.0331 32.7569 18.0223 33.6894 18.0331C34.1557 18.0331 34.3508 18.2276 34.3617 18.703C34.3725 19.9024 34.3725 21.1017 34.3617 22.3011C34.3617 22.7873 34.1557 22.9818 33.6677 22.9818C32.7461 22.9818 31.8244 22.9818 30.9136 22.9818C30.4256 22.9818 30.2413 22.7873 30.2305 22.2903C30.2305 21.6852 30.2305 21.0801 30.2305 20.475ZM33.234 19.146C32.6051 19.146 31.987 19.146 31.369 19.146C31.369 20.0645 31.369 20.9397 31.369 21.8473C32.0087 21.8473 32.6159 21.8473 33.234 21.8473C33.234 20.9289 33.234 20.0428 33.234 19.146Z" fill="#396746"/>
<path d="M10.5503 20.3348C8.99971 20.3348 7.43831 20.3348 5.88776 20.3348C5.75764 20.3348 5.61668 20.3456 5.48656 20.324C5.1938 20.27 4.99863 20.0539 5.06368 19.7837C5.10706 19.5893 5.31307 19.4056 5.48656 19.2759C5.57331 19.2111 5.7468 19.2543 5.88776 19.2435C9.03224 19.2435 12.1876 19.2435 15.332 19.2435C15.408 19.2435 15.4947 19.2435 15.5706 19.2435C15.9284 19.2543 16.1344 19.4272 16.1561 19.7837C16.1778 20.1079 15.9393 20.324 15.5489 20.3348C15.4405 20.3348 15.332 20.3348 15.2236 20.3348C13.6622 20.3348 12.1117 20.3348 10.5503 20.3348Z" fill="#396746"/>
<path d="M8.51176 22.9821C7.5901 22.9821 6.66844 22.9821 5.75763 22.9821C5.30222 22.9821 5.05283 22.7876 5.05283 22.4418C5.04199 22.096 5.29138 21.8799 5.73594 21.8691C7.60095 21.8691 9.46595 21.8691 11.331 21.8691C11.7755 21.8691 12.0358 22.0744 12.0466 22.4202C12.0574 22.766 11.7755 22.9821 11.3093 22.9821C10.3768 22.9821 9.44426 22.9821 8.51176 22.9821Z" fill="#396746"/>
</svg>
