<svg width="40" height="40" viewBox="0 0 40 40" fill="none" xmlns="http://www.w3.org/2000/svg">
<path d="M40.0001 8.43836C40.0001 18.3092 40.0001 28.18 40.0001 38.0509C39.3424 39.6556 38.8178 40.0078 37.0484 40.0078C28.718 40.0078 20.3798 40.0078 12.0494 40.0078C10.3034 40.0078 9.37175 39.0763 9.37175 37.3386C9.37175 32.3366 9.37175 27.3425 9.37175 22.3405C9.37175 22.1918 9.37175 22.0352 9.37175 21.8787C3.96169 22.2544 0.14881 18.0039 0.0078827 13.6595C-0.0625812 11.4912 0.555935 9.54207 1.9339 7.86693C3.85208 5.5499 6.36529 4.55577 9.37175 4.69667C9.37175 3.92172 9.37175 3.17808 9.37175 2.44227C9.37175 1.83953 9.55183 1.29941 9.94329 0.821918C10.3034 0.375734 10.8123 0.187867 11.3291 0C18.0701 0 24.819 0 31.56 0C31.7714 0.148728 31.9985 0.2818 32.1786 0.46184C34.637 2.91194 37.0954 5.36204 39.546 7.82779C39.726 8 39.8513 8.23483 40.0001 8.43836ZM30.6205 1.58121C30.5109 1.57339 30.4639 1.56556 30.4091 1.56556C24.224 1.56556 18.0388 1.56556 11.8536 1.56556C11.243 1.56556 10.9376 1.87084 10.9298 2.47358C10.922 3.18591 10.9454 3.90607 10.922 4.6184C10.9141 4.92368 11.0159 5.0411 11.2978 5.13503C14.6017 6.23092 16.9349 9.23679 17.1698 12.6888C17.436 16.5793 15.0167 20.18 11.2978 21.4168C11.0159 21.5108 10.9298 21.636 10.9298 21.9335C10.9376 27.0763 10.9376 32.2192 10.9376 37.362C10.9376 38.1761 11.196 38.4344 12.0181 38.4344C20.4737 38.4344 28.9216 38.4344 37.3772 38.4344C38.1915 38.4344 38.4498 38.1761 38.4498 37.3542C38.4498 28.1722 38.4498 18.998 38.4498 9.81605C38.4498 9.67515 38.4498 9.54207 38.4498 9.36986C38.2619 9.36986 38.121 9.36986 37.9801 9.36986C35.874 9.36986 33.7601 9.36986 31.654 9.36986C30.9102 9.36986 30.6362 9.09589 30.6362 8.35225C30.6362 6.24657 30.6362 4.13307 30.6362 2.0274C30.6205 1.8865 30.6205 1.7456 30.6205 1.58121ZM7.80589 6.32485C4.46277 6.61448 1.30755 9.68297 1.57375 13.7769C1.83211 17.6517 5.31616 20.6341 9.16036 20.2896C12.4957 19.9922 15.8309 16.728 15.5021 14.0587C15.3612 14.0587 15.2203 14.0587 15.0793 14.0587C13.0359 14.0587 10.9924 14.0587 8.94897 14.0587C8.02511 14.0587 7.80589 13.8317 7.80589 12.9002C7.80589 10.8571 7.80589 8.81409 7.80589 6.77104C7.80589 6.63014 7.80589 6.48924 7.80589 6.32485ZM9.39524 6.34051C9.39524 8.38356 9.39524 10.4344 9.39524 12.4853C11.4622 12.4853 13.4978 12.4853 15.5334 12.4853C15.2907 9.26027 12.4095 6.52838 9.39524 6.34051ZM32.2177 2.77886C32.2177 4.45401 32.2177 6.12916 32.2177 7.78082C33.9088 7.78082 35.5765 7.78082 37.2206 7.78082C35.553 6.1135 33.8854 4.44618 32.2177 2.77886Z" fill="#396746"/>
<path d="M28.209 31.2093C29.1407 32.7279 28.2247 34.5674 26.5727 34.8179C24.8894 35.0684 23.4723 33.4011 24.0438 31.7885C24.1456 31.4989 24.0908 31.3189 23.9107 31.0997C23.2374 30.2856 22.5798 29.4637 21.9221 28.6339C21.7968 28.4774 21.6872 28.3913 21.468 28.4696C20.9982 28.6418 20.5206 28.6339 20.0509 28.4539C19.8395 28.3756 19.7221 28.4461 19.5811 28.5948C18.7747 29.4793 17.9683 30.3639 17.1462 31.2406C16.9896 31.405 16.9661 31.538 17.0366 31.7572C17.3811 32.7592 17.0366 33.8159 16.1832 34.4187C15.3376 35.0136 14.2024 34.9823 13.3803 34.3247C12.5112 33.6359 12.2529 32.4226 12.7618 31.4363C13.2785 30.4422 14.4059 29.9333 15.4629 30.2621C15.7526 30.3561 15.9013 30.3013 16.0892 30.0899C16.8644 29.2288 17.6473 28.3756 18.4459 27.5302C18.6103 27.358 18.6494 27.2171 18.5711 26.9901C18.2345 26.0038 18.5633 24.9705 19.4011 24.36C20.2231 23.7651 21.3584 23.7729 22.1726 24.3834C22.9947 25.0097 23.3157 26.0508 22.9556 27.0292C22.8773 27.2328 22.8851 27.3737 23.0339 27.5537C23.7307 28.3991 24.4118 29.2523 25.093 30.1056C25.2339 30.2856 25.3592 30.3247 25.5862 30.2621C25.8994 30.1838 26.236 30.1369 26.5492 30.1838C26.8311 30.223 26.9955 30.1682 27.1912 29.9647C28.8119 28.2112 30.4404 26.4735 32.0611 24.7357C32.1472 24.6418 32.2333 24.54 32.3351 24.4304C31.8497 23.6085 31.8027 22.7631 32.2881 21.9177C32.8597 20.9236 34.1515 20.5087 35.2163 20.9705C36.3046 21.4402 36.8683 22.6535 36.5238 23.7807C36.1871 24.9001 35.0519 25.6124 33.9244 25.4324C33.7757 25.4089 33.5486 25.4402 33.4547 25.542C31.7244 27.3815 30.002 29.2288 28.2795 31.0762C28.256 31.1232 28.2404 31.1545 28.209 31.2093ZM33.5251 23.0919C33.5095 23.4989 33.8618 23.8746 34.2689 23.8981C34.6761 23.9138 35.0519 23.5615 35.0753 23.1545C35.091 22.7474 34.7387 22.3717 34.3316 22.3482C33.9244 22.3326 33.5408 22.6848 33.5251 23.0919ZM20.7947 25.4715C20.3875 25.4559 20.0117 25.8159 20.0039 26.2308C19.9882 26.6379 20.3484 27.0136 20.7634 27.0214C21.1705 27.0371 21.5463 26.677 21.5541 26.2621C21.5619 25.8629 21.2096 25.4872 20.7947 25.4715ZM14.8679 31.7259C14.4607 31.7103 14.0849 32.0625 14.0615 32.4696C14.0458 32.8766 14.3981 33.2523 14.8052 33.2758C15.2124 33.2915 15.5882 32.9392 15.6117 32.5322C15.6351 32.1251 15.2828 31.7416 14.8679 31.7259ZM27.0268 32.5165C27.0346 32.1095 26.6745 31.7337 26.2674 31.7259C25.8602 31.7181 25.4844 32.0782 25.4766 32.4852C25.4688 32.8923 25.8289 33.268 26.236 33.2758C26.6432 33.2836 27.0112 32.9236 27.0268 32.5165Z" fill="#396746"/>
<path d="M28.5535 14.0587C26.6902 14.0587 24.8268 14.0587 22.9634 14.0587C22.8303 14.0587 22.705 14.0665 22.5719 14.0431C22.1648 13.9804 21.8751 13.6595 21.8751 13.2759C21.8751 12.8924 22.1648 12.5714 22.5719 12.5088C22.6972 12.4932 22.8303 12.4932 22.9634 12.4932C26.7136 12.4932 30.4639 12.4932 34.2141 12.4932C34.2376 12.4932 34.2689 12.4932 34.2924 12.4932C34.9266 12.4932 35.3024 12.7906 35.3024 13.2759C35.3024 13.7613 34.9266 14.0587 34.2924 14.0587C32.3821 14.0665 30.4639 14.0587 28.5535 14.0587Z" fill="#396746"/>
<path d="M28.5535 17.1896C26.6902 17.1896 24.8268 17.1896 22.9634 17.1896C22.8303 17.1896 22.705 17.1974 22.5719 17.1739C22.1648 17.1113 21.8751 16.7904 21.8751 16.4068C21.8751 16.0232 22.1648 15.7023 22.5719 15.6397C22.6972 15.624 22.8303 15.624 22.9634 15.624C26.7136 15.624 30.4639 15.624 34.2141 15.624C34.2376 15.624 34.2689 15.624 34.2924 15.624C34.9266 15.624 35.3024 15.9215 35.3024 16.4068C35.3024 16.8921 34.9266 17.1896 34.2924 17.1896C32.3821 17.1896 30.4639 17.1896 28.5535 17.1896Z" fill="#396746"/>
<path d="M24.1378 6.24619C22.8381 6.24619 21.5306 6.24619 20.231 6.24619C20.0665 6.24619 19.8865 6.23054 19.7299 6.18357C19.4011 6.07398 19.2288 5.80784 19.2288 5.47124C19.2288 5.12682 19.4089 4.8685 19.7377 4.75891C19.91 4.70412 20.0979 4.69629 20.2779 4.69629C22.8538 4.69629 25.4375 4.69629 28.0133 4.69629C28.1542 4.69629 28.303 4.69629 28.4361 4.7276C28.8041 4.80588 29.0546 5.12682 29.0546 5.47907C29.0546 5.83132 28.7962 6.15226 28.4283 6.23054C28.2873 6.26185 28.1464 6.26185 27.9976 6.26185C26.7136 6.25402 25.4218 6.24619 24.1378 6.24619Z" fill="#396746"/>
<path d="M24.1456 9.37806C22.8694 9.37806 21.5933 9.37806 20.3171 9.37806C20.1996 9.37806 20.0822 9.38589 19.9648 9.37023C19.5341 9.32326 19.221 9.00232 19.221 8.60311C19.2131 8.20389 19.5185 7.87512 19.9491 7.82033C20.0352 7.8125 20.1292 7.8125 20.2231 7.8125C22.8303 7.8125 25.4296 7.8125 28.0368 7.8125C28.6788 7.8125 29.0468 8.10213 29.0546 8.58745C29.0624 9.08843 28.6788 9.37806 28.0133 9.37806C27.2304 9.37806 26.4474 9.37806 25.6723 9.37806C25.1634 9.37806 24.6545 9.37806 24.1456 9.37806Z" fill="#396746"/>
<path d="M20.3014 13.2759C20.3014 13.683 19.9413 14.0509 19.5263 14.0509C19.1192 14.0509 18.7512 13.6908 18.7512 13.2759C18.7512 12.8689 19.1114 12.501 19.5263 12.501C19.9334 12.501 20.3014 12.8689 20.3014 13.2759Z" fill="#396746"/>
<path d="M19.542 17.1819C19.1349 17.1897 18.7591 16.8296 18.7512 16.4226C18.7434 16.0155 19.1035 15.6398 19.5107 15.632C19.9178 15.6241 20.2936 15.9842 20.3014 16.3913C20.3093 16.7983 19.9491 17.174 19.542 17.1819Z" fill="#396746"/>
<path d="M8.34605 18.7398C5.52749 18.6459 3.15521 16.2271 3.12389 13.4326C3.11606 12.8846 3.43706 12.5011 3.90682 12.5089C4.34526 12.5089 4.65061 12.8533 4.68192 13.37C4.75239 14.6224 5.26129 15.6479 6.27128 16.4071C6.93677 16.9081 7.68838 17.1508 8.51829 17.1899C9.17595 17.2212 9.54393 17.7848 9.27774 18.3171C9.12115 18.6224 8.83146 18.7555 8.34605 18.7398Z" fill="#396746"/>
</svg>
