<svg width="40" height="40" viewBox="0 0 40 40" fill="none" xmlns="http://www.w3.org/2000/svg">
<g clip-path="url(#clip0_86_1026)">
<path d="M1.2665 38.7327C1.49869 38.7327 1.67811 38.7327 1.84698 38.7327C11.7889 38.7327 21.7414 38.7327 31.6834 38.7327C31.8312 38.7327 31.9789 38.7221 32.1161 38.7327C32.4749 38.7538 32.7177 38.9968 32.7282 39.3243C32.7388 39.6624 32.5172 39.9266 32.1689 39.9794C32.0528 40.0005 31.9367 39.9899 31.81 39.9899C21.5092 39.9899 11.2085 39.9899 0.907666 39.9899C0.189988 39.9899 1.40108e-05 39.7998 1.40108e-05 39.0813C1.40108e-05 28.7697 1.40108e-05 18.458 1.40108e-05 8.15688C1.40108e-05 8.04066 -0.0105401 7.91388 0.0105681 7.79766C0.0633385 7.45957 0.263866 7.24827 0.622705 7.2377C0.981544 7.22714 1.19263 7.42788 1.25595 7.76596C1.28761 7.91388 1.2665 8.08292 1.2665 8.2414C1.2665 18.2256 1.2665 28.1991 1.2665 38.1833C1.2665 38.3523 1.2665 38.5214 1.2665 38.7327Z" fill="#396746"/>
<path d="M32.5594 12.647C32.3272 12.8161 32.095 12.9851 31.8523 13.1436C31.409 13.4394 31.0396 13.4077 30.818 13.0802C30.5963 12.7421 30.7124 12.3829 31.1557 12.0977C32.4539 11.2419 33.3193 10.0797 33.6992 8.5583C34.5225 5.29364 32.4539 2.05011 29.1082 1.3528C25.9103 0.687193 22.7019 2.90589 22.2058 6.17055C21.8364 8.62169 22.7124 10.5868 24.7388 12.0237C24.8127 12.0765 24.8971 12.1188 24.971 12.1716C25.2771 12.404 25.351 12.7421 25.1715 13.038C24.9816 13.3444 24.6122 13.4289 24.2744 13.2176C23.2507 12.5942 22.4169 11.7807 21.8364 10.7347C20.4855 8.2836 20.4539 5.80077 21.9103 3.41302C23.3668 1.02528 25.5831 -0.158026 28.38 -0.010113C31.1874 0.1378 33.2771 1.56411 34.4591 4.11033C35.6412 6.64599 35.314 9.10769 33.7098 11.3898C33.6465 11.4849 33.5726 11.58 33.5093 11.675C33.6148 11.918 33.7626 11.9603 34.0159 11.8863C34.7652 11.6539 35.4512 11.8018 36.0211 12.3618C37.1504 13.4817 38.2797 14.6122 39.3985 15.7427C40.2006 16.5562 40.2111 17.7606 39.4301 18.5424C38.6597 19.3137 37.4459 19.3137 36.6333 18.5108C35.504 17.4014 34.3958 16.2815 33.2771 15.1616C32.7072 14.591 32.5277 13.9043 32.7599 13.133C32.8444 12.9112 32.8021 12.7633 32.5594 12.647ZM34.5541 12.9746C34.3536 13.1647 34.1214 13.3021 33.9948 13.5028C33.8153 13.7987 33.9525 14.0839 34.1847 14.3164C35.2824 15.4151 36.38 16.5139 37.4882 17.6127C37.8259 17.9508 38.2586 17.9614 38.533 17.6761C38.8074 17.3908 38.8074 16.9788 38.4802 16.6513C37.3826 15.5314 36.2744 14.422 35.1557 13.3232C35.0185 13.1859 34.8074 13.1225 34.5541 12.9746Z" fill="#396746"/>
<path d="M25.5198 27.4279C25.5198 24.4591 25.5198 21.5008 25.5198 18.532C25.5198 17.8241 25.7097 17.6445 26.4063 17.6445C27.4828 17.6445 28.5699 17.6445 29.6464 17.6445C30.2586 17.6445 30.4802 17.8558 30.4802 18.4792C30.4802 24.4274 30.4802 30.3651 30.4802 36.3133C30.4802 36.9261 30.2586 37.148 29.6464 37.148C28.5488 37.148 27.4617 37.148 26.3641 37.148C25.7203 37.148 25.5198 36.9367 25.5198 36.2922C25.5198 33.3339 25.5198 30.3756 25.5198 27.4279ZM29.182 35.8696C29.182 30.2066 29.182 24.5753 29.182 18.9335C28.3694 18.9335 27.5884 18.9335 26.8179 18.9335C26.8179 24.5965 26.8179 30.2277 26.8179 35.8696C27.62 35.8696 28.3799 35.8696 29.182 35.8696Z" fill="#396746"/>
<path d="M15.3667 29.108C15.3667 31.4746 15.3667 33.8518 15.3667 36.2184C15.3667 36.9685 15.1873 37.1481 14.4274 37.1481C13.3615 37.1481 12.2955 37.1481 11.2295 37.1481C10.628 37.1481 10.4169 36.9368 10.4169 36.3452C10.4169 31.5063 10.4169 26.678 10.4169 21.8391C10.4169 21.2474 10.628 21.0361 11.2295 21.0361C12.2849 21.0361 13.3404 21.0361 14.3852 21.0361C15.1979 21.0361 15.3667 21.1946 15.3667 21.9976C15.3667 24.3642 15.3667 26.7308 15.3667 29.108ZM14.0791 22.3145C13.2665 22.3145 12.496 22.3145 11.6939 22.3145C11.6939 26.8364 11.6939 31.3372 11.6939 35.8486C12.496 35.8486 13.277 35.8486 14.0791 35.8486C14.0791 31.3372 14.0791 26.847 14.0791 22.3145Z" fill="#396746"/>
<path d="M17.9525 29.8046C17.9525 27.6598 17.9525 25.5151 17.9525 23.3598C17.9525 22.6413 18.153 22.4512 18.8707 22.4512C19.9367 22.4512 21.0026 22.4512 22.0686 22.4512C22.7124 22.4512 22.9235 22.6625 22.9235 23.307C22.9235 27.6281 22.9235 31.9493 22.9235 36.2705C22.9235 36.9361 22.7124 37.1369 22.0475 37.1369C20.971 37.1369 19.8839 37.1369 18.8074 37.1369C18.1741 37.1369 17.9525 36.915 17.9525 36.2811C17.9525 34.1258 17.9525 31.9705 17.9525 29.8046ZM19.2401 35.8585C20.0633 35.8585 20.8549 35.8585 21.6359 35.8585C21.6359 31.812 21.6359 27.7866 21.6359 23.7507C20.8232 23.7507 20.0422 23.7507 19.2401 23.7507C19.2401 27.7972 19.2401 31.812 19.2401 35.8585Z" fill="#396746"/>
<path d="M2.84961 32.5623C2.84961 31.3367 2.84961 30.1112 2.84961 28.8856C2.84961 28.2623 3.06069 28.0615 3.68338 28.0615C4.79156 28.0615 5.89974 28.0615 6.99737 28.0615C7.5884 28.0615 7.82059 28.2834 7.82059 28.8645C7.82059 31.3579 7.82059 33.8407 7.82059 36.3341C7.82059 36.9258 7.59895 37.1476 7.00792 37.1476C5.88919 37.1476 4.77045 37.1476 3.65172 37.1476C3.07125 37.1476 2.84961 36.9152 2.84961 36.3235C2.84961 35.0663 2.84961 33.8196 2.84961 32.5623ZM6.53299 35.8692C6.53299 33.6717 6.53299 31.5058 6.53299 29.3505C5.72032 29.3505 4.93932 29.3505 4.14776 29.3505C4.14776 31.5375 4.14776 33.6928 4.14776 35.8692C4.94987 35.8692 5.72032 35.8692 6.53299 35.8692Z" fill="#396746"/>
<path d="M20.4433 16.1865C21.8153 16.1865 22.9235 17.3064 22.9235 18.6799C22.9129 20.0323 21.8153 21.1416 20.4538 21.1522C19.0924 21.1628 17.9525 20.0323 17.9525 18.6694C17.9525 17.2959 19.0712 16.1865 20.4433 16.1865ZM20.4644 17.4544C19.7889 17.4438 19.2296 18.0037 19.2296 18.6694C19.2296 19.3138 19.7889 19.8738 20.4327 19.8844C21.0976 19.8949 21.6676 19.3244 21.6676 18.6588C21.657 18.0037 21.1187 17.4544 20.4644 17.4544Z" fill="#396746"/>
<path d="M5.32982 22.0391C6.70185 22.0391 7.82059 23.159 7.82059 24.5219C7.82059 25.8848 6.67019 27.0153 5.31927 27.0047C3.96834 26.9942 2.86016 25.8848 2.84961 24.5325C2.84961 23.159 3.95779 22.0496 5.32982 22.0391ZM6.55409 24.5113C6.55409 23.8457 5.98417 23.2963 5.30871 23.3069C4.65436 23.3175 4.1161 23.8774 4.1161 24.5325C4.1161 25.1875 4.67547 25.7369 5.31927 25.7475C5.98417 25.758 6.56465 25.1769 6.55409 24.5113Z" fill="#396746"/>
<path d="M12.876 18.9757C11.4934 18.9757 10.4064 17.8663 10.4064 16.4823C10.4169 15.1194 11.504 14.0311 12.8655 14.0206C14.2481 14.01 15.3457 15.1088 15.3562 16.4929C15.3668 17.8769 14.2692 18.9757 12.876 18.9757ZM14.1003 16.514C14.1109 15.8484 13.5832 15.299 12.9182 15.2884C12.2533 15.2778 11.7045 15.8061 11.6834 16.4717C11.6729 17.1585 12.2006 17.7079 12.8866 17.7184C13.562 17.7079 14.0898 17.1902 14.1003 16.514Z" fill="#396746"/>
<path d="M28.0106 11.2843C29.3826 11.2948 30.4908 12.4253 30.4697 13.7882C30.4485 15.1511 29.3404 16.2499 27.9894 16.2499C26.628 16.2499 25.5092 15.13 25.5198 13.7565C25.5303 12.3725 26.628 11.2737 28.0106 11.2843ZM28 12.5521C27.3351 12.5521 26.7968 13.0803 26.7863 13.7565C26.7863 14.4221 27.314 14.9715 27.9683 14.9927C28.6332 15.0032 29.2137 14.4327 29.2032 13.7671C29.2032 13.0909 28.6649 12.5521 28 12.5521Z" fill="#396746"/>
<path d="M25.6992 15.7951C25.6464 15.8691 25.562 16.0804 25.4037 16.186C24.8338 16.5875 24.2427 16.9573 23.6517 17.3271C23.314 17.5384 22.9446 17.4433 22.7546 17.1369C22.5752 16.8517 22.6491 16.4819 22.9657 16.2706C23.5567 15.8691 24.1477 15.4782 24.7599 15.119C25.1926 14.8548 25.7097 15.1718 25.6992 15.7951Z" fill="#396746"/>
<path d="M10.6491 18.2568C10.7968 18.3731 11.0396 18.4576 11.124 18.6266C11.2084 18.7957 11.2295 19.1126 11.124 19.2394C10.7757 19.6831 10.3852 20.0952 9.97361 20.4755C9.73086 20.6974 9.4248 20.6551 9.19261 20.4227C8.94986 20.2008 8.89709 19.8839 9.09762 19.6409C9.4459 19.2183 9.83641 18.8274 10.2269 18.4364C10.3113 18.3519 10.4591 18.3308 10.6491 18.2568Z" fill="#396746"/>
<path d="M24.8021 8.10355C24.2955 8.11412 23.8417 7.69151 23.8206 7.17381C23.7995 6.64555 24.2322 6.18068 24.7704 6.17012C25.2876 6.15955 25.7309 6.58216 25.752 7.09986C25.7836 7.62812 25.3298 8.09299 24.8021 8.10355Z" fill="#396746"/>
<path d="M31.219 6.17012C31.7573 6.18068 32.19 6.63499 32.1689 7.16325C32.1478 7.68095 31.7045 8.10355 31.1979 8.10355C30.6597 8.09299 30.2375 7.64925 30.2481 7.09986C30.2586 6.58216 30.7019 6.15955 31.219 6.17012Z" fill="#396746"/>
<path d="M28.9499 7.13234C28.9499 7.6606 28.5383 8.09377 28.0106 8.1149C27.4829 8.12547 27.0291 7.67116 27.0291 7.13234C27.0291 6.60407 27.4723 6.1709 27.9895 6.1709C28.5172 6.1709 28.9499 6.60407 28.9499 7.13234Z" fill="#396746"/>
<path d="M9.18205 21.0256C9.1715 21.1735 9.1715 21.1947 9.16094 21.2264C9.10817 21.5222 8.10553 22.6421 7.81002 22.6421C7.59894 22.6421 7.30342 22.547 7.20844 22.3991C7.1029 22.2301 7.07123 21.8709 7.17677 21.7229C7.46173 21.3215 7.82057 20.9517 8.20052 20.6347C8.33772 20.5185 8.6649 20.5291 8.84432 20.6136C9.01319 20.677 9.09762 20.9305 9.18205 21.0256Z" fill="#396746"/>
<path d="M16.2322 16.7988C16.591 16.915 17.0765 17.0313 17.5303 17.2214C17.8047 17.3377 17.8892 17.6229 17.7942 17.9293C17.6992 18.2357 17.467 18.4153 17.1715 18.3625C16.7071 18.278 16.2533 18.1406 15.81 17.9821C15.5251 17.8765 15.4195 17.5912 15.4934 17.2848C15.5778 16.9679 15.7889 16.8094 16.2322 16.7988Z" fill="#396746"/>
</g>
<defs>
<clipPath id="clip0_86_1026">
<rect width="40" height="40" fill="white"/>
</clipPath>
</defs>
</svg>
