<svg width="40" height="40" viewBox="0 0 40 40" fill="none" xmlns="http://www.w3.org/2000/svg">
<g clip-path="url(#clip0_86_1046)">
<path d="M34.195 32.5154C33.2257 32.5154 32.2564 32.5154 31.2871 32.5154C30.6947 32.5154 30.4901 32.3 30.4793 31.7184C30.3501 26.8288 26.7313 22.8331 21.8956 22.2731C16.5967 21.6484 11.7394 25.5579 11.2009 30.8783C11.1686 31.2014 11.1578 31.5245 11.1363 31.8476C11.1147 32.2892 10.8886 32.5262 10.4578 32.5262C8.44377 32.5369 6.42977 32.5369 4.405 32.5262C3.92035 32.5262 3.70495 32.2677 3.71572 31.7292C3.78034 27.6581 5.08351 24.0286 7.72218 20.9268C11.1363 16.9096 15.5197 14.8525 20.7863 14.8094C28.3684 14.734 35.1751 19.8929 37.2429 27.2057C37.6522 28.6489 37.8676 30.1137 37.8999 31.6107C37.9107 32.3431 37.7276 32.5369 36.9737 32.5369C36.0474 32.5154 35.1212 32.5154 34.195 32.5154ZM25.7513 22.0253C26.5375 20.6683 27.3345 19.2898 28.1422 17.8789C26.0205 16.7803 23.8234 16.1772 21.4755 16.1018C21.4755 17.7389 21.4755 19.3328 21.4755 20.8837C22.2187 21.0237 22.9403 21.1099 23.6296 21.3038C24.3296 21.4868 24.9974 21.7669 25.7513 22.0253ZM26.839 22.7362C28.0991 23.5762 29.1223 24.6102 29.9731 25.8595C31.384 25.0517 32.7626 24.244 34.1627 23.4362C32.8595 21.4222 31.2548 19.8175 29.2623 18.5466C28.4438 19.9467 27.6468 21.3145 26.839 22.7362ZM13.4734 17.8896C14.3027 19.3221 15.0997 20.7006 15.8643 22.0361C16.5967 21.7776 17.2752 21.4868 17.9645 21.3038C18.6753 21.1099 19.4077 21.0237 20.1185 20.8837C20.1185 19.3005 20.1185 17.7066 20.1185 16.091C17.7706 16.1987 15.5843 16.8019 13.4734 17.8896ZM11.6532 25.8487C12.4933 24.5886 13.538 23.5655 14.7766 22.7254C13.958 21.3145 13.1611 19.936 12.3533 18.5359C10.3501 19.8283 8.74533 21.4438 7.4637 23.4255C8.8638 24.244 10.2424 25.041 11.6532 25.8487ZM11.007 26.9688C9.5854 26.1503 8.20683 25.3533 6.81749 24.5455C5.71895 26.6672 5.11582 28.8536 5.02966 31.2014C6.66671 31.2014 8.23914 31.2014 9.86542 31.2014C9.96235 29.7259 10.3393 28.3258 11.007 26.9688ZM36.5967 31.2014C36.4782 28.832 35.8967 26.6349 34.7981 24.5455C33.3872 25.3533 32.0087 26.1503 30.6086 26.958C31.2763 28.3043 31.6425 29.7044 31.7502 31.1907C33.3765 31.2014 34.9704 31.2014 36.5967 31.2014Z" fill="#396746"/>
<path d="M1.31395 27.2162C1.31395 27.9594 1.31395 28.6486 1.31395 29.3918C1.72321 29.3918 2.1217 29.381 2.52019 29.3918C3.00485 29.4025 3.29564 29.6503 3.29564 30.0272C3.29564 30.4042 3.00485 30.6626 2.53096 30.6734C2.14324 30.6842 1.75552 30.6734 1.33549 30.6734C1.33549 31.3412 1.33549 31.9981 1.33549 32.6874C1.73398 32.6874 2.14324 32.6767 2.54173 32.6874C3.0587 32.6982 3.30641 32.9459 3.30641 33.4198C3.30641 33.8829 3.04793 34.1306 2.53096 34.1414C2.16478 34.1521 1.80937 34.1521 1.44319 34.1521C1.42165 34.1521 1.38934 34.1629 1.33549 34.1737C1.33549 35.6492 1.33549 37.1355 1.33549 38.654C2.45557 38.654 3.58643 38.654 4.78191 38.654C4.78191 38.2663 4.78191 37.8678 4.78191 37.4693C4.78191 36.9954 5.02962 36.6939 5.40657 36.6831C5.80506 36.6723 6.06354 36.9739 6.06354 37.4693C6.06354 37.8355 6.06354 38.1909 6.07431 38.5571C6.07431 38.5786 6.09585 38.6002 6.10662 38.654C6.82822 38.654 7.56058 38.654 8.35757 38.654C8.35757 38.2125 8.3468 37.7709 8.35757 37.3401C8.36834 37.0062 8.54066 36.78 8.87453 36.7047C9.16532 36.64 9.41303 36.7477 9.55304 37.017C9.62843 37.1678 9.6392 37.3509 9.6392 37.5232C9.64997 37.9001 9.6392 38.2663 9.6392 38.6648C10.4146 38.6648 11.1578 38.6648 11.9332 38.6648C11.9332 38.2448 11.9332 37.8247 11.9332 37.4155C11.944 36.9739 12.1917 36.6831 12.5687 36.6831C12.9348 36.6831 13.2041 36.9739 13.2256 37.4047C13.2364 37.6093 13.2256 37.8032 13.2256 38.0078C13.2256 38.2125 13.2256 38.4063 13.2256 38.6433C13.9795 38.6433 14.7227 38.6433 15.4981 38.6433C15.4981 38.2448 15.4981 37.857 15.4981 37.4801C15.5089 36.9847 15.7674 36.6723 16.1551 36.6831C16.5428 36.6939 16.7798 36.9847 16.7798 37.4586C16.7798 37.8463 16.7798 38.234 16.7798 38.654C17.5444 38.654 18.2768 38.654 19.0845 38.654C19.0845 38.2125 19.0738 37.7709 19.0845 37.3185C19.0953 36.9954 19.2676 36.737 19.58 36.7262C19.7954 36.7154 20.0646 36.8339 20.2369 36.9847C20.3446 37.0816 20.3554 37.3293 20.3662 37.5124C20.3877 37.8894 20.377 38.2663 20.377 38.6648C21.1416 38.6648 21.874 38.6648 22.6602 38.6648C22.6602 38.2555 22.6602 37.8463 22.6602 37.437C22.671 36.9954 22.9079 36.7047 23.2849 36.6939C23.6726 36.6831 23.9418 36.9847 23.9418 37.4478C23.9526 37.8463 23.9418 38.2448 23.9418 38.6756C24.7065 38.6756 25.4389 38.6756 26.2251 38.6756C26.2251 38.2663 26.2143 37.8678 26.2251 37.4693C26.2359 36.9954 26.4943 36.7047 26.8713 36.6939C27.259 36.6939 27.5067 36.9847 27.5067 37.4586C27.5175 37.8463 27.5067 38.234 27.5067 38.654C28.2714 38.654 29.0145 38.654 29.8115 38.654C29.8115 38.2555 29.8115 37.857 29.8115 37.4586C29.8223 36.9739 30.0592 36.6939 30.447 36.6939C30.8239 36.6939 31.0932 36.9954 31.0932 37.4586C31.1039 37.8463 31.0932 38.234 31.0932 38.654C31.8471 38.654 32.5794 38.654 33.3764 38.654C33.3764 38.2771 33.3764 37.8786 33.3764 37.4801C33.3764 36.9847 33.6349 36.6723 34.0334 36.6831C34.4211 36.6939 34.6581 36.9847 34.6688 37.4586C34.6688 37.8463 34.6688 38.234 34.6688 38.6756C34.8304 38.6756 34.9812 38.6756 35.1212 38.6756C36.489 38.6756 37.8675 38.6756 39.2353 38.6756C39.7954 38.6756 40.1616 39.1171 39.9246 39.5587C39.8277 39.731 39.6015 39.8495 39.4184 39.9572C39.3107 40.0111 39.1599 39.968 39.0199 39.968C26.3436 39.968 13.6672 39.968 1.00162 39.968C0.161551 39.968 0 39.8064 0 38.9448C0 26.3115 0 13.6567 0 0.991135C0 0.915744 0 0.829584 0 0.754193C0.0107701 0.280311 0.258481 -0.0104809 0.656974 0.000289162C1.0447 0.0110592 1.28164 0.291081 1.29241 0.775733C1.29241 1.05576 1.29241 1.33578 1.29241 1.65888C1.71244 1.65888 2.10016 1.65888 2.48788 1.65888C2.99408 1.66965 3.29564 1.91736 3.28487 2.30508C3.2741 2.70357 2.98331 2.92975 2.46634 2.94052C2.08939 2.94052 1.71244 2.94052 1.31395 2.94052C1.31395 3.66211 1.31395 4.35139 1.31395 5.12684C1.75552 5.12684 2.20786 5.11607 2.64943 5.12684C2.97254 5.13761 3.23102 5.30993 3.24179 5.62226C3.25256 5.83766 3.13409 6.10691 2.98331 6.27923C2.88638 6.38693 2.63866 6.3977 2.45557 6.40847C2.07862 6.43001 1.71244 6.41924 1.31395 6.41924C1.31395 7.15161 1.31395 7.84089 1.31395 8.60557C1.76629 8.60557 2.21863 8.5948 2.6602 8.60557C2.98331 8.61634 3.18794 8.79943 3.26333 9.10099C3.32795 9.40255 3.22025 9.63949 2.951 9.7795C2.80022 9.85489 2.61712 9.86566 2.4448 9.87643C2.06785 9.8872 1.70167 9.87643 1.30318 9.87643C1.30318 10.6088 1.30318 11.3089 1.30318 12.052C1.70167 12.052 2.10016 12.0412 2.50942 12.052C2.99408 12.0628 3.28487 12.3105 3.28487 12.6874C3.28487 13.0644 2.99408 13.3229 2.52019 13.3336C2.13247 13.3444 1.74475 13.3336 1.32472 13.3336C1.32472 14.0552 1.32472 14.7553 1.32472 15.5092C1.72321 15.5092 2.1217 15.4984 2.52019 15.5092C2.99408 15.5199 3.28487 15.7677 3.28487 16.1554C3.28487 16.5323 2.99408 16.7908 2.50942 16.8016C2.1217 16.8124 1.73398 16.8016 1.31395 16.8016C1.31395 17.5339 1.31395 18.234 1.31395 18.9771C1.65859 18.9771 1.99246 18.9771 2.32633 18.9771C2.97254 18.9771 3.29564 19.2033 3.28487 19.6341C3.2741 20.0541 2.96177 20.2695 2.3371 20.2695C2.00323 20.2695 1.66936 20.2695 1.28164 20.2695C1.28164 20.6465 1.28164 20.9911 1.28164 21.3358C1.28164 21.6804 1.28164 22.0358 1.28164 22.4559C1.75552 22.4559 2.19709 22.4451 2.64943 22.4559C2.97254 22.4666 3.23102 22.639 3.24179 22.9513C3.25256 23.1667 3.12332 23.4359 2.98331 23.6083C2.88638 23.716 2.63866 23.7267 2.45557 23.7375C2.07862 23.759 1.71244 23.7375 1.29241 23.7375C1.29241 24.1145 1.29241 24.4699 1.29241 24.8145C1.29241 25.1591 1.29241 25.5146 1.29241 25.9238C1.70167 25.9238 2.08939 25.9238 2.46634 25.9238C2.98331 25.9346 3.28487 26.1608 3.28487 26.5593C3.29564 26.9685 2.98331 27.2055 2.4448 27.2162C2.07862 27.2162 1.70167 27.2162 1.31395 27.2162Z" fill="#396746"/>
<path d="M32.2456 4.69591C31.9548 4.6636 31.7071 4.65283 31.4809 4.62052C31.1255 4.5559 30.8993 4.27588 30.9208 3.94201C30.9532 3.60814 31.2116 3.33889 31.5671 3.36043C32.6117 3.40351 33.6564 3.45736 34.7011 3.54352C35.175 3.5866 35.4335 4.06048 35.1858 4.46974C34.6365 5.37443 34.0442 6.25757 33.4518 7.12995C33.2472 7.43151 32.881 7.46382 32.5902 7.28073C32.3102 7.09764 32.2348 6.75299 32.3963 6.42989C32.4502 6.32219 32.5148 6.22526 32.6225 6.04217C32.461 6.10679 32.3748 6.1391 32.2886 6.19295C29.4346 7.74384 26.5913 9.3055 23.7372 10.8564C23.5326 10.9641 23.4572 11.0826 23.468 11.3195C23.5003 12.3103 22.9618 13.0966 22.1002 13.4304C21.2709 13.7428 20.3339 13.5058 19.7523 12.8381C19.1384 12.138 19.063 11.2118 19.5261 10.3287C19.58 10.221 19.58 10.0163 19.5154 9.91939C18.9984 9.13318 18.4599 8.35773 17.9106 7.60383C17.8352 7.49613 17.6306 7.43151 17.4906 7.44228C16.9844 7.48536 16.4782 7.45305 16.0582 7.16226C15.8212 6.98994 15.6704 7.09764 15.4981 7.22688C12.6117 9.18703 9.72537 11.1472 6.82823 13.1073C6.25741 13.4951 5.89123 13.4951 5.64352 13.1073C5.41735 12.7411 5.55736 12.418 6.1174 12.0411C8.98224 10.0917 11.8471 8.1531 14.7227 6.21449C14.9704 6.05294 15.0781 5.90216 15.035 5.57906C14.9165 4.62052 15.4227 3.76969 16.2843 3.39274C17.1244 3.01578 18.0937 3.22041 18.7184 3.9097C19.3538 4.59898 19.4615 5.55752 18.9876 6.40835C18.8799 6.60221 18.8799 6.73145 19.0092 6.90377C19.5369 7.64691 20.0539 8.40081 20.5708 9.15472C20.6893 9.33781 20.8078 9.40243 21.0339 9.35935C21.6155 9.23011 22.1432 9.4132 22.6387 9.71476C22.7571 9.79015 22.9725 9.83323 23.091 9.76861C26.1282 8.13156 29.1546 6.47297 32.1809 4.81438C32.1486 4.78207 32.1702 4.76053 32.2456 4.69591ZM21.3463 12.2565C21.8094 12.2565 22.1863 11.8795 22.1863 11.4164C22.1863 10.9533 21.7986 10.5656 21.3463 10.5656C20.8939 10.5656 20.5062 10.9641 20.5062 11.4164C20.4954 11.8795 20.8832 12.2565 21.3463 12.2565ZM17.1244 6.1391C17.5875 6.1391 17.9752 5.74061 17.9645 5.28827C17.9537 4.84669 17.5767 4.46974 17.1352 4.46974C16.6721 4.45897 16.2951 4.83592 16.2843 5.30981C16.2843 5.78369 16.6505 6.14987 17.1244 6.1391Z" fill="#396746"/>
<path d="M22.4448 29.3384C23.3602 28.423 24.2972 27.486 25.2235 26.5598C25.3312 26.4521 25.4281 26.3444 25.5466 26.2582C25.8374 26.0428 26.1282 26.0643 26.3866 26.3228C26.6343 26.5813 26.6343 26.8721 26.4297 27.1629C26.3543 27.2706 26.2466 27.3567 26.1497 27.4537C25.2235 28.3799 24.2865 29.3169 23.3387 30.2647C23.8234 31.1155 23.9526 32.0094 23.608 32.9356C23.3602 33.6034 22.9187 34.1203 22.3156 34.4757C21.0985 35.1866 19.5584 34.9496 18.5999 33.9157C17.6306 32.871 17.5444 31.277 18.3845 30.1354C19.3107 28.8645 20.7539 28.5738 22.4448 29.3384ZM22.5094 31.8802C22.5094 30.9432 21.7555 30.1893 20.8293 30.1677C19.8923 30.157 19.1061 30.9324 19.1061 31.8802C19.1061 32.8387 19.8815 33.6034 20.8293 33.5818C21.7663 33.5711 22.5094 32.8172 22.5094 31.8802Z" fill="#396746"/>
</g>
<defs>
<clipPath id="clip0_86_1046">
<rect width="40" height="40" fill="white"/>
</clipPath>
</defs>
</svg>
