<svg width="40" height="40" viewBox="0 0 40 40" fill="none" xmlns="http://www.w3.org/2000/svg">
<circle cx="20" cy="20" r="20" fill="#FFE816"/>
<path fill-rule="evenodd" clip-rule="evenodd" d="M29 14.6571C28.3382 14.9381 27.6255 15.1282 26.8789 15.2142C27.6414 14.7761 28.227 14.0841 28.5023 13.259C27.7886 13.664 26.9986 13.9581 26.1567 14.1161C25.4832 13.429 24.5238 13 23.4617 13C21.4222 13 19.7681 14.5821 19.7681 16.5343C19.7681 16.8123 19.802 17.0813 19.8645 17.3403C16.7956 17.1933 14.0752 15.7852 12.2538 13.647C11.9351 14.1691 11.754 14.7761 11.754 15.4242C11.754 16.6503 12.4063 17.7323 13.3964 18.3654C12.7907 18.3474 12.221 18.1884 11.7243 17.9234C11.7243 17.9384 11.7243 17.9534 11.7243 17.9684C11.7243 19.6805 12.9961 21.1086 14.6862 21.4336C14.3759 21.5146 14.0508 21.5576 13.713 21.5576C13.4758 21.5576 13.2439 21.5356 13.0184 21.4936C13.4885 22.8977 14.8525 23.9198 16.4684 23.9488C15.204 24.8959 13.6114 25.4609 11.881 25.4609C11.5835 25.4609 11.2891 25.4449 11 25.4119C12.634 26.415 14.575 27 16.6611 27C23.4532 27 27.168 21.6146 27.168 16.9443C27.168 16.7903 27.1638 16.6393 27.1574 16.4872C27.8786 15.9892 28.5055 15.3662 29 14.6581V14.6571Z" fill="black"/>
</svg>
