<svg width="40" height="40" viewBox="0 0 40 40" fill="none" xmlns="http://www.w3.org/2000/svg">
<circle cx="20" cy="20" r="20" fill="#FFE816"/>
<path fill-rule="evenodd" clip-rule="evenodd" d="M27.2 14.9C27.6689 15.4182 27.8345 16.5909 27.8345 16.5909C27.8345 16.5909 28 17.9818 28 19.3727V20.6545C28 22.0182 27.8345 23.4091 27.8345 23.4091C27.8345 23.4091 27.669 24.5818 27.2 25.1C26.6228 25.7225 25.9708 25.7776 25.6473 25.805C25.6307 25.8064 25.6149 25.8078 25.6 25.8091C23.3655 26 20 26 20 26C20 26 15.8345 25.9727 14.5655 25.8364C14.4981 25.821 14.4151 25.8095 14.3206 25.7964C13.9129 25.7398 13.2928 25.6537 12.8 25.1C12.3311 24.5819 12.1655 23.4091 12.1655 23.4091C12.1655 23.4091 12 22.0455 12 20.6546V19.3727C12 17.9818 12.1655 16.5909 12.1655 16.5909C12.1655 16.5909 12.3034 15.4182 12.8 14.9C13.3772 14.2775 14.0292 14.2224 14.3527 14.195C14.3693 14.1936 14.3851 14.1922 14.4 14.1909C16.6345 14.0273 20 14 20 14C20 14 23.3655 14.0273 25.6 14.1909C25.623 14.193 25.6483 14.1949 25.6756 14.197C26.0077 14.2221 26.6392 14.2699 27.2 14.9ZM18.069 23.1643V17.2461L23.3104 20.2734L18.069 23.1643Z" fill="black"/>
</svg>
